<svg xmlns="http://www.w3.org/2000/svg" xmlns:xlink="http://www.w3.org/1999/xlink" width="500" zoomAndPan="magnify" viewBox="0 0 375 374.999991" height="500" preserveAspectRatio="xMidYMid meet" version="1.0"><defs><g/><clipPath id="3fffb3925a"><path d="M 69.792969 14.378906 L 305.199219 14.378906 L 305.199219 261 L 69.792969 261 Z M 69.792969 14.378906 " clip-rule="nonzero"/></clipPath></defs><g clip-path="url(#3fffb3925a)"><path fill="#ffffff" d="M 217.09375 15.042969 C 217.089844 15.039062 217.089844 15.039062 217.085938 15.039062 C 214.757812 14.382812 212.457031 15.59375 210.488281 16.707031 C 209.230469 17.421875 208.03125 18.226562 206.832031 19.035156 C 206.789062 19.066406 206.742188 19.09375 206.699219 19.125 C 202.972656 21.714844 199.332031 24.425781 195.613281 27.027344 C 189.570312 31.265625 183.5 35.46875 177.453125 39.703125 C 171.554688 43.832031 165.664062 47.96875 159.863281 52.234375 C 154.078125 56.492188 148.367188 60.847656 142.796875 65.382812 C 137.34375 69.820312 132.066406 74.476562 126.96875 79.316406 C 122.007812 84.03125 117.222656 88.933594 112.609375 93.996094 C 108 99.054688 103.558594 104.273438 99.285156 109.621094 C 97.914062 111.332031 96.566406 113.058594 95.230469 114.796875 C 88.75 123.265625 82.753906 132.105469 77.289062 141.261719 C 75.84375 143.667969 74.453125 146.109375 73.105469 148.574219 C 72.046875 150.566406 70.96875 152.554688 70.105469 154.644531 C 69.914062 155.121094 69.699219 155.613281 69.746094 156.144531 C 70.261719 155.96875 70.597656 155.515625 70.957031 155.136719 C 72.453125 153.410156 73.800781 151.558594 75.160156 149.722656 C 81.53125 140.992188 87.542969 132.007812 93.953125 123.300781 C 98.132812 117.597656 102.449219 111.945312 107.101562 106.613281 C 111.601562 101.460938 116.359375 96.535156 121.351562 91.859375 C 126.550781 86.992188 132.023438 82.414062 137.582031 77.964844 C 139.683594 76.28125 141.800781 74.621094 143.929688 72.976562 C 149.6875 68.53125 155.488281 64.140625 161.347656 59.835938 C 167.328125 55.441406 173.3125 51.042969 179.292969 46.648438 C 182.042969 44.585938 184.871094 42.636719 187.644531 40.597656 C 191.519531 37.777344 195.390625 34.953125 199.332031 32.226562 C 200.398438 31.503906 201.472656 30.785156 202.601562 30.164062 C 202.914062 29.984375 203.269531 29.894531 203.628906 29.871094 C 203.605469 30.496094 203.207031 31 202.90625 31.519531 C 201.832031 33.191406 200.664062 34.804688 199.570312 36.464844 C 196.515625 41.035156 193.738281 45.851562 192.019531 51.097656 C 190.699219 55.101562 189.824219 59.378906 190.402344 63.601562 C 190.835938 66.894531 192.769531 69.941406 195.542969 71.761719 C 195.972656 72.035156 196.382812 72.34375 196.824219 72.597656 C 197.457031 72.890625 197.992188 73.390625 198.6875 73.535156 C 199.125 73.761719 199.5625 74 200.039062 74.132812 C 200.175781 74.175781 200.308594 74.21875 200.4375 74.265625 C 200.570312 74.304688 200.703125 74.351562 200.835938 74.394531 C 200.96875 74.4375 201.105469 74.480469 201.234375 74.527344 C 201.371094 74.574219 201.507812 74.617188 201.636719 74.660156 C 201.777344 74.703125 201.910156 74.757812 202.042969 74.816406 C 202.105469 74.828125 202.226562 74.84375 202.289062 74.855469 C 202.578125 75.03125 202.898438 75.195312 203.25 75.152344 C 203.871094 75.460938 204.566406 75.585938 205.246094 75.695312 C 205.894531 75.90625 206.574219 76.035156 207.25 76.097656 C 207.460938 76.195312 207.691406 76.207031 207.917969 76.226562 C 209 76.449219 210.097656 76.519531 211.183594 76.738281 C 211.769531 76.707031 212.324219 76.9375 212.914062 76.875 C 213.34375 77.027344 213.796875 77.035156 214.25 77.023438 C 214.707031 77.167969 215.1875 77.175781 215.664062 77.128906 C 215.996094 77.339844 216.417969 77.269531 216.789062 77.339844 C 222.246094 77.863281 227.726562 78.621094 232.945312 80.363281 C 235.195312 81.105469 237.402344 81.980469 239.5625 82.949219 C 240.644531 83.433594 241.714844 83.941406 242.773438 84.472656 C 247.230469 86.695312 251.496094 89.320312 255.535156 92.230469 C 257.5 93.644531 259.410156 95.132812 261.257812 96.695312 C 263.125 98.265625 264.855469 99.984375 266.6875 101.589844 C 270.332031 105.085938 273.75 108.816406 276.890625 112.769531 C 278.46875 114.746094 279.960938 116.785156 281.308594 118.925781 C 282.65625 121.109375 283.835938 123.425781 284.519531 125.90625 C 285.105469 128.039062 285.335938 130.28125 285.042969 132.476562 C 284.617188 135.964844 283.464844 139.316406 282.886719 142.777344 C 282.234375 146.457031 282.265625 150.304688 283.390625 153.890625 C 284.371094 157.132812 285.863281 160.191406 287.488281 163.152344 C 288.976562 165.867188 290.617188 168.492188 292.253906 171.117188 C 293.398438 172.976562 294.597656 174.808594 295.542969 176.777344 C 295.953125 177.726562 296.457031 178.738281 296.25 179.804688 C 296.117188 180.148438 295.789062 180.410156 295.429688 180.488281 C 294.421875 180.746094 293.386719 180.546875 292.371094 180.480469 C 290.328125 180.28125 288.28125 179.886719 286.222656 180.039062 C 285.304688 180.113281 284.289062 180.460938 283.855469 181.335938 C 283.382812 182.34375 283.644531 183.496094 283.925781 184.523438 C 284.535156 186.476562 285.554688 188.269531 286.519531 190.066406 C 287.960938 192.683594 289.503906 195.242188 290.871094 197.898438 C 291.4375 199.019531 291.980469 200.160156 292.339844 201.367188 C 292.683594 202.558594 292.785156 203.875 292.300781 205.042969 C 291.761719 206.320312 290.789062 207.339844 289.804688 208.289062 C 287.90625 210.042969 285.800781 211.550781 283.644531 212.96875 C 279.015625 215.972656 274.128906 218.578125 269.078125 220.792969 C 263.554688 223.167969 257.734375 225.066406 251.707031 225.496094 C 245.101562 226.007812 238.492188 224.675781 232.25 222.589844 C 229.585938 221.726562 227.003906 220.644531 224.40625 219.601562 C 227.390625 215.714844 230.539062 211.953125 233.480469 208.035156 C 233.933594 207.355469 234.542969 206.726562 234.726562 205.910156 C 234.183594 205.964844 233.757812 206.335938 233.328125 206.632812 C 231.710938 207.847656 230.21875 209.222656 228.765625 210.625 C 226.238281 213.078125 223.8125 215.636719 221.503906 218.300781 C 221.445312 218.367188 219.886719 217.546875 219.722656 217.46875 C 219.113281 217.179688 218.507812 216.882812 217.902344 216.585938 C 215.453125 215.375 213.019531 214.121094 210.664062 212.738281 C 209.472656 212.039062 208.160156 211.402344 207.054688 210.574219 C 207.125 210.617188 208.03125 209.898438 208.140625 209.824219 C 208.519531 209.566406 208.898438 209.308594 209.277344 209.050781 C 210.035156 208.539062 210.796875 208.027344 211.5625 207.523438 C 213.074219 206.523438 214.59375 205.535156 216.117188 204.550781 C 217.644531 203.5625 219.167969 202.578125 220.695312 201.589844 C 222.382812 200.496094 224.164062 199.417969 225.78125 198.199219 C 226.253906 197.839844 226.886719 197.464844 227.144531 196.90625 C 226.105469 197.027344 225.179688 197.566406 224.222656 197.960938 C 220.96875 199.476562 217.761719 201.101562 214.605469 202.816406 C 211.417969 204.546875 208.28125 206.378906 205.183594 208.253906 C 204.898438 208.429688 204.609375 208.601562 204.347656 208.8125 C 202.324219 207.640625 200.453125 206.214844 198.429688 205.039062 C 198.132812 204.855469 197.804688 204.710938 197.445312 204.71875 C 197.511719 205.253906 197.890625 205.667969 198.191406 206.09375 C 199.0625 207.207031 200.027344 208.242188 201.027344 209.238281 C 201.359375 209.582031 201.730469 209.890625 202.011719 210.28125 C 201.871094 210.089844 198.453125 212.574219 198.230469 212.726562 C 196.558594 213.867188 194.925781 215.074219 193.285156 216.265625 C 190.855469 218.027344 188.441406 219.828125 186.121094 221.730469 C 183.367188 223.988281 180.632812 226.265625 177.984375 228.644531 C 175.378906 230.988281 172.832031 233.40625 170.328125 235.859375 C 167.777344 238.359375 165.273438 240.910156 162.816406 243.503906 C 160.371094 246.089844 157.945312 248.691406 155.601562 251.371094 C 154.566406 252.554688 153.542969 253.75 152.535156 254.957031 C 152.054688 255.53125 151.578125 256.109375 151.113281 256.695312 C 150.878906 256.992188 150.644531 257.289062 150.410156 257.589844 C 150.289062 257.75 150.167969 257.90625 150.046875 258.0625 C 149.984375 258.148438 149.722656 258.398438 149.722656 258.496094 C 149.320312 259.113281 148.761719 259.679688 148.636719 260.429688 C 149.453125 260.132812 150.0625 259.480469 150.734375 258.957031 C 154.519531 255.667969 158.121094 252.183594 161.792969 248.769531 C 169.085938 241.921875 176.390625 235.078125 183.960938 228.535156 C 190.554688 222.84375 197.390625 217.429688 204.492188 212.382812 C 208.863281 216.003906 213.722656 219.035156 218.90625 221.355469 C 212.339844 229.339844 206.800781 238.117188 201.789062 247.144531 C 199.730469 250.914062 197.695312 254.707031 195.988281 258.648438 C 195.699219 259.378906 195.34375 260.097656 195.238281 260.882812 C 195.320312 261.066406 195.5 260.828125 195.589844 260.777344 C 196.265625 260.050781 196.8125 259.222656 197.382812 258.417969 C 200.199219 254.300781 202.878906 250.097656 205.628906 245.9375 C 210.863281 238.011719 216.21875 230.15625 222.039062 222.644531 C 227.324219 224.738281 232.835938 226.230469 238.40625 227.332031 C 241.957031 228.015625 245.546875 228.53125 249.15625 228.773438 C 255.023438 229.1875 261.078125 228.847656 266.609375 226.6875 C 269.390625 225.609375 271.949219 224.03125 274.269531 222.171875 C 276.203125 220.679688 277.90625 218.90625 279.90625 217.5 C 281.589844 216.304688 283.601562 215.738281 285.476562 214.917969 C 287.992188 213.863281 290.339844 212.398438 292.386719 210.59375 C 294.429688 208.851562 296.214844 206.832031 297.902344 204.746094 C 299.476562 202.765625 300.933594 200.683594 302.199219 198.492188 C 303.445312 196.332031 304.5625 194.042969 304.996094 191.570312 C 305.289062 190.003906 305.109375 188.375 304.585938 186.878906 C 303.765625 184.609375 302.351562 182.632812 301.074219 180.605469 C 298.199219 176.261719 295.910156 171.554688 294 166.71875 C 292.730469 163.507812 291.640625 160.222656 290.8125 156.871094 C 289.964844 153.488281 289.476562 150.019531 289.316406 146.539062 C 289.03125 141.628906 289.234375 136.6875 288.585938 131.800781 C 287.960938 126.78125 286.441406 121.855469 284.097656 117.367188 C 281.8125 113.285156 279.03125 109.570312 275.757812 106.230469 C 273.957031 104.390625 272.042969 102.667969 270.070312 101.019531 C 262.042969 94.359375 253.238281 88.730469 244.617188 82.886719 C 240.972656 80.378906 237.265625 77.90625 234.078125 74.820312 C 233.375 74.085938 232.699219 73.328125 232.066406 72.535156 L 232.289062 72.53125 C 232.230469 72.523438 232.117188 72.511719 232.058594 72.507812 C 229.511719 69.183594 228.40625 65.046875 227.644531 60.996094 C 228.644531 60.339844 229.554688 59.546875 230.589844 58.941406 C 232.878906 57.601562 235.113281 56.179688 237.4375 54.890625 C 242.140625 52.28125 246.984375 49.914062 251.828125 47.5625 C 255.511719 45.773438 259.195312 43.972656 262.988281 42.414062 C 264.1875 41.917969 266.925781 40.660156 267.558594 42.503906 C 268 43.789062 267.832031 45.171875 267.796875 46.503906 C 267.683594 47.527344 267.53125 48.546875 267.375 49.5625 C 267.128906 50.96875 266.824219 52.367188 266.480469 53.753906 C 266.296875 54.5 266.164062 55.257812 265.957031 56 C 264.578125 61.019531 262.472656 65.835938 260.007812 70.414062 C 258.921875 72.425781 257.785156 74.417969 256.59375 76.371094 C 256.457031 76.59375 256.320312 76.820312 256.183594 77.042969 C 255.753906 77.792969 255.253906 78.507812 254.894531 79.296875 C 254.902344 79.363281 254.914062 79.492188 254.921875 79.558594 C 254.910156 79.457031 255.460938 78.992188 255.542969 78.894531 C 255.773438 78.636719 255.992188 78.363281 256.214844 78.097656 C 256.675781 77.546875 257.0625 76.917969 257.46875 76.320312 C 258.351562 75.023438 259.335938 73.746094 260.105469 72.386719 C 260.894531 70.988281 261.726562 69.617188 262.492188 68.207031 C 263.125 67.035156 263.757812 65.828125 264.375 64.636719 C 265 63.421875 265.683594 62.210938 266.246094 60.964844 C 266.328125 60.777344 266.40625 60.585938 266.496094 60.398438 C 266.789062 59.789062 267.082031 59.175781 267.371094 58.5625 C 267.953125 57.335938 268.527344 56.105469 269.089844 54.871094 C 270.214844 52.402344 271.292969 49.910156 272.296875 47.390625 C 272.3125 47.351562 272.328125 47.3125 272.34375 47.273438 C 272.660156 46.472656 272.972656 45.671875 273.28125 44.863281 C 273.597656 44.03125 273.882812 43.1875 274.164062 42.339844 C 274.636719 40.742188 275.191406 39.109375 275.054688 37.417969 C 275.015625 36.6875 274.578125 35.957031 273.871094 35.703125 C 272.875 35.332031 271.742188 35.421875 270.714844 35.609375 C 268.222656 36.0625 265.710938 36.707031 263.289062 37.527344 C 262.078125 37.9375 260.898438 38.46875 259.6875 38.863281 C 258.394531 39.285156 257.109375 39.738281 255.832031 40.210938 C 255.753906 40.238281 255.679688 40.265625 255.601562 40.296875 C 253.070312 41.238281 250.582031 42.226562 248.085938 43.261719 C 243.019531 45.359375 237.996094 47.550781 232.964844 49.734375 C 230.742188 50.699219 228.511719 51.636719 226.296875 52.613281 C 225.46875 46.523438 224.839844 40.410156 224.039062 34.316406 C 223.726562 31.921875 223.25 29.546875 222.9375 27.15625 C 222.761719 25.8125 222.433594 24.496094 222.082031 23.1875 C 221.746094 21.941406 221.457031 20.6875 220.9375 19.503906 C 220.335938 18.144531 219.617188 16.757812 218.429688 15.828125 C 218.042969 15.523438 217.574219 15.179688 217.09375 15.042969 Z M 217.09375 15.042969 " fill-opacity="1" fill-rule="nonzero"/></g><path fill="#ffffff" d="M 251.3125 129.859375 C 249.742188 129.8125 248.171875 129.816406 246.601562 129.875 C 243.988281 129.976562 241.375 130.207031 238.78125 130.550781 C 237.464844 130.726562 236.148438 130.933594 234.839844 131.171875 C 234.171875 131.292969 233.507812 131.425781 232.84375 131.5625 C 232.523438 131.628906 232.207031 131.695312 231.886719 131.765625 C 231.6875 131.8125 231.117188 132.050781 230.933594 131.984375 C 232.527344 132.570312 234.496094 133.007812 235.632812 134.375 C 236.71875 135.695312 237.324219 137.320312 238.199219 138.769531 C 239.5625 141.164062 241.683594 143.019531 243.949219 144.53125 C 245.847656 145.785156 247.886719 146.835938 250.042969 147.554688 C 251.710938 148.097656 253.488281 148.460938 255.246094 148.234375 C 256.546875 148.082031 257.78125 147.492188 258.726562 146.589844 C 259.960938 145.460938 260.835938 144.019531 261.699219 142.605469 C 263.050781 140.394531 264.4375 138.183594 266.136719 136.21875 C 266.59375 135.636719 267.121094 135.097656 267.445312 134.425781 C 268.445312 132.289062 264.027344 131.480469 262.703125 131.203125 C 258.953125 130.425781 255.140625 129.980469 251.3125 129.859375 Z M 251.3125 129.859375 " fill-opacity="1" fill-rule="nonzero"/><path fill="#ffffff" d="M 226.1875 188.738281 C 225.738281 188.457031 225.195312 188.671875 224.710938 188.722656 C 221.210938 189.394531 217.765625 190.429688 214.398438 191.582031 C 211.03125 192.730469 207.730469 194.066406 204.496094 195.546875 C 202.28125 196.558594 200.066406 197.617188 197.941406 198.8125 C 194.875 200.472656 191.882812 202.265625 188.976562 204.1875 C 185.984375 206.164062 183.078125 208.273438 180.230469 210.449219 C 178.679688 211.632812 177.136719 212.835938 175.628906 214.070312 C 171.589844 217.363281 167.605469 220.730469 163.910156 224.40625 C 163.3125 225.078125 162.546875 225.664062 162.210938 226.519531 C 162.992188 226.386719 163.609375 225.832031 164.277344 225.445312 C 168.496094 222.617188 172.574219 219.582031 176.71875 216.644531 C 185.382812 210.476562 194.089844 204.296875 203.484375 199.28125 C 206.632812 197.601562 209.828125 196.015625 213.089844 194.574219 C 214.757812 193.835938 216.433594 193.121094 218.113281 192.421875 C 219.765625 191.738281 221.472656 191.140625 223.089844 190.390625 C 223.488281 190.207031 223.898438 190.046875 224.292969 189.851562 C 224.953125 189.53125 225.632812 189.230469 226.1875 188.738281 Z M 226.1875 188.738281 " fill-opacity="1" fill-rule="nonzero"/><g fill="#ffffff" fill-opacity="1"><g transform="translate(15.784858, 303.336866)"><g><path d="M 27.6875 -22 C 29.03125 -21.519531 29.703125 -20.878906 29.703125 -20.078125 C 29.703125 -19.816406 29.582031 -19.320312 29.34375 -18.59375 L 23.546875 -1.84375 C 23.503906 -1.695312 23.429688 -1.523438 23.328125 -1.328125 C 23.234375 -1.128906 22.96875 -0.863281 22.53125 -0.53125 C 22.101562 -0.195312 21.59375 -0.03125 21 -0.03125 C 20.40625 -0.03125 19.890625 -0.195312 19.453125 -0.53125 C 19.023438 -0.863281 18.738281 -1.191406 18.59375 -1.515625 L 15.0625 -11.921875 C 12.832031 -5.316406 11.695312 -1.953125 11.65625 -1.828125 C 11.613281 -1.710938 11.519531 -1.546875 11.375 -1.328125 C 11.238281 -1.109375 11.078125 -0.90625 10.890625 -0.71875 C 10.429688 -0.257812 9.878906 -0.03125 9.234375 -0.03125 C 8.585938 -0.03125 8.054688 -0.179688 7.640625 -0.484375 C 7.234375 -0.785156 6.960938 -1.085938 6.828125 -1.390625 L 6.609375 -1.84375 L 0.78125 -18.59375 C 0.5625 -19.257812 0.453125 -19.753906 0.453125 -20.078125 C 0.453125 -20.878906 1.125 -21.515625 2.46875 -21.984375 C 3.050781 -22.179688 3.578125 -22.28125 4.046875 -22.28125 C 4.523438 -22.28125 4.890625 -22.117188 5.140625 -21.796875 C 5.398438 -21.472656 5.628906 -20.976562 5.828125 -20.3125 L 9.140625 -10.234375 L 12.4375 -20.171875 C 12.71875 -21.015625 13.234375 -21.597656 13.984375 -21.921875 C 14.296875 -22.054688 14.707031 -22.125 15.21875 -22.125 C 15.738281 -22.125 16.21875 -21.957031 16.65625 -21.625 C 17.101562 -21.289062 17.390625 -20.960938 17.515625 -20.640625 L 20.984375 -10.171875 L 24.296875 -20.3125 C 24.460938 -20.78125 24.59375 -21.125 24.6875 -21.34375 C 24.789062 -21.5625 24.976562 -21.773438 25.25 -21.984375 C 25.519531 -22.203125 25.851562 -22.3125 26.25 -22.3125 C 26.65625 -22.3125 27.132812 -22.207031 27.6875 -22 Z M 27.6875 -22 "/></g></g></g><g fill="#ffffff" fill-opacity="1"><g transform="translate(45.942212, 303.336866)"><g><path d="M 14.875 -21.3125 C 15.039062 -21.613281 15.3125 -21.820312 15.6875 -21.9375 C 16.070312 -22.0625 16.554688 -22.125 17.140625 -22.125 C 17.722656 -22.125 18.1875 -22.070312 18.53125 -21.96875 C 18.875 -21.875 19.132812 -21.753906 19.3125 -21.609375 C 19.5 -21.472656 19.644531 -21.273438 19.75 -21.015625 C 19.84375 -20.671875 19.890625 -20.144531 19.890625 -19.4375 L 19.890625 -2.6875 C 19.890625 -2.226562 19.875 -1.878906 19.84375 -1.640625 C 19.8125 -1.410156 19.71875 -1.144531 19.5625 -0.84375 C 19.28125 -0.300781 18.492188 -0.03125 17.203125 -0.03125 C 15.796875 -0.03125 14.972656 -0.398438 14.734375 -1.140625 C 14.609375 -1.484375 14.546875 -2.007812 14.546875 -2.71875 L 14.546875 -8.84375 L 6.546875 -8.84375 L 6.546875 -2.6875 C 6.546875 -2.226562 6.53125 -1.878906 6.5 -1.640625 C 6.46875 -1.410156 6.375 -1.144531 6.21875 -0.84375 C 5.9375 -0.300781 5.148438 -0.03125 3.859375 -0.03125 C 2.453125 -0.03125 1.628906 -0.398438 1.390625 -1.140625 C 1.265625 -1.484375 1.203125 -2.007812 1.203125 -2.71875 L 1.203125 -19.46875 C 1.203125 -19.9375 1.21875 -20.285156 1.25 -20.515625 C 1.28125 -20.742188 1.378906 -21.007812 1.546875 -21.3125 C 1.828125 -21.851562 2.609375 -22.125 3.890625 -22.125 C 5.296875 -22.125 6.132812 -21.753906 6.40625 -21.015625 C 6.5 -20.671875 6.546875 -20.144531 6.546875 -19.4375 L 6.546875 -13.28125 L 14.546875 -13.28125 L 14.546875 -19.46875 C 14.546875 -19.9375 14.5625 -20.285156 14.59375 -20.515625 C 14.625 -20.742188 14.71875 -21.007812 14.875 -21.3125 Z M 14.875 -21.3125 "/></g></g></g><g fill="#ffffff" fill-opacity="1"><g transform="translate(67.043307, 303.336866)"><g><path d="M 1.203125 -19.46875 C 1.203125 -19.9375 1.21875 -20.285156 1.25 -20.515625 C 1.28125 -20.742188 1.378906 -21.007812 1.546875 -21.3125 C 1.828125 -21.851562 2.609375 -22.125 3.890625 -22.125 C 5.296875 -22.125 6.132812 -21.753906 6.40625 -21.015625 C 6.5 -20.671875 6.546875 -20.144531 6.546875 -19.4375 L 6.546875 -2.65625 C 6.546875 -2.175781 6.53125 -1.820312 6.5 -1.59375 C 6.46875 -1.375 6.375 -1.113281 6.21875 -0.8125 C 5.9375 -0.269531 5.148438 0 3.859375 0 C 2.453125 0 1.628906 -0.378906 1.390625 -1.140625 C 1.265625 -1.460938 1.203125 -1.976562 1.203125 -2.6875 Z M 1.203125 -19.46875 "/></g></g></g><g fill="#ffffff" fill-opacity="1"><g transform="translate(74.801508, 303.336866)"><g><path d="M 1.546875 -3.109375 C 1.015625 -3.753906 0.75 -4.332031 0.75 -4.84375 C 0.75 -5.351562 1.179688 -6.03125 2.046875 -6.875 C 2.554688 -7.363281 3.09375 -7.609375 3.65625 -7.609375 C 4.21875 -7.609375 5 -7.101562 6 -6.09375 C 6.289062 -5.75 6.695312 -5.421875 7.21875 -5.109375 C 7.738281 -4.804688 8.21875 -4.65625 8.65625 -4.65625 C 10.53125 -4.65625 11.46875 -5.414062 11.46875 -6.9375 C 11.46875 -7.40625 11.210938 -7.796875 10.703125 -8.109375 C 10.191406 -8.421875 9.550781 -8.644531 8.78125 -8.78125 C 8.019531 -8.925781 7.195312 -9.15625 6.3125 -9.46875 C 5.425781 -9.78125 4.597656 -10.144531 3.828125 -10.5625 C 3.066406 -10.988281 2.425781 -11.660156 1.90625 -12.578125 C 1.394531 -13.492188 1.140625 -14.59375 1.140625 -15.875 C 1.140625 -17.644531 1.800781 -19.1875 3.125 -20.5 C 4.445312 -21.820312 6.242188 -22.484375 8.515625 -22.484375 C 9.722656 -22.484375 10.820312 -22.328125 11.8125 -22.015625 C 12.8125 -21.703125 13.503906 -21.390625 13.890625 -21.078125 L 14.640625 -20.5 C 15.265625 -19.914062 15.578125 -19.421875 15.578125 -19.015625 C 15.578125 -18.617188 15.335938 -18.066406 14.859375 -17.359375 C 14.171875 -16.347656 13.460938 -15.84375 12.734375 -15.84375 C 12.316406 -15.84375 11.796875 -16.046875 11.171875 -16.453125 C 11.109375 -16.492188 10.988281 -16.59375 10.8125 -16.75 C 10.644531 -16.914062 10.492188 -17.046875 10.359375 -17.140625 C 9.929688 -17.398438 9.390625 -17.53125 8.734375 -17.53125 C 8.085938 -17.53125 7.546875 -17.375 7.109375 -17.0625 C 6.671875 -16.757812 6.453125 -16.328125 6.453125 -15.765625 C 6.453125 -15.210938 6.707031 -14.765625 7.21875 -14.421875 C 7.738281 -14.085938 8.378906 -13.859375 9.140625 -13.734375 C 9.910156 -13.609375 10.75 -13.421875 11.65625 -13.171875 C 12.5625 -12.921875 13.394531 -12.613281 14.15625 -12.25 C 14.925781 -11.894531 15.566406 -11.269531 16.078125 -10.375 C 16.585938 -9.476562 16.84375 -8.375 16.84375 -7.0625 C 16.84375 -5.757812 16.582031 -4.609375 16.0625 -3.609375 C 15.539062 -2.609375 14.851562 -1.835938 14 -1.296875 C 12.375 -0.234375 10.632812 0.296875 8.78125 0.296875 C 7.832031 0.296875 6.9375 0.179688 6.09375 -0.046875 C 5.25 -0.273438 4.566406 -0.5625 4.046875 -0.90625 C 2.972656 -1.550781 2.226562 -2.175781 1.8125 -2.78125 Z M 1.546875 -3.109375 "/></g></g></g><g fill="#ffffff" fill-opacity="1"><g transform="translate(92.40085, 303.336866)"><g><path d="M 10.6875 -11.109375 C 13.769531 -8.148438 15.953125 -5.925781 17.234375 -4.4375 C 17.898438 -3.695312 18.234375 -3.066406 18.234375 -2.546875 C 18.234375 -2.035156 17.828125 -1.429688 17.015625 -0.734375 C 16.210938 -0.046875 15.554688 0.296875 15.046875 0.296875 C 14.535156 0.296875 13.914062 -0.125 13.1875 -0.96875 L 6.546875 -8.546875 L 6.546875 -2.65625 C 6.546875 -2.175781 6.53125 -1.820312 6.5 -1.59375 C 6.46875 -1.375 6.375 -1.113281 6.21875 -0.8125 C 5.9375 -0.269531 5.148438 0 3.859375 0 C 2.453125 0 1.628906 -0.378906 1.390625 -1.140625 C 1.265625 -1.460938 1.203125 -1.976562 1.203125 -2.6875 L 1.203125 -19.46875 C 1.203125 -19.9375 1.21875 -20.285156 1.25 -20.515625 C 1.28125 -20.742188 1.378906 -21.007812 1.546875 -21.3125 C 1.828125 -21.851562 2.609375 -22.125 3.890625 -22.125 C 5.296875 -22.125 6.132812 -21.753906 6.40625 -21.015625 C 6.5 -20.671875 6.546875 -20.144531 6.546875 -19.4375 L 6.546875 -13.671875 C 9.285156 -16.753906 11.5 -19.28125 13.1875 -21.25 C 13.894531 -22.070312 14.507812 -22.484375 15.03125 -22.484375 C 15.550781 -22.484375 16.210938 -22.132812 17.015625 -21.4375 C 17.828125 -20.75 18.234375 -20.148438 18.234375 -19.640625 C 18.234375 -19.128906 17.929688 -18.519531 17.328125 -17.8125 C 16.160156 -16.457031 14.347656 -14.601562 11.890625 -12.25 Z M 10.6875 -11.109375 "/></g></g></g><g fill="#ffffff" fill-opacity="1"><g transform="translate(111.69069, 303.336866)"><g><path d="M 6.546875 -5.34375 L 15.84375 -5.34375 C 16.3125 -5.34375 16.660156 -5.328125 16.890625 -5.296875 C 17.117188 -5.265625 17.382812 -5.171875 17.6875 -5.015625 C 18.226562 -4.734375 18.5 -3.945312 18.5 -2.65625 C 18.5 -1.25 18.128906 -0.425781 17.390625 -0.1875 C 17.046875 -0.0625 16.519531 0 15.8125 0 L 3.859375 0 C 2.453125 0 1.628906 -0.378906 1.390625 -1.140625 C 1.265625 -1.460938 1.203125 -1.976562 1.203125 -2.6875 L 1.203125 -19.46875 C 1.203125 -20.5 1.394531 -21.195312 1.78125 -21.5625 C 2.164062 -21.9375 2.890625 -22.125 3.953125 -22.125 L 15.84375 -22.125 C 16.3125 -22.125 16.660156 -22.109375 16.890625 -22.078125 C 17.117188 -22.046875 17.382812 -21.953125 17.6875 -21.796875 C 18.226562 -21.515625 18.5 -20.726562 18.5 -19.4375 C 18.5 -18.03125 18.128906 -17.207031 17.390625 -16.96875 C 17.046875 -16.84375 16.519531 -16.78125 15.8125 -16.78125 L 6.546875 -16.78125 L 6.546875 -13.734375 L 12.53125 -13.734375 C 12.988281 -13.734375 13.332031 -13.71875 13.5625 -13.6875 C 13.800781 -13.65625 14.070312 -13.5625 14.375 -13.40625 C 14.914062 -13.125 15.1875 -12.335938 15.1875 -11.046875 C 15.1875 -9.640625 14.800781 -8.816406 14.03125 -8.578125 C 13.695312 -8.453125 13.175781 -8.390625 12.46875 -8.390625 L 6.546875 -8.390625 Z M 6.546875 -5.34375 "/></g></g></g><g fill="#ffffff" fill-opacity="1"><g transform="translate(130.950339, 303.336866)"><g><path d="M 18.140625 -3.75 C 18.441406 -3.019531 18.59375 -2.492188 18.59375 -2.171875 C 18.59375 -1.410156 17.96875 -0.765625 16.71875 -0.234375 C 16.082031 0.046875 15.566406 0.1875 15.171875 0.1875 C 14.773438 0.1875 14.453125 0.09375 14.203125 -0.09375 C 13.953125 -0.289062 13.765625 -0.488281 13.640625 -0.6875 C 13.441406 -1.070312 12.660156 -2.894531 11.296875 -6.15625 L 10.359375 -6.09375 L 6.546875 -6.09375 L 6.546875 -2.6875 C 6.546875 -2.226562 6.53125 -1.878906 6.5 -1.640625 C 6.46875 -1.410156 6.375 -1.144531 6.21875 -0.84375 C 5.9375 -0.300781 5.148438 -0.03125 3.859375 -0.03125 C 2.453125 -0.03125 1.628906 -0.398438 1.390625 -1.140625 C 1.265625 -1.484375 1.203125 -2.007812 1.203125 -2.71875 L 1.203125 -19.46875 C 1.203125 -19.9375 1.21875 -20.285156 1.25 -20.515625 C 1.28125 -20.742188 1.378906 -21.007812 1.546875 -21.3125 C 1.828125 -21.851562 2.609375 -22.125 3.890625 -22.125 L 10.421875 -22.125 C 12.191406 -22.125 13.910156 -21.484375 15.578125 -20.203125 C 16.378906 -19.578125 17.039062 -18.726562 17.5625 -17.65625 C 18.09375 -16.59375 18.359375 -15.40625 18.359375 -14.09375 C 18.359375 -11.820312 17.601562 -9.953125 16.09375 -8.484375 C 16.53125 -7.410156 17.210938 -5.832031 18.140625 -3.75 Z M 6.546875 -11.4375 L 10.421875 -11.4375 C 11.003906 -11.4375 11.585938 -11.65625 12.171875 -12.09375 C 12.753906 -12.539062 13.046875 -13.207031 13.046875 -14.09375 C 13.046875 -14.976562 12.753906 -15.644531 12.171875 -16.09375 C 11.585938 -16.550781 10.984375 -16.78125 10.359375 -16.78125 L 6.546875 -16.78125 Z M 6.546875 -11.4375 "/></g></g></g><g fill="#ffffff" fill-opacity="1"><g transform="translate(149.998686, 303.336866)"><g><path d="M 1.546875 -3.109375 C 1.015625 -3.753906 0.75 -4.332031 0.75 -4.84375 C 0.75 -5.351562 1.179688 -6.03125 2.046875 -6.875 C 2.554688 -7.363281 3.09375 -7.609375 3.65625 -7.609375 C 4.21875 -7.609375 5 -7.101562 6 -6.09375 C 6.289062 -5.75 6.695312 -5.421875 7.21875 -5.109375 C 7.738281 -4.804688 8.21875 -4.65625 8.65625 -4.65625 C 10.53125 -4.65625 11.46875 -5.414062 11.46875 -6.9375 C 11.46875 -7.40625 11.210938 -7.796875 10.703125 -8.109375 C 10.191406 -8.421875 9.550781 -8.644531 8.78125 -8.78125 C 8.019531 -8.925781 7.195312 -9.15625 6.3125 -9.46875 C 5.425781 -9.78125 4.597656 -10.144531 3.828125 -10.5625 C 3.066406 -10.988281 2.425781 -11.660156 1.90625 -12.578125 C 1.394531 -13.492188 1.140625 -14.59375 1.140625 -15.875 C 1.140625 -17.644531 1.800781 -19.1875 3.125 -20.5 C 4.445312 -21.820312 6.242188 -22.484375 8.515625 -22.484375 C 9.722656 -22.484375 10.820312 -22.328125 11.8125 -22.015625 C 12.8125 -21.703125 13.503906 -21.390625 13.890625 -21.078125 L 14.640625 -20.5 C 15.265625 -19.914062 15.578125 -19.421875 15.578125 -19.015625 C 15.578125 -18.617188 15.335938 -18.066406 14.859375 -17.359375 C 14.171875 -16.347656 13.460938 -15.84375 12.734375 -15.84375 C 12.316406 -15.84375 11.796875 -16.046875 11.171875 -16.453125 C 11.109375 -16.492188 10.988281 -16.59375 10.8125 -16.75 C 10.644531 -16.914062 10.492188 -17.046875 10.359375 -17.140625 C 9.929688 -17.398438 9.390625 -17.53125 8.734375 -17.53125 C 8.085938 -17.53125 7.546875 -17.375 7.109375 -17.0625 C 6.671875 -16.757812 6.453125 -16.328125 6.453125 -15.765625 C 6.453125 -15.210938 6.707031 -14.765625 7.21875 -14.421875 C 7.738281 -14.085938 8.378906 -13.859375 9.140625 -13.734375 C 9.910156 -13.609375 10.75 -13.421875 11.65625 -13.171875 C 12.5625 -12.921875 13.394531 -12.613281 14.15625 -12.25 C 14.925781 -11.894531 15.566406 -11.269531 16.078125 -10.375 C 16.585938 -9.476562 16.84375 -8.375 16.84375 -7.0625 C 16.84375 -5.757812 16.582031 -4.609375 16.0625 -3.609375 C 15.539062 -2.609375 14.851562 -1.835938 14 -1.296875 C 12.375 -0.234375 10.632812 0.296875 8.78125 0.296875 C 7.832031 0.296875 6.9375 0.179688 6.09375 -0.046875 C 5.25 -0.273438 4.566406 -0.5625 4.046875 -0.90625 C 2.972656 -1.550781 2.226562 -2.175781 1.8125 -2.78125 Z M 1.546875 -3.109375 "/></g></g></g><g fill="#ffffff" fill-opacity="1"><g transform="translate(167.598027, 303.336866)"><g/></g></g><g fill="#ffffff" fill-opacity="1"><g transform="translate(175.235482, 303.336866)"><g><path d="M 27.6875 -22 C 29.03125 -21.519531 29.703125 -20.878906 29.703125 -20.078125 C 29.703125 -19.816406 29.582031 -19.320312 29.34375 -18.59375 L 23.546875 -1.84375 C 23.503906 -1.695312 23.429688 -1.523438 23.328125 -1.328125 C 23.234375 -1.128906 22.96875 -0.863281 22.53125 -0.53125 C 22.101562 -0.195312 21.59375 -0.03125 21 -0.03125 C 20.40625 -0.03125 19.890625 -0.195312 19.453125 -0.53125 C 19.023438 -0.863281 18.738281 -1.191406 18.59375 -1.515625 L 15.0625 -11.921875 C 12.832031 -5.316406 11.695312 -1.953125 11.65625 -1.828125 C 11.613281 -1.710938 11.519531 -1.546875 11.375 -1.328125 C 11.238281 -1.109375 11.078125 -0.90625 10.890625 -0.71875 C 10.429688 -0.257812 9.878906 -0.03125 9.234375 -0.03125 C 8.585938 -0.03125 8.054688 -0.179688 7.640625 -0.484375 C 7.234375 -0.785156 6.960938 -1.085938 6.828125 -1.390625 L 6.609375 -1.84375 L 0.78125 -18.59375 C 0.5625 -19.257812 0.453125 -19.753906 0.453125 -20.078125 C 0.453125 -20.878906 1.125 -21.515625 2.46875 -21.984375 C 3.050781 -22.179688 3.578125 -22.28125 4.046875 -22.28125 C 4.523438 -22.28125 4.890625 -22.117188 5.140625 -21.796875 C 5.398438 -21.472656 5.628906 -20.976562 5.828125 -20.3125 L 9.140625 -10.234375 L 12.4375 -20.171875 C 12.71875 -21.015625 13.234375 -21.597656 13.984375 -21.921875 C 14.296875 -22.054688 14.707031 -22.125 15.21875 -22.125 C 15.738281 -22.125 16.21875 -21.957031 16.65625 -21.625 C 17.101562 -21.289062 17.390625 -20.960938 17.515625 -20.640625 L 20.984375 -10.171875 L 24.296875 -20.3125 C 24.460938 -20.78125 24.59375 -21.125 24.6875 -21.34375 C 24.789062 -21.5625 24.976562 -21.773438 25.25 -21.984375 C 25.519531 -22.203125 25.851562 -22.3125 26.25 -22.3125 C 26.65625 -22.3125 27.132812 -22.207031 27.6875 -22 Z M 27.6875 -22 "/></g></g></g><g fill="#ffffff" fill-opacity="1"><g transform="translate(205.392836, 303.336866)"><g><path d="M 6.546875 -5.34375 L 15.84375 -5.34375 C 16.3125 -5.34375 16.660156 -5.328125 16.890625 -5.296875 C 17.117188 -5.265625 17.382812 -5.171875 17.6875 -5.015625 C 18.226562 -4.734375 18.5 -3.945312 18.5 -2.65625 C 18.5 -1.25 18.128906 -0.425781 17.390625 -0.1875 C 17.046875 -0.0625 16.519531 0 15.8125 0 L 3.859375 0 C 2.453125 0 1.628906 -0.378906 1.390625 -1.140625 C 1.265625 -1.460938 1.203125 -1.976562 1.203125 -2.6875 L 1.203125 -19.46875 C 1.203125 -20.5 1.394531 -21.195312 1.78125 -21.5625 C 2.164062 -21.9375 2.890625 -22.125 3.953125 -22.125 L 15.84375 -22.125 C 16.3125 -22.125 16.660156 -22.109375 16.890625 -22.078125 C 17.117188 -22.046875 17.382812 -21.953125 17.6875 -21.796875 C 18.226562 -21.515625 18.5 -20.726562 18.5 -19.4375 C 18.5 -18.03125 18.128906 -17.207031 17.390625 -16.96875 C 17.046875 -16.84375 16.519531 -16.78125 15.8125 -16.78125 L 6.546875 -16.78125 L 6.546875 -13.734375 L 12.53125 -13.734375 C 12.988281 -13.734375 13.332031 -13.71875 13.5625 -13.6875 C 13.800781 -13.65625 14.070312 -13.5625 14.375 -13.40625 C 14.914062 -13.125 15.1875 -12.335938 15.1875 -11.046875 C 15.1875 -9.640625 14.800781 -8.816406 14.03125 -8.578125 C 13.695312 -8.453125 13.175781 -8.390625 12.46875 -8.390625 L 6.546875 -8.390625 Z M 6.546875 -5.34375 "/></g></g></g><g fill="#ffffff" fill-opacity="1"><g transform="translate(224.652475, 303.336866)"><g><path d="M 6.546875 -4.46875 L 14.765625 -4.46875 C 15.429688 -4.46875 15.910156 -4.390625 16.203125 -4.234375 C 16.503906 -4.085938 16.707031 -3.851562 16.8125 -3.53125 C 16.914062 -3.207031 16.96875 -2.78125 16.96875 -2.25 C 16.96875 -1.71875 16.914062 -1.289062 16.8125 -0.96875 C 16.707031 -0.644531 16.535156 -0.421875 16.296875 -0.296875 C 15.921875 -0.0976562 15.398438 0 14.734375 0 L 3.859375 0 C 2.453125 0 1.628906 -0.378906 1.390625 -1.140625 C 1.265625 -1.460938 1.203125 -1.976562 1.203125 -2.6875 L 1.203125 -19.46875 C 1.203125 -19.9375 1.21875 -20.285156 1.25 -20.515625 C 1.28125 -20.742188 1.378906 -21.007812 1.546875 -21.3125 C 1.828125 -21.851562 2.609375 -22.125 3.890625 -22.125 C 5.296875 -22.125 6.132812 -21.753906 6.40625 -21.015625 C 6.5 -20.671875 6.546875 -20.144531 6.546875 -19.4375 Z M 6.546875 -4.46875 "/></g></g></g><g fill="#ffffff" fill-opacity="1"><g transform="translate(242.372551, 303.336866)"><g><path d="M 15.84375 -22.125 C 16.3125 -22.125 16.660156 -22.109375 16.890625 -22.078125 C 17.117188 -22.046875 17.378906 -21.945312 17.671875 -21.78125 C 17.960938 -21.625 18.164062 -21.351562 18.28125 -20.96875 C 18.40625 -20.59375 18.46875 -20.082031 18.46875 -19.4375 C 18.46875 -18.789062 18.40625 -18.273438 18.28125 -17.890625 C 18.164062 -17.515625 17.957031 -17.25 17.65625 -17.09375 C 17.351562 -16.945312 17.085938 -16.859375 16.859375 -16.828125 C 16.628906 -16.796875 16.269531 -16.78125 15.78125 -16.78125 L 6.546875 -16.78125 L 6.546875 -13.734375 L 12.5 -13.734375 C 12.976562 -13.734375 13.332031 -13.71875 13.5625 -13.6875 C 13.800781 -13.65625 14.070312 -13.5625 14.375 -13.40625 C 14.894531 -13.101562 15.15625 -12.304688 15.15625 -11.015625 C 15.15625 -9.609375 14.769531 -8.773438 14 -8.515625 C 13.6875 -8.410156 13.175781 -8.359375 12.46875 -8.359375 L 6.546875 -8.359375 L 6.546875 -2.65625 C 6.546875 -2.175781 6.53125 -1.820312 6.5 -1.59375 C 6.46875 -1.375 6.375 -1.113281 6.21875 -0.8125 C 5.9375 -0.269531 5.148438 0 3.859375 0 C 2.453125 0 1.628906 -0.378906 1.390625 -1.140625 C 1.265625 -1.460938 1.203125 -1.976562 1.203125 -2.6875 L 1.203125 -19.46875 C 1.203125 -20.5 1.394531 -21.195312 1.78125 -21.5625 C 2.164062 -21.9375 2.890625 -22.125 3.953125 -22.125 Z M 15.84375 -22.125 "/></g></g></g><g fill="#ffffff" fill-opacity="1"><g transform="translate(261.602011, 303.336866)"><g><path d="M 13.984375 -20.5625 L 22.125 -3.71875 C 22.46875 -3.03125 22.640625 -2.515625 22.640625 -2.171875 C 22.640625 -1.453125 22.054688 -0.800781 20.890625 -0.21875 C 20.203125 0.125 19.660156 0.296875 19.265625 0.296875 C 18.878906 0.296875 18.5625 0.207031 18.3125 0.03125 C 18.0625 -0.144531 17.878906 -0.332031 17.765625 -0.53125 C 17.648438 -0.738281 17.492188 -1.046875 17.296875 -1.453125 L 15.734375 -4.703125 L 7.359375 -4.703125 L 5.796875 -1.453125 C 5.597656 -1.046875 5.441406 -0.75 5.328125 -0.5625 C 5.210938 -0.382812 5.03125 -0.203125 4.78125 -0.015625 C 4.53125 0.171875 4.207031 0.265625 3.8125 0.265625 C 3.425781 0.265625 2.890625 0.0976562 2.203125 -0.234375 C 1.035156 -0.804688 0.453125 -1.453125 0.453125 -2.171875 C 0.453125 -2.515625 0.625 -3.03125 0.96875 -3.71875 L 9.109375 -20.59375 C 9.335938 -21.050781 9.675781 -21.421875 10.125 -21.703125 C 10.582031 -21.984375 11.0625 -22.125 11.5625 -22.125 C 12.644531 -22.125 13.453125 -21.601562 13.984375 -20.5625 Z M 11.53125 -13.3125 L 9.546875 -9.171875 L 13.546875 -9.171875 Z M 11.53125 -13.3125 "/></g></g></g><g fill="#ffffff" fill-opacity="1"><g transform="translate(284.6955, 303.336866)"><g><path d="M 18.140625 -3.75 C 18.441406 -3.019531 18.59375 -2.492188 18.59375 -2.171875 C 18.59375 -1.410156 17.96875 -0.765625 16.71875 -0.234375 C 16.082031 0.046875 15.566406 0.1875 15.171875 0.1875 C 14.773438 0.1875 14.453125 0.09375 14.203125 -0.09375 C 13.953125 -0.289062 13.765625 -0.488281 13.640625 -0.6875 C 13.441406 -1.070312 12.660156 -2.894531 11.296875 -6.15625 L 10.359375 -6.09375 L 6.546875 -6.09375 L 6.546875 -2.6875 C 6.546875 -2.226562 6.53125 -1.878906 6.5 -1.640625 C 6.46875 -1.410156 6.375 -1.144531 6.21875 -0.84375 C 5.9375 -0.300781 5.148438 -0.03125 3.859375 -0.03125 C 2.453125 -0.03125 1.628906 -0.398438 1.390625 -1.140625 C 1.265625 -1.484375 1.203125 -2.007812 1.203125 -2.71875 L 1.203125 -19.46875 C 1.203125 -19.9375 1.21875 -20.285156 1.25 -20.515625 C 1.28125 -20.742188 1.378906 -21.007812 1.546875 -21.3125 C 1.828125 -21.851562 2.609375 -22.125 3.890625 -22.125 L 10.421875 -22.125 C 12.191406 -22.125 13.910156 -21.484375 15.578125 -20.203125 C 16.378906 -19.578125 17.039062 -18.726562 17.5625 -17.65625 C 18.09375 -16.59375 18.359375 -15.40625 18.359375 -14.09375 C 18.359375 -11.820312 17.601562 -9.953125 16.09375 -8.484375 C 16.53125 -7.410156 17.210938 -5.832031 18.140625 -3.75 Z M 6.546875 -11.4375 L 10.421875 -11.4375 C 11.003906 -11.4375 11.585938 -11.65625 12.171875 -12.09375 C 12.753906 -12.539062 13.046875 -13.207031 13.046875 -14.09375 C 13.046875 -14.976562 12.753906 -15.644531 12.171875 -16.09375 C 11.585938 -16.550781 10.984375 -16.78125 10.359375 -16.78125 L 6.546875 -16.78125 Z M 6.546875 -11.4375 "/></g></g></g><g fill="#ffffff" fill-opacity="1"><g transform="translate(303.743847, 303.336866)"><g><path d="M 6.546875 -5.34375 L 15.84375 -5.34375 C 16.3125 -5.34375 16.660156 -5.328125 16.890625 -5.296875 C 17.117188 -5.265625 17.382812 -5.171875 17.6875 -5.015625 C 18.226562 -4.734375 18.5 -3.945312 18.5 -2.65625 C 18.5 -1.25 18.128906 -0.425781 17.390625 -0.1875 C 17.046875 -0.0625 16.519531 0 15.8125 0 L 3.859375 0 C 2.453125 0 1.628906 -0.378906 1.390625 -1.140625 C 1.265625 -1.460938 1.203125 -1.976562 1.203125 -2.6875 L 1.203125 -19.46875 C 1.203125 -20.5 1.394531 -21.195312 1.78125 -21.5625 C 2.164062 -21.9375 2.890625 -22.125 3.953125 -22.125 L 15.84375 -22.125 C 16.3125 -22.125 16.660156 -22.109375 16.890625 -22.078125 C 17.117188 -22.046875 17.382812 -21.953125 17.6875 -21.796875 C 18.226562 -21.515625 18.5 -20.726562 18.5 -19.4375 C 18.5 -18.03125 18.128906 -17.207031 17.390625 -16.96875 C 17.046875 -16.84375 16.519531 -16.78125 15.8125 -16.78125 L 6.546875 -16.78125 L 6.546875 -13.734375 L 12.53125 -13.734375 C 12.988281 -13.734375 13.332031 -13.71875 13.5625 -13.6875 C 13.800781 -13.65625 14.070312 -13.5625 14.375 -13.40625 C 14.914062 -13.125 15.1875 -12.335938 15.1875 -11.046875 C 15.1875 -9.640625 14.800781 -8.816406 14.03125 -8.578125 C 13.695312 -8.453125 13.175781 -8.390625 12.46875 -8.390625 L 6.546875 -8.390625 Z M 6.546875 -5.34375 "/></g></g></g><g fill="#ffffff" fill-opacity="1"><g transform="translate(323.003588, 303.336866)"><g/></g></g><g fill="#ffffff" fill-opacity="1"><g transform="translate(15.784858, 345.336863)"><g/></g></g><g fill="#ffffff" fill-opacity="1"><g transform="translate(23.422312, 345.336863)"><g/></g></g><g fill="#ffffff" fill-opacity="1"><g transform="translate(31.059767, 345.336863)"><g/></g></g><g fill="#ffffff" fill-opacity="1"><g transform="translate(38.697221, 345.336863)"><g/></g></g><g fill="#ffffff" fill-opacity="1"><g transform="translate(46.334676, 345.336863)"><g/></g></g><g fill="#ffffff" fill-opacity="1"><g transform="translate(53.97213, 345.336863)"><g/></g></g><g fill="#ffffff" fill-opacity="1"><g transform="translate(61.609585, 345.336863)"><g/></g></g><g fill="#ffffff" fill-opacity="1"><g transform="translate(69.247039, 345.336863)"><g/></g></g><g fill="#ffffff" fill-opacity="1"><g transform="translate(76.884493, 345.336863)"><g/></g></g><g fill="#ffffff" fill-opacity="1"><g transform="translate(84.521948, 345.336863)"><g/></g></g><g fill="#ffffff" fill-opacity="1"><g transform="translate(92.159402, 345.336863)"><g/></g></g><g fill="#ffffff" fill-opacity="1"><g transform="translate(99.796857, 345.336863)"><g/></g></g><g fill="#ffffff" fill-opacity="1"><g transform="translate(107.434311, 345.336863)"><g/></g></g><g fill="#ffffff" fill-opacity="1"><g transform="translate(115.071766, 345.336863)"><g/></g></g><g fill="#ffffff" fill-opacity="1"><g transform="translate(122.70922, 345.336863)"><g/></g></g><g fill="#ffffff" fill-opacity="1"><g transform="translate(130.346675, 345.336863)"><g/></g></g><g fill="#ffffff" fill-opacity="1"><g transform="translate(137.984129, 345.336863)"><g/></g></g><g fill="#ffffff" fill-opacity="1"><g transform="translate(145.621584, 345.336863)"><g/></g></g><g fill="#ffffff" fill-opacity="1"><g transform="translate(153.259038, 345.336863)"><g/></g></g><g fill="#ffffff" fill-opacity="1"><g transform="translate(160.896493, 345.336863)"><g/></g></g><g fill="#ffffff" fill-opacity="1"><g transform="translate(168.533947, 345.336863)"><g/></g></g><g fill="#ffffff" fill-opacity="1"><g transform="translate(176.171402, 345.336863)"><g/></g></g><g fill="#ffffff" fill-opacity="1"><g transform="translate(183.808856, 345.336863)"><g/></g></g><g fill="#ffffff" fill-opacity="1"><g transform="translate(191.446311, 345.336863)"><g/></g></g><g fill="#ffffff" fill-opacity="1"><g transform="translate(199.083765, 345.336863)"><g/></g></g><g fill="#ffffff" fill-opacity="1"><g transform="translate(206.72122, 345.336863)"><g/></g></g><g fill="#ffffff" fill-opacity="1"><g transform="translate(214.358674, 345.336863)"><g/></g></g><g fill="#ffffff" fill-opacity="1"><g transform="translate(221.999692, 345.336863)"><g><path d="M 14.875 -21.3125 C 15.039062 -21.613281 15.3125 -21.820312 15.6875 -21.9375 C 16.070312 -22.0625 16.554688 -22.125 17.140625 -22.125 C 17.722656 -22.125 18.1875 -22.070312 18.53125 -21.96875 C 18.875 -21.875 19.132812 -21.753906 19.3125 -21.609375 C 19.5 -21.472656 19.644531 -21.273438 19.75 -21.015625 C 19.84375 -20.671875 19.890625 -20.144531 19.890625 -19.4375 L 19.890625 -2.6875 C 19.890625 -2.226562 19.875 -1.878906 19.84375 -1.640625 C 19.8125 -1.410156 19.71875 -1.144531 19.5625 -0.84375 C 19.28125 -0.300781 18.492188 -0.03125 17.203125 -0.03125 C 15.796875 -0.03125 14.972656 -0.398438 14.734375 -1.140625 C 14.609375 -1.484375 14.546875 -2.007812 14.546875 -2.71875 L 14.546875 -8.84375 L 6.546875 -8.84375 L 6.546875 -2.6875 C 6.546875 -2.226562 6.53125 -1.878906 6.5 -1.640625 C 6.46875 -1.410156 6.375 -1.144531 6.21875 -0.84375 C 5.9375 -0.300781 5.148438 -0.03125 3.859375 -0.03125 C 2.453125 -0.03125 1.628906 -0.398438 1.390625 -1.140625 C 1.265625 -1.484375 1.203125 -2.007812 1.203125 -2.71875 L 1.203125 -19.46875 C 1.203125 -19.9375 1.21875 -20.285156 1.25 -20.515625 C 1.28125 -20.742188 1.378906 -21.007812 1.546875 -21.3125 C 1.828125 -21.851562 2.609375 -22.125 3.890625 -22.125 C 5.296875 -22.125 6.132812 -21.753906 6.40625 -21.015625 C 6.5 -20.671875 6.546875 -20.144531 6.546875 -19.4375 L 6.546875 -13.28125 L 14.546875 -13.28125 L 14.546875 -19.46875 C 14.546875 -19.9375 14.5625 -20.285156 14.59375 -20.515625 C 14.625 -20.742188 14.71875 -21.007812 14.875 -21.3125 Z M 14.875 -21.3125 "/></g></g></g><g fill="#ffffff" fill-opacity="1"><g transform="translate(243.100787, 345.336863)"><g><path d="M 15.65625 -21.3125 C 15.863281 -21.632812 16.15625 -21.851562 16.53125 -21.96875 C 16.914062 -22.09375 17.394531 -22.15625 17.96875 -22.15625 C 18.550781 -22.15625 19.007812 -22.101562 19.34375 -22 C 19.6875 -21.90625 19.945312 -21.785156 20.125 -21.640625 C 20.3125 -21.503906 20.445312 -21.296875 20.53125 -21.015625 C 20.644531 -20.671875 20.703125 -20.144531 20.703125 -19.4375 L 20.703125 -10.328125 C 20.703125 -7.671875 19.878906 -5.253906 18.234375 -3.078125 C 17.429688 -2.054688 16.394531 -1.226562 15.125 -0.59375 C 13.851562 0.0390625 12.445312 0.359375 10.90625 0.359375 C 9.375 0.359375 7.976562 0.0390625 6.71875 -0.59375 C 5.457031 -1.238281 4.4375 -2.085938 3.65625 -3.140625 C 2.019531 -5.273438 1.203125 -7.691406 1.203125 -10.390625 L 1.203125 -19.46875 C 1.203125 -19.957031 1.21875 -20.316406 1.25 -20.546875 C 1.28125 -20.773438 1.375 -21.039062 1.53125 -21.34375 C 1.695312 -21.644531 1.96875 -21.851562 2.34375 -21.96875 C 2.726562 -22.09375 3.242188 -22.15625 3.890625 -22.15625 C 4.535156 -22.15625 5.046875 -22.09375 5.421875 -21.96875 C 5.804688 -21.851562 6.070312 -21.644531 6.21875 -21.34375 C 6.457031 -20.875 6.578125 -20.238281 6.578125 -19.4375 L 6.578125 -10.390625 C 6.578125 -9.160156 6.878906 -7.988281 7.484375 -6.875 C 7.785156 -6.3125 8.238281 -5.859375 8.84375 -5.515625 C 9.445312 -5.179688 10.160156 -5.015625 10.984375 -5.015625 C 12.453125 -5.015625 13.546875 -5.554688 14.265625 -6.640625 C 14.992188 -7.722656 15.359375 -8.984375 15.359375 -10.421875 L 15.359375 -19.65625 C 15.359375 -20.4375 15.457031 -20.988281 15.65625 -21.3125 Z M 15.65625 -21.3125 "/></g></g></g><g fill="#ffffff" fill-opacity="1"><g transform="translate(265.016942, 345.336863)"><g><path d="M 16.96875 -11.859375 C 18.15625 -10.453125 18.75 -8.875 18.75 -7.125 C 18.707031 -5.113281 18.015625 -3.425781 16.671875 -2.0625 C 15.335938 -0.707031 13.710938 -0.03125 11.796875 -0.03125 L 3.859375 -0.03125 C 2.453125 -0.03125 1.628906 -0.410156 1.390625 -1.171875 C 1.265625 -1.515625 1.203125 -2.039062 1.203125 -2.75 L 1.203125 -19.5 C 1.203125 -19.976562 1.21875 -20.328125 1.25 -20.546875 C 1.28125 -20.773438 1.378906 -21.039062 1.546875 -21.34375 C 1.828125 -21.882812 2.609375 -22.15625 3.890625 -22.15625 L 11.5 -22.15625 C 13.351562 -22.15625 14.90625 -21.507812 16.15625 -20.21875 C 17.457031 -18.914062 18.109375 -17.347656 18.109375 -15.515625 C 18.109375 -14.191406 17.726562 -12.972656 16.96875 -11.859375 Z M 13.40625 -7.421875 C 13.40625 -7.910156 13.347656 -8.296875 13.234375 -8.578125 C 13.128906 -8.859375 12.941406 -9.054688 12.671875 -9.171875 C 12.273438 -9.335938 11.710938 -9.421875 10.984375 -9.421875 C 10.265625 -9.421875 9.722656 -9.5625 9.359375 -9.84375 C 8.992188 -10.125 8.8125 -10.703125 8.8125 -11.578125 C 8.8125 -12.453125 9 -13.03125 9.375 -13.3125 C 9.75 -13.59375 10.367188 -13.734375 11.234375 -13.734375 C 12.035156 -13.734375 12.515625 -13.945312 12.671875 -14.375 C 12.734375 -14.59375 12.765625 -14.953125 12.765625 -15.453125 C 12.765625 -15.953125 12.597656 -16.300781 12.265625 -16.5 C 11.929688 -16.707031 11.4375 -16.8125 10.78125 -16.8125 L 6.546875 -16.8125 L 6.546875 -5.375 L 11.5 -5.375 C 12.769531 -5.375 13.40625 -6.054688 13.40625 -7.421875 Z M 13.40625 -7.421875 "/></g></g></g></svg>