<svg xmlns="http://www.w3.org/2000/svg" xmlns:xlink="http://www.w3.org/1999/xlink" width="500" zoomAndPan="magnify" viewBox="0 0 375 374.999991" height="500" preserveAspectRatio="xMidYMid meet" version="1.0"><defs><g/><clipPath id="166a0456c3"><path d="M 147.847656 128.296875 L 260.921875 128.296875 L 260.921875 246.796875 L 147.847656 246.796875 Z M 147.847656 128.296875 " clip-rule="nonzero"/></clipPath></defs><g clip-path="url(#166a0456c3)"><path fill="#016e8f" d="M 218.527344 128.613281 C 218.527344 128.613281 218.523438 128.613281 218.523438 128.613281 C 217.402344 128.296875 216.296875 128.878906 215.351562 129.414062 C 214.746094 129.757812 214.167969 130.144531 213.59375 130.53125 C 213.574219 130.546875 213.550781 130.5625 213.53125 130.578125 C 211.738281 131.820312 209.988281 133.125 208.199219 134.371094 C 205.296875 136.40625 202.378906 138.425781 199.472656 140.460938 C 196.636719 142.445312 193.804688 144.429688 191.015625 146.480469 C 188.234375 148.523438 185.488281 150.617188 182.8125 152.796875 C 180.191406 154.925781 177.652344 157.164062 175.203125 159.488281 C 172.820312 161.753906 170.519531 164.109375 168.300781 166.539062 C 166.085938 168.96875 163.949219 171.476562 161.894531 174.046875 C 161.238281 174.867188 160.589844 175.695312 159.945312 176.53125 C 156.832031 180.597656 153.949219 184.84375 151.320312 189.242188 C 150.628906 190.398438 149.957031 191.570312 149.3125 192.753906 C 148.800781 193.710938 148.285156 194.667969 147.871094 195.671875 C 147.777344 195.898438 147.671875 196.136719 147.695312 196.390625 C 147.945312 196.304688 148.105469 196.089844 148.277344 195.90625 C 149 195.078125 149.644531 194.1875 150.300781 193.304688 C 153.363281 189.113281 156.253906 184.796875 159.332031 180.617188 C 161.34375 177.875 163.417969 175.160156 165.652344 172.601562 C 167.816406 170.125 170.101562 167.757812 172.503906 165.515625 C 175.003906 163.175781 177.632812 160.976562 180.304688 158.839844 C 181.316406 158.03125 182.332031 157.234375 183.355469 156.445312 C 186.125 154.308594 188.910156 152.199219 191.730469 150.128906 C 194.605469 148.019531 197.480469 145.90625 200.355469 143.796875 C 201.679688 142.804688 203.039062 141.867188 204.371094 140.890625 C 206.234375 139.535156 208.09375 138.179688 209.988281 136.871094 C 210.5 136.519531 211.019531 136.175781 211.5625 135.878906 C 211.710938 135.792969 211.882812 135.75 212.054688 135.738281 C 212.042969 136.039062 211.851562 136.28125 211.707031 136.527344 C 211.191406 137.332031 210.628906 138.105469 210.101562 138.90625 C 208.636719 141.101562 207.300781 143.414062 206.472656 145.933594 C 205.839844 147.855469 205.417969 149.910156 205.695312 151.941406 C 205.902344 153.523438 206.832031 154.984375 208.167969 155.859375 C 208.375 155.992188 208.570312 156.140625 208.785156 156.261719 C 209.089844 156.402344 209.34375 156.640625 209.679688 156.710938 C 209.890625 156.820312 210.101562 156.933594 210.328125 157 C 210.394531 157.019531 210.457031 157.039062 210.519531 157.0625 C 210.585938 157.082031 210.648438 157.101562 210.710938 157.125 C 210.777344 157.144531 210.839844 157.167969 210.902344 157.1875 C 210.96875 157.210938 211.035156 157.230469 211.097656 157.25 C 211.164062 157.273438 211.226562 157.296875 211.289062 157.328125 C 211.320312 157.332031 211.378906 157.339844 211.410156 157.34375 C 211.546875 157.429688 211.703125 157.507812 211.871094 157.488281 C 212.171875 157.636719 212.503906 157.695312 212.832031 157.746094 C 213.144531 157.851562 213.46875 157.910156 213.796875 157.941406 C 213.894531 157.988281 214.007812 157.996094 214.117188 158.003906 C 214.636719 158.109375 215.164062 158.144531 215.6875 158.25 C 215.96875 158.234375 216.234375 158.347656 216.515625 158.316406 C 216.722656 158.390625 216.941406 158.394531 217.160156 158.386719 C 217.378906 158.457031 217.609375 158.460938 217.839844 158.4375 C 218 158.539062 218.199219 158.503906 218.382812 158.539062 C 221.003906 158.789062 223.636719 159.152344 226.144531 159.992188 C 227.226562 160.347656 228.289062 160.765625 229.328125 161.234375 C 229.847656 161.464844 230.363281 161.710938 230.871094 161.964844 C 233.011719 163.03125 235.0625 164.292969 237.003906 165.691406 C 237.949219 166.371094 238.867188 167.085938 239.757812 167.835938 C 240.652344 168.589844 241.484375 169.417969 242.367188 170.1875 C 244.117188 171.867188 245.761719 173.65625 247.273438 175.558594 C 248.027344 176.503906 248.746094 177.484375 249.394531 178.511719 C 250.042969 179.5625 250.609375 180.675781 250.9375 181.867188 C 251.222656 182.890625 251.328125 183.96875 251.191406 185.023438 C 250.984375 186.699219 250.429688 188.308594 250.152344 189.972656 C 249.839844 191.738281 249.855469 193.585938 250.394531 195.308594 C 250.867188 196.863281 251.582031 198.335938 252.367188 199.757812 C 253.082031 201.0625 253.867188 202.324219 254.65625 203.582031 C 255.207031 204.476562 255.78125 205.355469 256.238281 206.300781 C 256.433594 206.757812 256.675781 207.246094 256.578125 207.753906 C 256.511719 207.921875 256.355469 208.046875 256.183594 208.085938 C 255.699219 208.207031 255.199219 208.113281 254.710938 208.082031 C 253.730469 207.984375 252.746094 207.796875 251.757812 207.871094 C 251.316406 207.90625 250.828125 208.070312 250.617188 208.492188 C 250.390625 208.976562 250.515625 209.53125 250.652344 210.023438 C 250.945312 210.960938 251.433594 211.824219 251.898438 212.683594 C 252.59375 213.941406 253.335938 215.171875 253.992188 216.445312 C 254.265625 216.984375 254.523438 217.535156 254.699219 218.113281 C 254.863281 218.683594 254.910156 219.316406 254.679688 219.878906 C 254.421875 220.492188 253.953125 220.984375 253.476562 221.4375 C 252.566406 222.28125 251.554688 223.003906 250.515625 223.6875 C 248.292969 225.128906 245.941406 226.378906 243.515625 227.445312 C 240.859375 228.585938 238.0625 229.496094 235.164062 229.703125 C 231.988281 229.949219 228.8125 229.308594 225.8125 228.308594 C 224.53125 227.890625 223.289062 227.371094 222.042969 226.871094 C 223.476562 225.003906 224.988281 223.199219 226.40625 221.316406 C 226.621094 220.988281 226.914062 220.6875 227.003906 220.296875 C 226.742188 220.320312 226.539062 220.5 226.328125 220.640625 C 225.554688 221.226562 224.835938 221.886719 224.136719 222.5625 C 222.921875 223.738281 221.757812 224.96875 220.648438 226.246094 C 220.617188 226.277344 219.867188 225.882812 219.789062 225.847656 C 219.496094 225.707031 219.207031 225.566406 218.917969 225.421875 C 217.738281 224.839844 216.566406 224.238281 215.433594 223.574219 C 214.863281 223.238281 214.230469 222.933594 213.703125 222.535156 C 213.734375 222.554688 214.167969 222.210938 214.222656 222.175781 C 214.40625 222.050781 214.585938 221.925781 214.769531 221.804688 C 215.132812 221.558594 215.5 221.3125 215.867188 221.070312 C 216.59375 220.589844 217.324219 220.117188 218.058594 219.640625 C 218.789062 219.167969 219.523438 218.695312 220.257812 218.222656 C 221.070312 217.695312 221.925781 217.175781 222.703125 216.589844 C 222.929688 216.417969 223.234375 216.238281 223.359375 215.972656 C 222.859375 216.03125 222.414062 216.285156 221.953125 216.476562 C 220.390625 217.203125 218.847656 217.984375 217.328125 218.808594 C 215.800781 219.640625 214.292969 220.519531 212.800781 221.421875 C 212.664062 221.503906 212.523438 221.589844 212.398438 221.6875 C 211.425781 221.125 210.527344 220.441406 209.554688 219.875 C 209.410156 219.789062 209.253906 219.71875 209.082031 219.722656 C 209.113281 219.980469 209.296875 220.179688 209.441406 220.382812 C 209.859375 220.917969 210.320312 221.414062 210.804688 221.894531 C 210.960938 222.058594 211.140625 222.207031 211.277344 222.394531 C 211.210938 222.304688 209.566406 223.496094 209.460938 223.570312 C 208.65625 224.117188 207.871094 224.695312 207.082031 225.269531 C 205.914062 226.117188 204.753906 226.980469 203.636719 227.894531 C 202.3125 228.980469 201 230.074219 199.726562 231.214844 C 198.472656 232.34375 197.25 233.503906 196.046875 234.679688 C 194.820312 235.882812 193.617188 237.105469 192.4375 238.355469 C 191.261719 239.597656 190.09375 240.84375 188.96875 242.132812 C 188.46875 242.699219 187.976562 243.273438 187.492188 243.855469 C 187.261719 244.128906 187.035156 244.40625 186.808594 244.6875 C 186.695312 244.832031 186.585938 244.976562 186.472656 245.121094 C 186.414062 245.195312 186.355469 245.269531 186.296875 245.347656 C 186.269531 245.386719 186.140625 245.507812 186.140625 245.554688 C 185.949219 245.851562 185.679688 246.125 185.617188 246.484375 C 186.011719 246.339844 186.304688 246.027344 186.628906 245.773438 C 188.449219 244.195312 190.179688 242.523438 191.941406 240.882812 C 195.449219 237.59375 198.960938 234.304688 202.597656 231.164062 C 205.769531 228.429688 209.054688 225.828125 212.46875 223.40625 C 214.570312 225.144531 216.90625 226.601562 219.398438 227.714844 C 216.242188 231.550781 213.578125 235.765625 211.171875 240.101562 C 210.179688 241.910156 209.203125 243.734375 208.378906 245.628906 C 208.242188 245.976562 208.070312 246.324219 208.019531 246.699219 C 208.058594 246.789062 208.144531 246.675781 208.1875 246.648438 C 208.515625 246.300781 208.777344 245.902344 209.050781 245.515625 C 210.40625 243.539062 211.695312 241.519531 213.015625 239.523438 C 215.53125 235.714844 218.105469 231.941406 220.902344 228.332031 C 223.445312 229.339844 226.09375 230.054688 228.773438 230.585938 C 230.480469 230.914062 232.203125 231.160156 233.9375 231.277344 C 236.757812 231.476562 239.671875 231.3125 242.328125 230.277344 C 243.664062 229.757812 244.894531 229 246.011719 228.105469 C 246.941406 227.390625 247.757812 226.539062 248.71875 225.863281 C 249.53125 225.289062 250.496094 225.015625 251.398438 224.621094 C 252.609375 224.117188 253.738281 223.414062 254.71875 222.546875 C 255.703125 221.707031 256.558594 220.738281 257.371094 219.738281 C 258.128906 218.785156 258.828125 217.785156 259.4375 216.730469 C 260.035156 215.695312 260.574219 214.59375 260.78125 213.40625 C 260.921875 212.65625 260.835938 211.875 260.582031 211.15625 C 260.191406 210.0625 259.511719 209.113281 258.898438 208.140625 C 257.515625 206.054688 256.414062 203.792969 255.496094 201.46875 C 254.886719 199.929688 254.363281 198.351562 253.964844 196.742188 C 253.558594 195.117188 253.320312 193.449219 253.242188 191.777344 C 253.105469 189.417969 253.207031 187.046875 252.894531 184.699219 C 252.59375 182.285156 251.863281 179.921875 250.734375 177.765625 C 249.636719 175.804688 248.300781 174.019531 246.726562 172.414062 C 245.859375 171.53125 244.941406 170.703125 243.992188 169.914062 C 240.132812 166.714844 235.902344 164.011719 231.757812 161.203125 C 230.003906 160 228.222656 158.8125 226.691406 157.328125 C 226.351562 156.976562 226.027344 156.613281 225.722656 156.230469 L 225.832031 156.230469 C 225.804688 156.226562 225.75 156.21875 225.71875 156.21875 C 224.496094 154.621094 223.964844 152.632812 223.597656 150.6875 C 224.078125 150.371094 224.515625 149.992188 225.011719 149.703125 C 226.113281 149.058594 227.1875 148.375 228.304688 147.753906 C 230.566406 146.503906 232.894531 145.363281 235.222656 144.234375 C 236.996094 143.375 238.765625 142.511719 240.585938 141.761719 C 241.164062 141.523438 242.480469 140.921875 242.785156 141.804688 C 242.996094 142.425781 242.917969 143.085938 242.898438 143.726562 C 242.84375 144.21875 242.773438 144.707031 242.695312 145.195312 C 242.578125 145.871094 242.433594 146.542969 242.265625 147.210938 C 242.179688 147.570312 242.113281 147.933594 242.015625 148.289062 C 241.351562 150.699219 240.339844 153.011719 239.15625 155.210938 C 238.632812 156.179688 238.085938 157.132812 237.515625 158.074219 C 237.449219 158.179688 237.382812 158.289062 237.316406 158.394531 C 237.109375 158.757812 236.871094 159.101562 236.699219 159.480469 C 236.699219 159.511719 236.707031 159.574219 236.710938 159.605469 C 236.703125 159.554688 236.96875 159.332031 237.011719 159.285156 C 237.121094 159.160156 237.226562 159.03125 237.332031 158.902344 C 237.554688 158.636719 237.742188 158.335938 237.9375 158.046875 C 238.359375 157.425781 238.832031 156.8125 239.203125 156.160156 C 239.582031 155.488281 239.980469 154.828125 240.347656 154.152344 C 240.65625 153.589844 240.957031 153.011719 241.253906 152.4375 C 241.554688 151.851562 241.882812 151.273438 242.152344 150.671875 C 242.195312 150.582031 242.230469 150.492188 242.273438 150.402344 C 242.414062 150.109375 242.554688 149.8125 242.695312 149.519531 C 242.972656 148.929688 243.25 148.339844 243.519531 147.746094 C 244.0625 146.558594 244.582031 145.363281 245.0625 144.152344 C 245.070312 144.132812 245.078125 144.117188 245.085938 144.097656 C 245.238281 143.710938 245.386719 143.328125 245.535156 142.941406 C 245.6875 142.539062 245.824219 142.132812 245.960938 141.726562 C 246.1875 140.960938 246.453125 140.175781 246.390625 139.363281 C 246.371094 139.011719 246.160156 138.660156 245.820312 138.539062 C 245.339844 138.363281 244.796875 138.40625 244.304688 138.492188 C 243.105469 138.710938 241.898438 139.019531 240.734375 139.414062 C 240.152344 139.613281 239.585938 139.867188 239.003906 140.054688 C 238.378906 140.257812 237.761719 140.476562 237.148438 140.703125 C 237.109375 140.71875 237.074219 140.730469 237.039062 140.746094 C 235.820312 141.199219 234.625 141.671875 233.425781 142.171875 C 230.988281 143.179688 228.574219 144.230469 226.15625 145.277344 C 225.089844 145.742188 224.015625 146.191406 222.949219 146.660156 C 222.550781 143.738281 222.25 140.800781 221.867188 137.875 C 221.714844 136.722656 221.488281 135.582031 221.335938 134.433594 C 221.25 133.789062 221.09375 133.15625 220.925781 132.527344 C 220.761719 131.929688 220.625 131.328125 220.375 130.757812 C 220.085938 130.105469 219.738281 129.441406 219.167969 128.992188 C 218.980469 128.847656 218.757812 128.679688 218.527344 128.613281 Z M 218.527344 128.613281 " fill-opacity="1" fill-rule="nonzero"/></g><path fill="#016e8f" d="M 234.976562 183.765625 C 234.222656 183.742188 233.464844 183.746094 232.710938 183.773438 C 231.453125 183.820312 230.199219 183.933594 228.953125 184.097656 C 228.320312 184.183594 227.6875 184.28125 227.058594 184.394531 C 226.738281 184.453125 226.417969 184.515625 226.097656 184.582031 C 225.945312 184.617188 225.792969 184.648438 225.636719 184.683594 C 225.542969 184.703125 225.269531 184.816406 225.179688 184.785156 C 225.945312 185.066406 226.894531 185.277344 227.4375 185.933594 C 227.960938 186.570312 228.25 187.347656 228.671875 188.046875 C 229.328125 189.195312 230.347656 190.085938 231.4375 190.8125 C 232.347656 191.414062 233.328125 191.917969 234.367188 192.265625 C 235.167969 192.527344 236.023438 192.699219 236.867188 192.59375 C 237.492188 192.519531 238.085938 192.234375 238.539062 191.800781 C 239.132812 191.257812 239.550781 190.566406 239.96875 189.890625 C 240.617188 188.824219 241.285156 187.765625 242.101562 186.820312 C 242.320312 186.542969 242.574219 186.28125 242.730469 185.960938 C 243.210938 184.933594 241.085938 184.542969 240.449219 184.410156 C 238.648438 184.035156 236.816406 183.824219 234.976562 183.765625 Z M 234.976562 183.765625 " fill-opacity="1" fill-rule="nonzero"/><path fill="#016e8f" d="M 222.898438 212.046875 C 222.683594 211.910156 222.421875 212.015625 222.1875 212.039062 C 220.503906 212.363281 218.851562 212.859375 217.230469 213.414062 C 215.613281 213.964844 214.027344 214.605469 212.472656 215.316406 C 211.40625 215.804688 210.339844 216.3125 209.320312 216.886719 C 207.847656 217.683594 206.40625 218.542969 205.011719 219.46875 C 203.574219 220.417969 202.175781 221.429688 200.808594 222.476562 C 200.0625 223.042969 199.320312 223.621094 198.59375 224.214844 C 196.652344 225.796875 194.738281 227.414062 192.960938 229.179688 C 192.675781 229.503906 192.304688 229.785156 192.144531 230.195312 C 192.519531 230.128906 192.816406 229.867188 193.136719 229.679688 C 195.164062 228.320312 197.125 226.863281 199.117188 225.449219 C 203.28125 222.488281 207.46875 219.519531 211.984375 217.109375 C 213.496094 216.304688 215.035156 215.542969 216.601562 214.851562 C 217.402344 214.496094 218.207031 214.152344 219.015625 213.816406 C 219.8125 213.488281 220.632812 213.203125 221.410156 212.839844 C 221.601562 212.753906 221.796875 212.675781 221.988281 212.582031 C 222.304688 212.429688 222.632812 212.28125 222.898438 212.046875 Z M 222.898438 212.046875 " fill-opacity="1" fill-rule="nonzero"/><g fill="#016e8f" fill-opacity="1"><g transform="translate(77.288385, 269.781853)"><g><path d="M 5.1875 0 C 4.925781 0 4.769531 -0.117188 4.71875 -0.359375 L 0.453125 -16.5 C 0.441406 -16.53125 0.4375 -16.566406 0.4375 -16.609375 C 0.4375 -16.835938 0.566406 -16.953125 0.828125 -16.953125 L 3.578125 -16.953125 C 3.828125 -16.953125 3.972656 -16.832031 4.015625 -16.59375 L 6.296875 -6.921875 C 6.316406 -6.859375 6.347656 -6.828125 6.390625 -6.828125 C 6.441406 -6.828125 6.472656 -6.859375 6.484375 -6.921875 L 8.671875 -16.59375 C 8.722656 -16.832031 8.867188 -16.953125 9.109375 -16.953125 L 11.84375 -16.953125 C 12.101562 -16.953125 12.253906 -16.832031 12.296875 -16.59375 L 14.671875 -6.921875 C 14.691406 -6.859375 14.722656 -6.828125 14.765625 -6.828125 C 14.804688 -6.828125 14.832031 -6.859375 14.84375 -6.921875 L 17.03125 -16.59375 C 17.070312 -16.832031 17.21875 -16.953125 17.46875 -16.953125 L 20.109375 -16.953125 C 20.242188 -16.953125 20.335938 -16.90625 20.390625 -16.8125 C 20.453125 -16.726562 20.46875 -16.625 20.4375 -16.5 L 16.546875 -0.359375 C 16.492188 -0.117188 16.335938 0 16.078125 0 L 13.421875 0 C 13.160156 0 13.003906 -0.117188 12.953125 -0.359375 L 10.53125 -10.65625 C 10.519531 -10.71875 10.488281 -10.75 10.4375 -10.75 C 10.382812 -10.75 10.351562 -10.71875 10.34375 -10.65625 L 8.09375 -0.359375 C 8.039062 -0.117188 7.894531 0 7.65625 0 Z M 5.1875 0 "/></g></g></g><g fill="#016e8f" fill-opacity="1"><g transform="translate(98.192551, 269.781853)"><g><path d="M 7.75 -12.640625 C 9.039062 -12.640625 10.082031 -12.242188 10.875 -11.453125 C 11.664062 -10.660156 12.0625 -9.585938 12.0625 -8.234375 L 12.0625 -0.40625 C 12.0625 -0.132812 11.925781 0 11.65625 0 L 9.0625 0 C 8.78125 0 8.640625 -0.132812 8.640625 -0.40625 L 8.640625 -7.53125 C 8.640625 -8.175781 8.460938 -8.703125 8.109375 -9.109375 C 7.753906 -9.515625 7.28125 -9.71875 6.6875 -9.71875 C 6.082031 -9.71875 5.59375 -9.515625 5.21875 -9.109375 C 4.851562 -8.703125 4.671875 -8.175781 4.671875 -7.53125 L 4.671875 -0.40625 C 4.671875 -0.132812 4.535156 0 4.265625 0 L 1.671875 0 C 1.398438 0 1.265625 -0.132812 1.265625 -0.40625 L 1.265625 -16.546875 C 1.265625 -16.816406 1.398438 -16.953125 1.671875 -16.953125 L 4.265625 -16.953125 C 4.535156 -16.953125 4.671875 -16.816406 4.671875 -16.546875 L 4.671875 -11.359375 C 4.671875 -11.296875 4.6875 -11.253906 4.71875 -11.234375 C 4.75 -11.222656 4.78125 -11.238281 4.8125 -11.28125 C 5.476562 -12.1875 6.457031 -12.640625 7.75 -12.640625 Z M 7.75 -12.640625 "/></g></g></g><g fill="#016e8f" fill-opacity="1"><g transform="translate(111.442348, 269.781853)"><g><path d="M 3.15625 -13.640625 C 2.539062 -13.640625 2.035156 -13.828125 1.640625 -14.203125 C 1.253906 -14.585938 1.0625 -15.078125 1.0625 -15.671875 C 1.0625 -16.265625 1.253906 -16.75 1.640625 -17.125 C 2.035156 -17.507812 2.539062 -17.703125 3.15625 -17.703125 C 3.78125 -17.703125 4.28125 -17.515625 4.65625 -17.140625 C 5.039062 -16.773438 5.234375 -16.285156 5.234375 -15.671875 C 5.234375 -15.054688 5.039062 -14.5625 4.65625 -14.1875 C 4.28125 -13.820312 3.78125 -13.640625 3.15625 -13.640625 Z M 1.859375 0 C 1.585938 0 1.453125 -0.132812 1.453125 -0.40625 L 1.453125 -12.03125 C 1.453125 -12.3125 1.585938 -12.453125 1.859375 -12.453125 L 4.453125 -12.453125 C 4.734375 -12.453125 4.875 -12.3125 4.875 -12.03125 L 4.875 -0.40625 C 4.875 -0.132812 4.734375 0 4.453125 0 Z M 1.859375 0 "/></g></g></g><g fill="#016e8f" fill-opacity="1"><g transform="translate(117.740237, 269.781853)"><g><path d="M 6.21875 0.171875 C 5.144531 0.171875 4.203125 0.0195312 3.390625 -0.28125 C 2.585938 -0.59375 1.96875 -1.019531 1.53125 -1.5625 C 1.09375 -2.113281 0.875 -2.738281 0.875 -3.4375 L 0.875 -3.5625 C 0.875 -3.832031 1.007812 -3.96875 1.28125 -3.96875 L 3.734375 -3.96875 C 4.003906 -3.96875 4.140625 -3.921875 4.140625 -3.828125 L 4.140625 -3.65625 C 4.140625 -3.300781 4.332031 -3 4.71875 -2.75 C 5.101562 -2.5 5.597656 -2.375 6.203125 -2.375 C 6.753906 -2.375 7.195312 -2.476562 7.53125 -2.6875 C 7.875 -2.894531 8.046875 -3.171875 8.046875 -3.515625 C 8.046875 -3.804688 7.898438 -4.023438 7.609375 -4.171875 C 7.316406 -4.316406 6.835938 -4.46875 6.171875 -4.625 C 5.378906 -4.832031 4.789062 -5.019531 4.40625 -5.1875 C 3.351562 -5.539062 2.519531 -5.972656 1.90625 -6.484375 C 1.300781 -7.003906 1 -7.75 1 -8.71875 C 1 -9.914062 1.460938 -10.863281 2.390625 -11.5625 C 3.328125 -12.269531 4.554688 -12.625 6.078125 -12.625 C 7.109375 -12.625 8.015625 -12.457031 8.796875 -12.125 C 9.585938 -11.789062 10.195312 -11.320312 10.625 -10.71875 C 11.050781 -10.125 11.265625 -9.445312 11.265625 -8.6875 C 11.265625 -8.613281 11.226562 -8.546875 11.15625 -8.484375 C 11.082031 -8.429688 10.976562 -8.40625 10.84375 -8.40625 L 8.484375 -8.40625 C 8.203125 -8.40625 8.0625 -8.453125 8.0625 -8.546875 L 8.0625 -8.6875 C 8.0625 -9.050781 7.882812 -9.351562 7.53125 -9.59375 C 7.175781 -9.832031 6.703125 -9.953125 6.109375 -9.953125 C 5.566406 -9.953125 5.125 -9.851562 4.78125 -9.65625 C 4.4375 -9.46875 4.265625 -9.203125 4.265625 -8.859375 C 4.265625 -8.535156 4.425781 -8.289062 4.75 -8.125 C 5.082031 -7.96875 5.628906 -7.800781 6.390625 -7.625 C 6.859375 -7.53125 7.3125 -7.410156 7.75 -7.265625 C 8.914062 -6.921875 9.828125 -6.484375 10.484375 -5.953125 C 11.148438 -5.421875 11.484375 -4.648438 11.484375 -3.640625 C 11.484375 -2.441406 11.003906 -1.503906 10.046875 -0.828125 C 9.097656 -0.160156 7.820312 0.171875 6.21875 0.171875 Z M 6.21875 0.171875 "/></g></g></g><g fill="#016e8f" fill-opacity="1"><g transform="translate(129.924246, 269.781853)"><g><path d="M 1.671875 0 C 1.398438 0 1.265625 -0.132812 1.265625 -0.40625 L 1.265625 -16.546875 C 1.265625 -16.816406 1.398438 -16.953125 1.671875 -16.953125 L 4.265625 -16.953125 C 4.535156 -16.953125 4.671875 -16.816406 4.671875 -16.546875 L 4.671875 -8.546875 C 4.671875 -8.484375 4.691406 -8.445312 4.734375 -8.4375 C 4.773438 -8.425781 4.8125 -8.445312 4.84375 -8.5 L 8.0625 -12.203125 C 8.226562 -12.367188 8.398438 -12.453125 8.578125 -12.453125 L 11.5 -12.453125 C 11.613281 -12.453125 11.703125 -12.429688 11.765625 -12.390625 C 11.835938 -12.347656 11.875 -12.285156 11.875 -12.203125 C 11.875 -12.109375 11.835938 -12.019531 11.765625 -11.9375 L 8.796875 -8.203125 C 8.742188 -8.160156 8.734375 -8.097656 8.765625 -8.015625 L 12.328125 -0.484375 L 12.375 -0.296875 C 12.375 -0.0976562 12.253906 0 12.015625 0 L 9.28125 0 C 9.050781 0 8.890625 -0.101562 8.796875 -0.3125 L 6.4375 -5.859375 C 6.394531 -5.953125 6.332031 -5.960938 6.25 -5.890625 L 4.75 -3.96875 C 4.695312 -3.90625 4.671875 -3.847656 4.671875 -3.796875 L 4.671875 -0.40625 C 4.671875 -0.132812 4.535156 0 4.265625 0 Z M 1.671875 0 "/></g></g></g><g fill="#016e8f" fill-opacity="1"><g transform="translate(142.834932, 269.781853)"><g><path d="M 7.265625 -2.6875 C 8.328125 -2.738281 9.144531 -3.109375 9.71875 -3.796875 C 9.8125 -3.910156 9.914062 -3.96875 10.03125 -3.96875 C 10.125 -3.96875 10.210938 -3.925781 10.296875 -3.84375 L 11.671875 -2.515625 C 11.765625 -2.421875 11.8125 -2.328125 11.8125 -2.234375 C 11.8125 -2.117188 11.78125 -2.019531 11.71875 -1.9375 C 11.1875 -1.269531 10.503906 -0.75 9.671875 -0.375 C 8.835938 0 7.929688 0.1875 6.953125 0.1875 C 5.460938 0.1875 4.226562 -0.1875 3.25 -0.9375 C 2.28125 -1.695312 1.625 -2.738281 1.28125 -4.0625 C 1.09375 -4.78125 1 -5.535156 1 -6.328125 C 1 -7.253906 1.085938 -8.039062 1.265625 -8.6875 C 1.585938 -9.882812 2.234375 -10.847656 3.203125 -11.578125 C 4.179688 -12.304688 5.34375 -12.671875 6.6875 -12.671875 C 8.269531 -12.671875 9.523438 -12.203125 10.453125 -11.265625 C 11.378906 -10.328125 11.976562 -9.007812 12.25 -7.3125 C 12.320312 -6.78125 12.375 -6.191406 12.40625 -5.546875 C 12.40625 -5.273438 12.265625 -5.140625 11.984375 -5.140625 L 4.546875 -5.140625 C 4.453125 -5.140625 4.40625 -5.085938 4.40625 -4.984375 C 4.457031 -4.648438 4.515625 -4.398438 4.578125 -4.234375 C 4.734375 -3.734375 5.050781 -3.347656 5.53125 -3.078125 C 6.007812 -2.816406 6.585938 -2.6875 7.265625 -2.6875 Z M 6.640625 -9.71875 C 6.117188 -9.71875 5.679688 -9.59375 5.328125 -9.34375 C 4.984375 -9.09375 4.75 -8.738281 4.625 -8.28125 C 4.539062 -7.976562 4.492188 -7.773438 4.484375 -7.671875 C 4.460938 -7.578125 4.503906 -7.53125 4.609375 -7.53125 L 8.71875 -7.53125 C 8.800781 -7.53125 8.84375 -7.5625 8.84375 -7.625 C 8.84375 -7.800781 8.8125 -7.988281 8.75 -8.1875 C 8.601562 -8.65625 8.347656 -9.023438 7.984375 -9.296875 C 7.628906 -9.578125 7.179688 -9.71875 6.640625 -9.71875 Z M 6.640625 -9.71875 "/></g></g></g><g fill="#016e8f" fill-opacity="1"><g transform="translate(156.084729, 269.781853)"><g><path d="M 7.453125 -12.625 C 7.972656 -12.625 8.40625 -12.523438 8.75 -12.328125 C 8.9375 -12.234375 9.007812 -12.0625 8.96875 -11.8125 L 8.5 -9.28125 C 8.488281 -9.132812 8.445312 -9.046875 8.375 -9.015625 C 8.300781 -8.984375 8.179688 -8.984375 8.015625 -9.015625 C 7.753906 -9.078125 7.519531 -9.109375 7.3125 -9.109375 C 7.195312 -9.109375 7.007812 -9.09375 6.75 -9.0625 C 6.175781 -9.007812 5.6875 -8.789062 5.28125 -8.40625 C 4.875 -8.03125 4.671875 -7.53125 4.671875 -6.90625 L 4.671875 -0.40625 C 4.671875 -0.132812 4.535156 0 4.265625 0 L 1.671875 0 C 1.398438 0 1.265625 -0.132812 1.265625 -0.40625 L 1.265625 -12.03125 C 1.265625 -12.3125 1.398438 -12.453125 1.671875 -12.453125 L 4.265625 -12.453125 C 4.535156 -12.453125 4.671875 -12.3125 4.671875 -12.03125 L 4.671875 -11.28125 C 4.671875 -11.21875 4.6875 -11.175781 4.71875 -11.15625 C 4.75 -11.144531 4.789062 -11.164062 4.84375 -11.21875 C 5.488281 -12.15625 6.359375 -12.625 7.453125 -12.625 Z M 7.453125 -12.625 "/></g></g></g><g fill="#016e8f" fill-opacity="1"><g transform="translate(165.362007, 269.781853)"><g><path d="M 6.21875 0.171875 C 5.144531 0.171875 4.203125 0.0195312 3.390625 -0.28125 C 2.585938 -0.59375 1.96875 -1.019531 1.53125 -1.5625 C 1.09375 -2.113281 0.875 -2.738281 0.875 -3.4375 L 0.875 -3.5625 C 0.875 -3.832031 1.007812 -3.96875 1.28125 -3.96875 L 3.734375 -3.96875 C 4.003906 -3.96875 4.140625 -3.921875 4.140625 -3.828125 L 4.140625 -3.65625 C 4.140625 -3.300781 4.332031 -3 4.71875 -2.75 C 5.101562 -2.5 5.597656 -2.375 6.203125 -2.375 C 6.753906 -2.375 7.195312 -2.476562 7.53125 -2.6875 C 7.875 -2.894531 8.046875 -3.171875 8.046875 -3.515625 C 8.046875 -3.804688 7.898438 -4.023438 7.609375 -4.171875 C 7.316406 -4.316406 6.835938 -4.46875 6.171875 -4.625 C 5.378906 -4.832031 4.789062 -5.019531 4.40625 -5.1875 C 3.351562 -5.539062 2.519531 -5.972656 1.90625 -6.484375 C 1.300781 -7.003906 1 -7.75 1 -8.71875 C 1 -9.914062 1.460938 -10.863281 2.390625 -11.5625 C 3.328125 -12.269531 4.554688 -12.625 6.078125 -12.625 C 7.109375 -12.625 8.015625 -12.457031 8.796875 -12.125 C 9.585938 -11.789062 10.195312 -11.320312 10.625 -10.71875 C 11.050781 -10.125 11.265625 -9.445312 11.265625 -8.6875 C 11.265625 -8.613281 11.226562 -8.546875 11.15625 -8.484375 C 11.082031 -8.429688 10.976562 -8.40625 10.84375 -8.40625 L 8.484375 -8.40625 C 8.203125 -8.40625 8.0625 -8.453125 8.0625 -8.546875 L 8.0625 -8.6875 C 8.0625 -9.050781 7.882812 -9.351562 7.53125 -9.59375 C 7.175781 -9.832031 6.703125 -9.953125 6.109375 -9.953125 C 5.566406 -9.953125 5.125 -9.851562 4.78125 -9.65625 C 4.4375 -9.46875 4.265625 -9.203125 4.265625 -8.859375 C 4.265625 -8.535156 4.425781 -8.289062 4.75 -8.125 C 5.082031 -7.96875 5.628906 -7.800781 6.390625 -7.625 C 6.859375 -7.53125 7.3125 -7.410156 7.75 -7.265625 C 8.914062 -6.921875 9.828125 -6.484375 10.484375 -5.953125 C 11.148438 -5.421875 11.484375 -4.648438 11.484375 -3.640625 C 11.484375 -2.441406 11.003906 -1.503906 10.046875 -0.828125 C 9.097656 -0.160156 7.820312 0.171875 6.21875 0.171875 Z M 6.21875 0.171875 "/></g></g></g><g fill="#016e8f" fill-opacity="1"><g transform="translate(177.546016, 269.781853)"><g/></g></g><g fill="#016e8f" fill-opacity="1"><g transform="translate(182.390551, 269.781853)"><g><path d="M 5.1875 0 C 4.925781 0 4.769531 -0.117188 4.71875 -0.359375 L 0.453125 -16.5 C 0.441406 -16.53125 0.4375 -16.566406 0.4375 -16.609375 C 0.4375 -16.835938 0.566406 -16.953125 0.828125 -16.953125 L 3.578125 -16.953125 C 3.828125 -16.953125 3.972656 -16.832031 4.015625 -16.59375 L 6.296875 -6.921875 C 6.316406 -6.859375 6.347656 -6.828125 6.390625 -6.828125 C 6.441406 -6.828125 6.472656 -6.859375 6.484375 -6.921875 L 8.671875 -16.59375 C 8.722656 -16.832031 8.867188 -16.953125 9.109375 -16.953125 L 11.84375 -16.953125 C 12.101562 -16.953125 12.253906 -16.832031 12.296875 -16.59375 L 14.671875 -6.921875 C 14.691406 -6.859375 14.722656 -6.828125 14.765625 -6.828125 C 14.804688 -6.828125 14.832031 -6.859375 14.84375 -6.921875 L 17.03125 -16.59375 C 17.070312 -16.832031 17.21875 -16.953125 17.46875 -16.953125 L 20.109375 -16.953125 C 20.242188 -16.953125 20.335938 -16.90625 20.390625 -16.8125 C 20.453125 -16.726562 20.46875 -16.625 20.4375 -16.5 L 16.546875 -0.359375 C 16.492188 -0.117188 16.335938 0 16.078125 0 L 13.421875 0 C 13.160156 0 13.003906 -0.117188 12.953125 -0.359375 L 10.53125 -10.65625 C 10.519531 -10.71875 10.488281 -10.75 10.4375 -10.75 C 10.382812 -10.75 10.351562 -10.71875 10.34375 -10.65625 L 8.09375 -0.359375 C 8.039062 -0.117188 7.894531 0 7.65625 0 Z M 5.1875 0 "/></g></g></g><g fill="#016e8f" fill-opacity="1"><g transform="translate(203.294717, 269.781853)"><g><path d="M 7.265625 -2.6875 C 8.328125 -2.738281 9.144531 -3.109375 9.71875 -3.796875 C 9.8125 -3.910156 9.914062 -3.96875 10.03125 -3.96875 C 10.125 -3.96875 10.210938 -3.925781 10.296875 -3.84375 L 11.671875 -2.515625 C 11.765625 -2.421875 11.8125 -2.328125 11.8125 -2.234375 C 11.8125 -2.117188 11.78125 -2.019531 11.71875 -1.9375 C 11.1875 -1.269531 10.503906 -0.75 9.671875 -0.375 C 8.835938 0 7.929688 0.1875 6.953125 0.1875 C 5.460938 0.1875 4.226562 -0.1875 3.25 -0.9375 C 2.28125 -1.695312 1.625 -2.738281 1.28125 -4.0625 C 1.09375 -4.78125 1 -5.535156 1 -6.328125 C 1 -7.253906 1.085938 -8.039062 1.265625 -8.6875 C 1.585938 -9.882812 2.234375 -10.847656 3.203125 -11.578125 C 4.179688 -12.304688 5.34375 -12.671875 6.6875 -12.671875 C 8.269531 -12.671875 9.523438 -12.203125 10.453125 -11.265625 C 11.378906 -10.328125 11.976562 -9.007812 12.25 -7.3125 C 12.320312 -6.78125 12.375 -6.191406 12.40625 -5.546875 C 12.40625 -5.273438 12.265625 -5.140625 11.984375 -5.140625 L 4.546875 -5.140625 C 4.453125 -5.140625 4.40625 -5.085938 4.40625 -4.984375 C 4.457031 -4.648438 4.515625 -4.398438 4.578125 -4.234375 C 4.734375 -3.734375 5.050781 -3.347656 5.53125 -3.078125 C 6.007812 -2.816406 6.585938 -2.6875 7.265625 -2.6875 Z M 6.640625 -9.71875 C 6.117188 -9.71875 5.679688 -9.59375 5.328125 -9.34375 C 4.984375 -9.09375 4.75 -8.738281 4.625 -8.28125 C 4.539062 -7.976562 4.492188 -7.773438 4.484375 -7.671875 C 4.460938 -7.578125 4.503906 -7.53125 4.609375 -7.53125 L 8.71875 -7.53125 C 8.800781 -7.53125 8.84375 -7.5625 8.84375 -7.625 C 8.84375 -7.800781 8.8125 -7.988281 8.75 -8.1875 C 8.601562 -8.65625 8.347656 -9.023438 7.984375 -9.296875 C 7.628906 -9.578125 7.179688 -9.71875 6.640625 -9.71875 Z M 6.640625 -9.71875 "/></g></g></g><g fill="#016e8f" fill-opacity="1"><g transform="translate(216.544514, 269.781853)"><g><path d="M 1.71875 0 C 1.445312 0 1.3125 -0.132812 1.3125 -0.40625 L 1.3125 -16.546875 C 1.3125 -16.816406 1.445312 -16.953125 1.71875 -16.953125 L 4.3125 -16.953125 C 4.582031 -16.953125 4.71875 -16.816406 4.71875 -16.546875 L 4.71875 -0.40625 C 4.71875 -0.132812 4.582031 0 4.3125 0 Z M 1.71875 0 "/></g></g></g><g fill="#016e8f" fill-opacity="1"><g transform="translate(222.575962, 269.781853)"><g><path d="M 8.234375 -12.46875 C 8.503906 -12.46875 8.640625 -12.332031 8.640625 -12.0625 L 8.640625 -10 C 8.640625 -9.726562 8.503906 -9.59375 8.234375 -9.59375 L 6.03125 -9.59375 C 5.9375 -9.59375 5.890625 -9.546875 5.890625 -9.453125 L 5.890625 -0.40625 C 5.890625 -0.132812 5.75 0 5.46875 0 L 2.875 0 C 2.601562 0 2.46875 -0.132812 2.46875 -0.40625 L 2.46875 -9.453125 C 2.46875 -9.546875 2.421875 -9.59375 2.328125 -9.59375 L 1.046875 -9.59375 C 0.765625 -9.59375 0.625 -9.726562 0.625 -10 L 0.625 -12.0625 C 0.625 -12.332031 0.765625 -12.46875 1.046875 -12.46875 L 2.328125 -12.46875 C 2.421875 -12.46875 2.46875 -12.519531 2.46875 -12.625 L 2.46875 -13.125 C 2.46875 -14.125 2.617188 -14.898438 2.921875 -15.453125 C 3.234375 -16.015625 3.734375 -16.410156 4.421875 -16.640625 C 5.109375 -16.878906 6.054688 -16.984375 7.265625 -16.953125 L 8.0625 -16.953125 C 8.34375 -16.953125 8.484375 -16.816406 8.484375 -16.546875 L 8.484375 -14.828125 C 8.484375 -14.546875 8.34375 -14.40625 8.0625 -14.40625 L 7.390625 -14.40625 C 6.828125 -14.394531 6.4375 -14.28125 6.21875 -14.0625 C 6 -13.84375 5.890625 -13.441406 5.890625 -12.859375 L 5.890625 -12.625 C 5.890625 -12.519531 5.9375 -12.46875 6.03125 -12.46875 Z M 8.234375 -12.46875 "/></g></g></g><g fill="#016e8f" fill-opacity="1"><g transform="translate(231.950137, 269.781853)"><g><path d="M 6.25 -12.640625 C 7.300781 -12.640625 8.238281 -12.457031 9.0625 -12.09375 C 9.882812 -11.726562 10.523438 -11.226562 10.984375 -10.59375 C 11.441406 -9.96875 11.671875 -9.269531 11.671875 -8.5 L 11.671875 -0.40625 C 11.671875 -0.132812 11.535156 0 11.265625 0 L 8.671875 0 C 8.398438 0 8.265625 -0.132812 8.265625 -0.40625 L 8.265625 -1 C 8.265625 -1.0625 8.242188 -1.09375 8.203125 -1.09375 C 8.171875 -1.101562 8.132812 -1.085938 8.09375 -1.046875 C 7.34375 -0.222656 6.234375 0.1875 4.765625 0.1875 C 3.523438 0.1875 2.523438 -0.113281 1.765625 -0.71875 C 1.003906 -1.332031 0.625 -2.238281 0.625 -3.4375 C 0.625 -4.675781 1.0625 -5.640625 1.9375 -6.328125 C 2.8125 -7.015625 4.054688 -7.359375 5.671875 -7.359375 L 8.109375 -7.359375 C 8.210938 -7.359375 8.265625 -7.410156 8.265625 -7.515625 L 8.265625 -8.015625 C 8.265625 -8.546875 8.097656 -8.960938 7.765625 -9.265625 C 7.429688 -9.566406 6.953125 -9.71875 6.328125 -9.71875 C 5.835938 -9.71875 5.4375 -9.632812 5.125 -9.46875 C 4.8125 -9.3125 4.597656 -9.085938 4.484375 -8.796875 C 4.378906 -8.566406 4.21875 -8.460938 4 -8.484375 L 1.3125 -8.8125 C 1.175781 -8.832031 1.070312 -8.867188 1 -8.921875 C 0.925781 -8.984375 0.898438 -9.0625 0.921875 -9.15625 C 1.003906 -9.8125 1.28125 -10.40625 1.75 -10.9375 C 2.226562 -11.476562 2.859375 -11.894531 3.640625 -12.1875 C 4.421875 -12.488281 5.289062 -12.640625 6.25 -12.640625 Z M 5.765625 -2.34375 C 6.460938 -2.34375 7.050781 -2.53125 7.53125 -2.90625 C 8.019531 -3.28125 8.265625 -3.753906 8.265625 -4.328125 L 8.265625 -5.1875 C 8.265625 -5.28125 8.210938 -5.328125 8.109375 -5.328125 L 6.390625 -5.328125 C 5.660156 -5.328125 5.085938 -5.1875 4.671875 -4.90625 C 4.253906 -4.632812 4.046875 -4.25 4.046875 -3.75 C 4.046875 -3.3125 4.203125 -2.96875 4.515625 -2.71875 C 4.828125 -2.46875 5.242188 -2.34375 5.765625 -2.34375 Z M 5.765625 -2.34375 "/></g></g></g><g fill="#016e8f" fill-opacity="1"><g transform="translate(244.73971, 269.781853)"><g><path d="M 7.453125 -12.625 C 7.972656 -12.625 8.40625 -12.523438 8.75 -12.328125 C 8.9375 -12.234375 9.007812 -12.0625 8.96875 -11.8125 L 8.5 -9.28125 C 8.488281 -9.132812 8.445312 -9.046875 8.375 -9.015625 C 8.300781 -8.984375 8.179688 -8.984375 8.015625 -9.015625 C 7.753906 -9.078125 7.519531 -9.109375 7.3125 -9.109375 C 7.195312 -9.109375 7.007812 -9.09375 6.75 -9.0625 C 6.175781 -9.007812 5.6875 -8.789062 5.28125 -8.40625 C 4.875 -8.03125 4.671875 -7.53125 4.671875 -6.90625 L 4.671875 -0.40625 C 4.671875 -0.132812 4.535156 0 4.265625 0 L 1.671875 0 C 1.398438 0 1.265625 -0.132812 1.265625 -0.40625 L 1.265625 -12.03125 C 1.265625 -12.3125 1.398438 -12.453125 1.671875 -12.453125 L 4.265625 -12.453125 C 4.535156 -12.453125 4.671875 -12.3125 4.671875 -12.03125 L 4.671875 -11.28125 C 4.671875 -11.21875 4.6875 -11.175781 4.71875 -11.15625 C 4.75 -11.144531 4.789062 -11.164062 4.84375 -11.21875 C 5.488281 -12.15625 6.359375 -12.625 7.453125 -12.625 Z M 7.453125 -12.625 "/></g></g></g><g fill="#016e8f" fill-opacity="1"><g transform="translate(254.016989, 269.781853)"><g><path d="M 7.265625 -2.6875 C 8.328125 -2.738281 9.144531 -3.109375 9.71875 -3.796875 C 9.8125 -3.910156 9.914062 -3.96875 10.03125 -3.96875 C 10.125 -3.96875 10.210938 -3.925781 10.296875 -3.84375 L 11.671875 -2.515625 C 11.765625 -2.421875 11.8125 -2.328125 11.8125 -2.234375 C 11.8125 -2.117188 11.78125 -2.019531 11.71875 -1.9375 C 11.1875 -1.269531 10.503906 -0.75 9.671875 -0.375 C 8.835938 0 7.929688 0.1875 6.953125 0.1875 C 5.460938 0.1875 4.226562 -0.1875 3.25 -0.9375 C 2.28125 -1.695312 1.625 -2.738281 1.28125 -4.0625 C 1.09375 -4.78125 1 -5.535156 1 -6.328125 C 1 -7.253906 1.085938 -8.039062 1.265625 -8.6875 C 1.585938 -9.882812 2.234375 -10.847656 3.203125 -11.578125 C 4.179688 -12.304688 5.34375 -12.671875 6.6875 -12.671875 C 8.269531 -12.671875 9.523438 -12.203125 10.453125 -11.265625 C 11.378906 -10.328125 11.976562 -9.007812 12.25 -7.3125 C 12.320312 -6.78125 12.375 -6.191406 12.40625 -5.546875 C 12.40625 -5.273438 12.265625 -5.140625 11.984375 -5.140625 L 4.546875 -5.140625 C 4.453125 -5.140625 4.40625 -5.085938 4.40625 -4.984375 C 4.457031 -4.648438 4.515625 -4.398438 4.578125 -4.234375 C 4.734375 -3.734375 5.050781 -3.347656 5.53125 -3.078125 C 6.007812 -2.816406 6.585938 -2.6875 7.265625 -2.6875 Z M 6.640625 -9.71875 C 6.117188 -9.71875 5.679688 -9.59375 5.328125 -9.34375 C 4.984375 -9.09375 4.75 -8.738281 4.625 -8.28125 C 4.539062 -7.976562 4.492188 -7.773438 4.484375 -7.671875 C 4.460938 -7.578125 4.503906 -7.53125 4.609375 -7.53125 L 8.71875 -7.53125 C 8.800781 -7.53125 8.84375 -7.5625 8.84375 -7.625 C 8.84375 -7.800781 8.8125 -7.988281 8.75 -8.1875 C 8.601562 -8.65625 8.347656 -9.023438 7.984375 -9.296875 C 7.628906 -9.578125 7.179688 -9.71875 6.640625 -9.71875 Z M 6.640625 -9.71875 "/></g></g></g><g fill="#016e8f" fill-opacity="1"><g transform="translate(267.266785, 269.781853)"><g/></g></g><g fill="#016e8f" fill-opacity="1"><g transform="translate(272.11131, 269.781853)"><g><path d="M 10.484375 -16.546875 C 10.484375 -16.816406 10.625 -16.953125 10.90625 -16.953125 L 13.484375 -16.953125 C 13.765625 -16.953125 13.90625 -16.816406 13.90625 -16.546875 L 13.90625 -0.40625 C 13.90625 -0.132812 13.765625 0 13.484375 0 L 10.90625 0 C 10.625 0 10.484375 -0.132812 10.484375 -0.40625 L 10.484375 -6.953125 C 10.484375 -7.046875 10.4375 -7.09375 10.34375 -7.09375 L 5.03125 -7.09375 C 4.9375 -7.09375 4.890625 -7.046875 4.890625 -6.953125 L 4.890625 -0.40625 C 4.890625 -0.132812 4.753906 0 4.484375 0 L 1.890625 0 C 1.617188 0 1.484375 -0.132812 1.484375 -0.40625 L 1.484375 -16.546875 C 1.484375 -16.816406 1.617188 -16.953125 1.890625 -16.953125 L 4.484375 -16.953125 C 4.753906 -16.953125 4.890625 -16.816406 4.890625 -16.546875 L 4.890625 -10.171875 C 4.890625 -10.078125 4.9375 -10.03125 5.03125 -10.03125 L 10.34375 -10.03125 C 10.4375 -10.03125 10.484375 -10.078125 10.484375 -10.171875 Z M 10.484375 -16.546875 "/></g></g></g><g fill="#016e8f" fill-opacity="1"><g transform="translate(287.323162, 269.781853)"><g><path d="M 8.53125 -12.03125 C 8.53125 -12.3125 8.664062 -12.453125 8.9375 -12.453125 L 11.53125 -12.453125 C 11.800781 -12.453125 11.9375 -12.3125 11.9375 -12.03125 L 11.9375 -0.40625 C 11.9375 -0.132812 11.800781 0 11.53125 0 L 8.9375 0 C 8.664062 0 8.53125 -0.132812 8.53125 -0.40625 L 8.53125 -1.0625 C 8.53125 -1.125 8.507812 -1.160156 8.46875 -1.171875 C 8.425781 -1.179688 8.390625 -1.160156 8.359375 -1.109375 C 7.722656 -0.253906 6.726562 0.171875 5.375 0.171875 C 4.144531 0.171875 3.132812 -0.195312 2.34375 -0.9375 C 1.550781 -1.6875 1.15625 -2.726562 1.15625 -4.0625 L 1.15625 -12.03125 C 1.15625 -12.3125 1.296875 -12.453125 1.578125 -12.453125 L 4.140625 -12.453125 C 4.410156 -12.453125 4.546875 -12.3125 4.546875 -12.03125 L 4.546875 -4.921875 C 4.546875 -4.273438 4.71875 -3.75 5.0625 -3.34375 C 5.414062 -2.9375 5.898438 -2.734375 6.515625 -2.734375 C 7.066406 -2.734375 7.519531 -2.898438 7.875 -3.234375 C 8.226562 -3.566406 8.445312 -4 8.53125 -4.53125 Z M 8.53125 -12.03125 "/></g></g></g><g fill="#016e8f" fill-opacity="1"><g transform="translate(300.524516, 269.781853)"><g><path d="M 12.28125 -9.28125 C 12.582031 -8.46875 12.734375 -7.460938 12.734375 -6.265625 C 12.734375 -5.109375 12.597656 -4.140625 12.328125 -3.359375 C 12.003906 -2.296875 11.414062 -1.4375 10.5625 -0.78125 C 9.71875 -0.132812 8.75 0.1875 7.65625 0.1875 C 6.476562 0.1875 5.554688 -0.242188 4.890625 -1.109375 C 4.859375 -1.160156 4.820312 -1.179688 4.78125 -1.171875 C 4.738281 -1.160156 4.71875 -1.125 4.71875 -1.0625 L 4.71875 -0.40625 C 4.71875 -0.132812 4.582031 0 4.3125 0 L 1.71875 0 C 1.445312 0 1.3125 -0.132812 1.3125 -0.40625 L 1.3125 -16.546875 C 1.3125 -16.816406 1.445312 -16.953125 1.71875 -16.953125 L 4.3125 -16.953125 C 4.582031 -16.953125 4.71875 -16.816406 4.71875 -16.546875 L 4.71875 -11.546875 C 4.71875 -11.484375 4.738281 -11.441406 4.78125 -11.421875 C 4.820312 -11.410156 4.859375 -11.429688 4.890625 -11.484375 C 5.535156 -12.273438 6.457031 -12.671875 7.65625 -12.671875 C 8.75 -12.671875 9.703125 -12.363281 10.515625 -11.75 C 11.335938 -11.132812 11.925781 -10.3125 12.28125 -9.28125 Z M 8.640625 -3.828125 C 8.984375 -4.453125 9.15625 -5.242188 9.15625 -6.203125 C 9.15625 -7.253906 8.960938 -8.101562 8.578125 -8.75 C 8.191406 -9.351562 7.625 -9.65625 6.875 -9.65625 C 6.195312 -9.65625 5.65625 -9.34375 5.25 -8.71875 C 4.914062 -8.125 4.75 -7.289062 4.75 -6.21875 C 4.75 -5.21875 4.910156 -4.421875 5.234375 -3.828125 C 5.617188 -3.128906 6.164062 -2.78125 6.875 -2.78125 C 7.664062 -2.78125 8.253906 -3.128906 8.640625 -3.828125 Z M 8.640625 -3.828125 "/></g></g></g></svg>