<svg xmlns="http://www.w3.org/2000/svg" xmlns:xlink="http://www.w3.org/1999/xlink" width="500" zoomAndPan="magnify" viewBox="0 0 375 374.999991" height="500" preserveAspectRatio="xMidYMid meet" version="1.0"><defs><g/><clipPath id="ae0e99a4b6"><path d="M 37.535156 156.457031 L 96.75 156.457031 L 96.75 218.707031 L 37.535156 218.707031 Z M 37.535156 156.457031 " clip-rule="nonzero"/></clipPath></defs><g clip-path="url(#ae0e99a4b6)"><path fill="#ffffff" d="M 74.605469 156.625 C 74.601562 156.625 74.601562 156.625 74.601562 156.625 C 74.015625 156.460938 73.4375 156.765625 72.941406 157.046875 C 72.625 157.226562 72.324219 157.429688 72.023438 157.632812 C 72.011719 157.640625 72 157.648438 71.988281 157.65625 C 71.050781 158.308594 70.136719 158.996094 69.203125 159.652344 C 67.679688 160.71875 66.15625 161.78125 64.632812 162.847656 C 63.152344 163.890625 61.667969 164.933594 60.210938 166.011719 C 58.757812 167.085938 57.320312 168.183594 55.917969 169.328125 C 54.546875 170.449219 53.21875 171.621094 51.9375 172.84375 C 50.691406 174.035156 49.488281 175.269531 48.328125 176.546875 C 47.167969 177.824219 46.050781 179.140625 44.976562 180.488281 C 44.632812 180.921875 44.292969 181.359375 43.957031 181.796875 C 42.328125 183.933594 40.820312 186.164062 39.445312 188.472656 C 39.082031 189.082031 38.730469 189.695312 38.390625 190.316406 C 38.125 190.820312 37.855469 191.324219 37.636719 191.847656 C 37.589844 191.96875 37.535156 192.09375 37.546875 192.226562 C 37.675781 192.183594 37.761719 192.070312 37.851562 191.972656 C 38.226562 191.539062 38.566406 191.070312 38.910156 190.609375 C 40.511719 188.40625 42.023438 186.136719 43.636719 183.941406 C 44.6875 182.503906 45.773438 181.078125 46.941406 179.730469 C 48.074219 178.429688 49.269531 177.1875 50.527344 176.007812 C 51.832031 174.78125 53.210938 173.625 54.609375 172.503906 C 55.136719 172.078125 55.667969 171.660156 56.203125 171.246094 C 57.652344 170.121094 59.109375 169.015625 60.582031 167.929688 C 62.089844 166.820312 63.59375 165.710938 65.097656 164.601562 C 65.789062 164.082031 66.5 163.589844 67.199219 163.074219 C 68.171875 162.363281 69.144531 161.652344 70.136719 160.964844 C 70.40625 160.78125 70.675781 160.597656 70.960938 160.441406 C 71.039062 160.398438 71.128906 160.375 71.21875 160.367188 C 71.210938 160.527344 71.113281 160.652344 71.035156 160.785156 C 70.765625 161.207031 70.472656 161.613281 70.195312 162.03125 C 69.429688 163.1875 68.730469 164.402344 68.296875 165.722656 C 67.964844 166.734375 67.746094 167.8125 67.890625 168.878906 C 68 169.710938 68.488281 170.480469 69.183594 170.9375 C 69.292969 171.007812 69.394531 171.085938 69.507812 171.148438 C 69.664062 171.222656 69.800781 171.347656 69.976562 171.386719 C 70.085938 171.441406 70.195312 171.503906 70.316406 171.535156 C 70.347656 171.546875 70.382812 171.558594 70.414062 171.570312 C 70.449219 171.578125 70.480469 171.589844 70.515625 171.601562 C 70.550781 171.613281 70.582031 171.625 70.617188 171.636719 C 70.648438 171.648438 70.683594 171.65625 70.71875 171.667969 C 70.753906 171.679688 70.785156 171.691406 70.816406 171.707031 C 70.835938 171.710938 70.863281 171.714844 70.878906 171.71875 C 70.953125 171.761719 71.035156 171.804688 71.121094 171.792969 C 71.277344 171.871094 71.453125 171.902344 71.625 171.929688 C 71.789062 171.984375 71.957031 172.015625 72.128906 172.03125 C 72.179688 172.058594 72.238281 172.058594 72.296875 172.066406 C 72.566406 172.121094 72.84375 172.136719 73.117188 172.191406 C 73.265625 172.183594 73.402344 172.242188 73.550781 172.226562 C 73.660156 172.265625 73.773438 172.269531 73.886719 172.265625 C 74.003906 172.300781 74.125 172.304688 74.242188 172.292969 C 74.328125 172.34375 74.433594 172.328125 74.527344 172.34375 C 75.898438 172.476562 77.277344 172.667969 78.589844 173.109375 C 79.15625 173.296875 79.710938 173.515625 80.253906 173.761719 C 80.527344 173.882812 80.796875 174.011719 81.0625 174.144531 C 82.183594 174.707031 83.257812 175.367188 84.273438 176.101562 C 84.765625 176.460938 85.246094 176.835938 85.710938 177.226562 C 86.179688 177.625 86.613281 178.058594 87.078125 178.464844 C 87.992188 179.34375 88.851562 180.285156 89.644531 181.285156 C 90.039062 181.78125 90.414062 182.296875 90.753906 182.835938 C 91.09375 183.386719 91.390625 183.972656 91.5625 184.597656 C 91.707031 185.136719 91.765625 185.703125 91.691406 186.257812 C 91.585938 187.136719 91.296875 187.980469 91.152344 188.855469 C 90.988281 189.785156 90.992188 190.753906 91.277344 191.660156 C 91.523438 192.476562 91.898438 193.25 92.308594 193.996094 C 92.683594 194.679688 93.09375 195.34375 93.507812 196.007812 C 93.792969 196.476562 94.09375 196.9375 94.332031 197.433594 C 94.4375 197.671875 94.5625 197.929688 94.511719 198.199219 C 94.476562 198.285156 94.394531 198.351562 94.304688 198.371094 C 94.050781 198.433594 93.789062 198.386719 93.535156 198.367188 C 93.019531 198.316406 92.507812 198.21875 91.988281 198.257812 C 91.757812 198.277344 91.503906 198.363281 91.394531 198.585938 C 91.273438 198.839844 91.339844 199.128906 91.410156 199.386719 C 91.566406 199.882812 91.820312 200.332031 92.0625 200.785156 C 92.425781 201.445312 92.816406 202.09375 93.160156 202.761719 C 93.300781 203.046875 93.4375 203.332031 93.527344 203.636719 C 93.613281 203.9375 93.640625 204.269531 93.519531 204.566406 C 93.382812 204.886719 93.136719 205.144531 92.890625 205.382812 C 92.414062 205.828125 91.882812 206.207031 91.339844 206.566406 C 90.175781 207.324219 88.949219 207.980469 87.675781 208.539062 C 86.289062 209.140625 84.824219 209.617188 83.308594 209.726562 C 81.648438 209.855469 79.984375 209.519531 78.414062 208.992188 C 77.746094 208.773438 77.097656 208.5 76.441406 208.238281 C 77.195312 207.257812 77.984375 206.308594 78.726562 205.320312 C 78.839844 205.148438 78.992188 204.992188 79.039062 204.785156 C 78.902344 204.796875 78.796875 204.890625 78.6875 204.964844 C 78.28125 205.273438 77.90625 205.621094 77.539062 205.972656 C 76.902344 206.59375 76.292969 207.238281 75.714844 207.910156 C 75.699219 207.925781 75.304688 207.71875 75.265625 207.699219 C 75.113281 207.628906 74.960938 207.554688 74.808594 207.476562 C 74.191406 207.171875 73.578125 206.855469 72.988281 206.507812 C 72.6875 206.332031 72.355469 206.171875 72.078125 205.960938 C 72.097656 205.972656 72.324219 205.789062 72.351562 205.773438 C 72.445312 205.707031 72.542969 205.640625 72.636719 205.578125 C 72.828125 205.445312 73.019531 205.320312 73.210938 205.191406 C 73.59375 204.9375 73.976562 204.691406 74.359375 204.441406 C 74.742188 204.191406 75.125 203.941406 75.507812 203.695312 C 75.933594 203.417969 76.382812 203.148438 76.789062 202.839844 C 76.90625 202.75 77.066406 202.652344 77.132812 202.511719 C 76.871094 202.542969 76.636719 202.679688 76.398438 202.777344 C 75.578125 203.160156 74.773438 203.570312 73.976562 204.003906 C 73.175781 204.441406 72.386719 204.902344 71.609375 205.375 C 71.535156 205.417969 71.464844 205.464844 71.398438 205.515625 C 70.890625 205.222656 70.417969 204.859375 69.910156 204.5625 C 69.835938 204.519531 69.753906 204.480469 69.664062 204.484375 C 69.679688 204.617188 69.773438 204.722656 69.851562 204.832031 C 70.070312 205.109375 70.3125 205.371094 70.5625 205.625 C 70.644531 205.710938 70.738281 205.789062 70.808594 205.886719 C 70.777344 205.839844 69.917969 206.464844 69.859375 206.503906 C 69.4375 206.792969 69.027344 207.097656 68.617188 207.398438 C 68.003906 207.839844 67.398438 208.296875 66.8125 208.777344 C 66.121094 209.34375 65.433594 209.921875 64.769531 210.519531 C 64.113281 211.113281 63.472656 211.722656 62.84375 212.339844 C 62.199219 212.972656 61.570312 213.613281 60.953125 214.269531 C 60.339844 214.921875 59.726562 215.578125 59.140625 216.253906 C 58.878906 216.554688 58.621094 216.855469 58.367188 217.160156 C 58.246094 217.304688 58.128906 217.449219 58.011719 217.597656 C 57.953125 217.671875 57.890625 217.746094 57.832031 217.824219 C 57.804688 217.863281 57.773438 217.902344 57.742188 217.941406 C 57.726562 217.964844 57.660156 218.027344 57.660156 218.050781 C 57.558594 218.207031 57.417969 218.351562 57.386719 218.539062 C 57.59375 218.464844 57.746094 218.300781 57.914062 218.167969 C 58.867188 217.339844 59.773438 216.460938 60.695312 215.597656 C 62.53125 213.871094 64.367188 212.144531 66.269531 210.492188 C 67.929688 209.058594 69.648438 207.691406 71.433594 206.417969 C 72.535156 207.332031 73.757812 208.097656 75.058594 208.679688 C 73.40625 210.695312 72.015625 212.910156 70.753906 215.1875 C 70.238281 216.140625 69.726562 217.097656 69.296875 218.089844 C 69.222656 218.273438 69.132812 218.457031 69.109375 218.652344 C 69.128906 218.699219 69.171875 218.640625 69.195312 218.628906 C 69.367188 218.445312 69.503906 218.234375 69.648438 218.03125 C 70.355469 216.992188 71.03125 215.933594 71.722656 214.882812 C 73.039062 212.882812 74.382812 210.902344 75.847656 209.007812 C 77.175781 209.535156 78.5625 209.910156 79.964844 210.1875 C 80.855469 210.363281 81.757812 210.492188 82.667969 210.554688 C 84.144531 210.65625 85.667969 210.570312 87.058594 210.027344 C 87.753906 209.753906 88.398438 209.355469 88.984375 208.886719 C 89.46875 208.511719 89.898438 208.0625 90.402344 207.707031 C 90.824219 207.40625 91.332031 207.265625 91.800781 207.058594 C 92.433594 206.792969 93.023438 206.421875 93.539062 205.964844 C 94.054688 205.527344 94.503906 205.015625 94.925781 204.492188 C 95.324219 203.992188 95.6875 203.464844 96.007812 202.914062 C 96.320312 202.367188 96.601562 201.789062 96.710938 201.164062 C 96.785156 200.769531 96.738281 200.359375 96.605469 199.984375 C 96.402344 199.410156 96.046875 198.910156 95.722656 198.398438 C 95 197.304688 94.425781 196.117188 93.945312 194.894531 C 93.625 194.085938 93.351562 193.257812 93.144531 192.410156 C 92.929688 191.558594 92.808594 190.683594 92.765625 189.804688 C 92.695312 188.566406 92.746094 187.320312 92.582031 186.085938 C 92.425781 184.820312 92.042969 183.578125 91.453125 182.445312 C 90.878906 181.414062 90.179688 180.476562 89.359375 179.632812 C 88.90625 179.171875 88.421875 178.734375 87.925781 178.320312 C 85.90625 176.640625 83.695312 175.21875 81.527344 173.746094 C 80.609375 173.113281 79.675781 172.488281 78.875 171.710938 C 78.699219 171.523438 78.527344 171.332031 78.371094 171.132812 L 78.425781 171.132812 C 78.410156 171.128906 78.382812 171.128906 78.367188 171.125 C 77.726562 170.289062 77.449219 169.242188 77.257812 168.222656 C 77.507812 168.054688 77.738281 167.855469 77.996094 167.703125 C 78.574219 167.363281 79.136719 167.007812 79.71875 166.679688 C 80.902344 166.023438 82.121094 165.425781 83.339844 164.832031 C 84.265625 164.382812 85.191406 163.925781 86.144531 163.53125 C 86.449219 163.40625 87.136719 163.089844 87.296875 163.554688 C 87.40625 163.878906 87.363281 164.230469 87.355469 164.566406 C 87.328125 164.824219 87.289062 165.082031 87.25 165.335938 C 87.1875 165.691406 87.109375 166.042969 87.023438 166.394531 C 86.976562 166.582031 86.945312 166.773438 86.894531 166.960938 C 86.546875 168.226562 86.015625 169.441406 85.394531 170.597656 C 85.125 171.105469 84.835938 171.609375 84.539062 172.101562 C 84.503906 172.15625 84.46875 172.214844 84.433594 172.269531 C 84.328125 172.460938 84.199219 172.640625 84.109375 172.839844 C 84.113281 172.855469 84.117188 172.886719 84.117188 172.90625 C 84.113281 172.878906 84.253906 172.761719 84.273438 172.738281 C 84.332031 172.671875 84.386719 172.605469 84.441406 172.535156 C 84.558594 172.398438 84.65625 172.238281 84.757812 172.085938 C 84.980469 171.761719 85.226562 171.4375 85.421875 171.09375 C 85.621094 170.742188 85.828125 170.398438 86.019531 170.039062 C 86.179688 169.746094 86.339844 169.441406 86.496094 169.140625 C 86.652344 168.832031 86.824219 168.527344 86.964844 168.214844 C 86.988281 168.167969 87.003906 168.117188 87.027344 168.070312 C 87.101562 167.917969 87.175781 167.761719 87.25 167.609375 C 87.394531 167.296875 87.539062 166.988281 87.679688 166.675781 C 87.964844 166.054688 88.234375 165.425781 88.488281 164.789062 C 88.492188 164.777344 88.496094 164.769531 88.5 164.757812 C 88.578125 164.558594 88.65625 164.355469 88.734375 164.152344 C 88.8125 163.941406 88.886719 163.726562 88.957031 163.515625 C 89.074219 163.113281 89.214844 162.699219 89.179688 162.273438 C 89.171875 162.089844 89.0625 161.902344 88.882812 161.839844 C 88.632812 161.746094 88.347656 161.769531 88.089844 161.816406 C 87.460938 161.929688 86.832031 162.09375 86.222656 162.300781 C 85.917969 162.402344 85.621094 162.539062 85.316406 162.636719 C 84.992188 162.742188 84.667969 162.859375 84.347656 162.976562 C 84.328125 162.984375 84.308594 162.992188 84.289062 163 C 83.652344 163.238281 83.027344 163.484375 82.398438 163.746094 C 81.125 164.277344 79.859375 164.828125 78.59375 165.378906 C 78.035156 165.625 77.476562 165.859375 76.917969 166.105469 C 76.710938 164.570312 76.550781 163.027344 76.351562 161.488281 C 76.273438 160.886719 76.152344 160.285156 76.074219 159.683594 C 76.027344 159.34375 75.945312 159.011719 75.859375 158.683594 C 75.773438 158.367188 75.703125 158.050781 75.570312 157.753906 C 75.417969 157.410156 75.238281 157.058594 74.941406 156.824219 C 74.84375 156.75 74.722656 156.660156 74.605469 156.628906 Z M 74.605469 156.625 " fill-opacity="1" fill-rule="nonzero"/></g><path fill="#ffffff" d="M 83.210938 185.597656 C 82.816406 185.585938 82.417969 185.585938 82.023438 185.601562 C 81.367188 185.625 80.710938 185.683594 80.058594 185.769531 C 79.726562 185.816406 79.394531 185.867188 79.066406 185.925781 C 78.898438 185.957031 78.730469 185.992188 78.566406 186.027344 C 78.484375 186.042969 78.40625 186.058594 78.324219 186.078125 C 78.273438 186.089844 78.128906 186.148438 78.085938 186.132812 C 78.484375 186.28125 78.980469 186.390625 79.265625 186.734375 C 79.539062 187.070312 79.691406 187.476562 79.910156 187.84375 C 80.253906 188.449219 80.789062 188.917969 81.359375 189.296875 C 81.835938 189.613281 82.347656 189.878906 82.890625 190.0625 C 83.308594 190.199219 83.757812 190.289062 84.199219 190.234375 C 84.527344 190.195312 84.835938 190.046875 85.074219 189.816406 C 85.382812 189.53125 85.605469 189.167969 85.820312 188.8125 C 86.164062 188.253906 86.511719 187.695312 86.9375 187.199219 C 87.054688 187.054688 87.183594 186.917969 87.265625 186.75 C 87.519531 186.210938 86.40625 186.003906 86.074219 185.933594 C 85.132812 185.738281 84.171875 185.625 83.210938 185.597656 Z M 83.210938 185.597656 " fill-opacity="1" fill-rule="nonzero"/><path fill="#ffffff" d="M 76.890625 200.453125 C 76.777344 200.378906 76.640625 200.433594 76.519531 200.449219 C 75.640625 200.617188 74.773438 200.878906 73.925781 201.167969 C 73.078125 201.460938 72.25 201.796875 71.4375 202.167969 C 70.878906 202.425781 70.320312 202.691406 69.789062 202.992188 C 69.015625 203.410156 68.265625 203.863281 67.53125 204.347656 C 66.78125 204.847656 66.050781 205.378906 65.332031 205.929688 C 64.941406 206.226562 64.554688 206.53125 64.175781 206.84375 C 63.160156 207.671875 62.15625 208.523438 61.230469 209.453125 C 61.078125 209.621094 60.886719 209.769531 60.800781 209.984375 C 60.996094 209.949219 61.152344 209.8125 61.320312 209.714844 C 62.382812 209 63.40625 208.234375 64.449219 207.492188 C 66.628906 205.9375 68.820312 204.378906 71.183594 203.113281 C 71.972656 202.6875 72.777344 202.289062 73.597656 201.925781 C 74.015625 201.738281 74.4375 201.558594 74.859375 201.382812 C 75.277344 201.207031 75.707031 201.058594 76.113281 200.867188 C 76.210938 200.820312 76.316406 200.78125 76.414062 200.734375 C 76.578125 200.652344 76.75 200.574219 76.890625 200.453125 Z M 76.890625 200.453125 " fill-opacity="1" fill-rule="nonzero"/><g fill="#ffffff" fill-opacity="1"><g transform="translate(107.294844, 196.124987)"><g><path d="M 5.1875 0 C 4.925781 0 4.769531 -0.117188 4.71875 -0.359375 L 0.453125 -16.5 C 0.441406 -16.53125 0.4375 -16.566406 0.4375 -16.609375 C 0.4375 -16.835938 0.566406 -16.953125 0.828125 -16.953125 L 3.578125 -16.953125 C 3.828125 -16.953125 3.972656 -16.832031 4.015625 -16.59375 L 6.296875 -6.921875 C 6.316406 -6.859375 6.347656 -6.828125 6.390625 -6.828125 C 6.441406 -6.828125 6.472656 -6.859375 6.484375 -6.921875 L 8.671875 -16.59375 C 8.722656 -16.832031 8.867188 -16.953125 9.109375 -16.953125 L 11.84375 -16.953125 C 12.101562 -16.953125 12.253906 -16.832031 12.296875 -16.59375 L 14.671875 -6.921875 C 14.691406 -6.859375 14.722656 -6.828125 14.765625 -6.828125 C 14.804688 -6.828125 14.832031 -6.859375 14.84375 -6.921875 L 17.03125 -16.59375 C 17.070312 -16.832031 17.21875 -16.953125 17.46875 -16.953125 L 20.109375 -16.953125 C 20.242188 -16.953125 20.335938 -16.90625 20.390625 -16.8125 C 20.453125 -16.726562 20.46875 -16.625 20.4375 -16.5 L 16.546875 -0.359375 C 16.492188 -0.117188 16.335938 0 16.078125 0 L 13.421875 0 C 13.160156 0 13.003906 -0.117188 12.953125 -0.359375 L 10.53125 -10.65625 C 10.519531 -10.71875 10.488281 -10.75 10.4375 -10.75 C 10.382812 -10.75 10.351562 -10.71875 10.34375 -10.65625 L 8.09375 -0.359375 C 8.039062 -0.117188 7.894531 0 7.65625 0 Z M 5.1875 0 "/></g></g></g><g fill="#ffffff" fill-opacity="1"><g transform="translate(128.19901, 196.124987)"><g><path d="M 7.75 -12.640625 C 9.039062 -12.640625 10.082031 -12.242188 10.875 -11.453125 C 11.664062 -10.660156 12.0625 -9.585938 12.0625 -8.234375 L 12.0625 -0.40625 C 12.0625 -0.132812 11.925781 0 11.65625 0 L 9.0625 0 C 8.78125 0 8.640625 -0.132812 8.640625 -0.40625 L 8.640625 -7.53125 C 8.640625 -8.175781 8.460938 -8.703125 8.109375 -9.109375 C 7.753906 -9.515625 7.28125 -9.71875 6.6875 -9.71875 C 6.082031 -9.71875 5.59375 -9.515625 5.21875 -9.109375 C 4.851562 -8.703125 4.671875 -8.175781 4.671875 -7.53125 L 4.671875 -0.40625 C 4.671875 -0.132812 4.535156 0 4.265625 0 L 1.671875 0 C 1.398438 0 1.265625 -0.132812 1.265625 -0.40625 L 1.265625 -16.546875 C 1.265625 -16.816406 1.398438 -16.953125 1.671875 -16.953125 L 4.265625 -16.953125 C 4.535156 -16.953125 4.671875 -16.816406 4.671875 -16.546875 L 4.671875 -11.359375 C 4.671875 -11.296875 4.6875 -11.253906 4.71875 -11.234375 C 4.75 -11.222656 4.78125 -11.238281 4.8125 -11.28125 C 5.476562 -12.1875 6.457031 -12.640625 7.75 -12.640625 Z M 7.75 -12.640625 "/></g></g></g><g fill="#ffffff" fill-opacity="1"><g transform="translate(141.448807, 196.124987)"><g><path d="M 3.15625 -13.640625 C 2.539062 -13.640625 2.035156 -13.828125 1.640625 -14.203125 C 1.253906 -14.585938 1.0625 -15.078125 1.0625 -15.671875 C 1.0625 -16.265625 1.253906 -16.75 1.640625 -17.125 C 2.035156 -17.507812 2.539062 -17.703125 3.15625 -17.703125 C 3.78125 -17.703125 4.28125 -17.515625 4.65625 -17.140625 C 5.039062 -16.773438 5.234375 -16.285156 5.234375 -15.671875 C 5.234375 -15.054688 5.039062 -14.5625 4.65625 -14.1875 C 4.28125 -13.820312 3.78125 -13.640625 3.15625 -13.640625 Z M 1.859375 0 C 1.585938 0 1.453125 -0.132812 1.453125 -0.40625 L 1.453125 -12.03125 C 1.453125 -12.3125 1.585938 -12.453125 1.859375 -12.453125 L 4.453125 -12.453125 C 4.734375 -12.453125 4.875 -12.3125 4.875 -12.03125 L 4.875 -0.40625 C 4.875 -0.132812 4.734375 0 4.453125 0 Z M 1.859375 0 "/></g></g></g><g fill="#ffffff" fill-opacity="1"><g transform="translate(147.746696, 196.124987)"><g><path d="M 6.21875 0.171875 C 5.144531 0.171875 4.203125 0.0195312 3.390625 -0.28125 C 2.585938 -0.59375 1.96875 -1.019531 1.53125 -1.5625 C 1.09375 -2.113281 0.875 -2.738281 0.875 -3.4375 L 0.875 -3.5625 C 0.875 -3.832031 1.007812 -3.96875 1.28125 -3.96875 L 3.734375 -3.96875 C 4.003906 -3.96875 4.140625 -3.921875 4.140625 -3.828125 L 4.140625 -3.65625 C 4.140625 -3.300781 4.332031 -3 4.71875 -2.75 C 5.101562 -2.5 5.597656 -2.375 6.203125 -2.375 C 6.753906 -2.375 7.195312 -2.476562 7.53125 -2.6875 C 7.875 -2.894531 8.046875 -3.171875 8.046875 -3.515625 C 8.046875 -3.804688 7.898438 -4.023438 7.609375 -4.171875 C 7.316406 -4.316406 6.835938 -4.46875 6.171875 -4.625 C 5.378906 -4.832031 4.789062 -5.019531 4.40625 -5.1875 C 3.351562 -5.539062 2.519531 -5.972656 1.90625 -6.484375 C 1.300781 -7.003906 1 -7.75 1 -8.71875 C 1 -9.914062 1.460938 -10.863281 2.390625 -11.5625 C 3.328125 -12.269531 4.554688 -12.625 6.078125 -12.625 C 7.109375 -12.625 8.015625 -12.457031 8.796875 -12.125 C 9.585938 -11.789062 10.195312 -11.320312 10.625 -10.71875 C 11.050781 -10.125 11.265625 -9.445312 11.265625 -8.6875 C 11.265625 -8.613281 11.226562 -8.546875 11.15625 -8.484375 C 11.082031 -8.429688 10.976562 -8.40625 10.84375 -8.40625 L 8.484375 -8.40625 C 8.203125 -8.40625 8.0625 -8.453125 8.0625 -8.546875 L 8.0625 -8.6875 C 8.0625 -9.050781 7.882812 -9.351562 7.53125 -9.59375 C 7.175781 -9.832031 6.703125 -9.953125 6.109375 -9.953125 C 5.566406 -9.953125 5.125 -9.851562 4.78125 -9.65625 C 4.4375 -9.46875 4.265625 -9.203125 4.265625 -8.859375 C 4.265625 -8.535156 4.425781 -8.289062 4.75 -8.125 C 5.082031 -7.96875 5.628906 -7.800781 6.390625 -7.625 C 6.859375 -7.53125 7.3125 -7.410156 7.75 -7.265625 C 8.914062 -6.921875 9.828125 -6.484375 10.484375 -5.953125 C 11.148438 -5.421875 11.484375 -4.648438 11.484375 -3.640625 C 11.484375 -2.441406 11.003906 -1.503906 10.046875 -0.828125 C 9.097656 -0.160156 7.820312 0.171875 6.21875 0.171875 Z M 6.21875 0.171875 "/></g></g></g><g fill="#ffffff" fill-opacity="1"><g transform="translate(159.930705, 196.124987)"><g><path d="M 1.671875 0 C 1.398438 0 1.265625 -0.132812 1.265625 -0.40625 L 1.265625 -16.546875 C 1.265625 -16.816406 1.398438 -16.953125 1.671875 -16.953125 L 4.265625 -16.953125 C 4.535156 -16.953125 4.671875 -16.816406 4.671875 -16.546875 L 4.671875 -8.546875 C 4.671875 -8.484375 4.691406 -8.445312 4.734375 -8.4375 C 4.773438 -8.425781 4.8125 -8.445312 4.84375 -8.5 L 8.0625 -12.203125 C 8.226562 -12.367188 8.398438 -12.453125 8.578125 -12.453125 L 11.5 -12.453125 C 11.613281 -12.453125 11.703125 -12.429688 11.765625 -12.390625 C 11.835938 -12.347656 11.875 -12.285156 11.875 -12.203125 C 11.875 -12.109375 11.835938 -12.019531 11.765625 -11.9375 L 8.796875 -8.203125 C 8.742188 -8.160156 8.734375 -8.097656 8.765625 -8.015625 L 12.328125 -0.484375 L 12.375 -0.296875 C 12.375 -0.0976562 12.253906 0 12.015625 0 L 9.28125 0 C 9.050781 0 8.890625 -0.101562 8.796875 -0.3125 L 6.4375 -5.859375 C 6.394531 -5.953125 6.332031 -5.960938 6.25 -5.890625 L 4.75 -3.96875 C 4.695312 -3.90625 4.671875 -3.847656 4.671875 -3.796875 L 4.671875 -0.40625 C 4.671875 -0.132812 4.535156 0 4.265625 0 Z M 1.671875 0 "/></g></g></g><g fill="#ffffff" fill-opacity="1"><g transform="translate(172.841391, 196.124987)"><g><path d="M 7.265625 -2.6875 C 8.328125 -2.738281 9.144531 -3.109375 9.71875 -3.796875 C 9.8125 -3.910156 9.914062 -3.96875 10.03125 -3.96875 C 10.125 -3.96875 10.210938 -3.925781 10.296875 -3.84375 L 11.671875 -2.515625 C 11.765625 -2.421875 11.8125 -2.328125 11.8125 -2.234375 C 11.8125 -2.117188 11.78125 -2.019531 11.71875 -1.9375 C 11.1875 -1.269531 10.503906 -0.75 9.671875 -0.375 C 8.835938 0 7.929688 0.1875 6.953125 0.1875 C 5.460938 0.1875 4.226562 -0.1875 3.25 -0.9375 C 2.28125 -1.695312 1.625 -2.738281 1.28125 -4.0625 C 1.09375 -4.78125 1 -5.535156 1 -6.328125 C 1 -7.253906 1.085938 -8.039062 1.265625 -8.6875 C 1.585938 -9.882812 2.234375 -10.847656 3.203125 -11.578125 C 4.179688 -12.304688 5.34375 -12.671875 6.6875 -12.671875 C 8.269531 -12.671875 9.523438 -12.203125 10.453125 -11.265625 C 11.378906 -10.328125 11.976562 -9.007812 12.25 -7.3125 C 12.320312 -6.78125 12.375 -6.191406 12.40625 -5.546875 C 12.40625 -5.273438 12.265625 -5.140625 11.984375 -5.140625 L 4.546875 -5.140625 C 4.453125 -5.140625 4.40625 -5.085938 4.40625 -4.984375 C 4.457031 -4.648438 4.515625 -4.398438 4.578125 -4.234375 C 4.734375 -3.734375 5.050781 -3.347656 5.53125 -3.078125 C 6.007812 -2.816406 6.585938 -2.6875 7.265625 -2.6875 Z M 6.640625 -9.71875 C 6.117188 -9.71875 5.679688 -9.59375 5.328125 -9.34375 C 4.984375 -9.09375 4.75 -8.738281 4.625 -8.28125 C 4.539062 -7.976562 4.492188 -7.773438 4.484375 -7.671875 C 4.460938 -7.578125 4.503906 -7.53125 4.609375 -7.53125 L 8.71875 -7.53125 C 8.800781 -7.53125 8.84375 -7.5625 8.84375 -7.625 C 8.84375 -7.800781 8.8125 -7.988281 8.75 -8.1875 C 8.601562 -8.65625 8.347656 -9.023438 7.984375 -9.296875 C 7.628906 -9.578125 7.179688 -9.71875 6.640625 -9.71875 Z M 6.640625 -9.71875 "/></g></g></g><g fill="#ffffff" fill-opacity="1"><g transform="translate(186.091187, 196.124987)"><g><path d="M 7.453125 -12.625 C 7.972656 -12.625 8.40625 -12.523438 8.75 -12.328125 C 8.9375 -12.234375 9.007812 -12.0625 8.96875 -11.8125 L 8.5 -9.28125 C 8.488281 -9.132812 8.445312 -9.046875 8.375 -9.015625 C 8.300781 -8.984375 8.179688 -8.984375 8.015625 -9.015625 C 7.753906 -9.078125 7.519531 -9.109375 7.3125 -9.109375 C 7.195312 -9.109375 7.007812 -9.09375 6.75 -9.0625 C 6.175781 -9.007812 5.6875 -8.789062 5.28125 -8.40625 C 4.875 -8.03125 4.671875 -7.53125 4.671875 -6.90625 L 4.671875 -0.40625 C 4.671875 -0.132812 4.535156 0 4.265625 0 L 1.671875 0 C 1.398438 0 1.265625 -0.132812 1.265625 -0.40625 L 1.265625 -12.03125 C 1.265625 -12.3125 1.398438 -12.453125 1.671875 -12.453125 L 4.265625 -12.453125 C 4.535156 -12.453125 4.671875 -12.3125 4.671875 -12.03125 L 4.671875 -11.28125 C 4.671875 -11.21875 4.6875 -11.175781 4.71875 -11.15625 C 4.75 -11.144531 4.789062 -11.164062 4.84375 -11.21875 C 5.488281 -12.15625 6.359375 -12.625 7.453125 -12.625 Z M 7.453125 -12.625 "/></g></g></g><g fill="#ffffff" fill-opacity="1"><g transform="translate(195.368466, 196.124987)"><g><path d="M 6.21875 0.171875 C 5.144531 0.171875 4.203125 0.0195312 3.390625 -0.28125 C 2.585938 -0.59375 1.96875 -1.019531 1.53125 -1.5625 C 1.09375 -2.113281 0.875 -2.738281 0.875 -3.4375 L 0.875 -3.5625 C 0.875 -3.832031 1.007812 -3.96875 1.28125 -3.96875 L 3.734375 -3.96875 C 4.003906 -3.96875 4.140625 -3.921875 4.140625 -3.828125 L 4.140625 -3.65625 C 4.140625 -3.300781 4.332031 -3 4.71875 -2.75 C 5.101562 -2.5 5.597656 -2.375 6.203125 -2.375 C 6.753906 -2.375 7.195312 -2.476562 7.53125 -2.6875 C 7.875 -2.894531 8.046875 -3.171875 8.046875 -3.515625 C 8.046875 -3.804688 7.898438 -4.023438 7.609375 -4.171875 C 7.316406 -4.316406 6.835938 -4.46875 6.171875 -4.625 C 5.378906 -4.832031 4.789062 -5.019531 4.40625 -5.1875 C 3.351562 -5.539062 2.519531 -5.972656 1.90625 -6.484375 C 1.300781 -7.003906 1 -7.75 1 -8.71875 C 1 -9.914062 1.460938 -10.863281 2.390625 -11.5625 C 3.328125 -12.269531 4.554688 -12.625 6.078125 -12.625 C 7.109375 -12.625 8.015625 -12.457031 8.796875 -12.125 C 9.585938 -11.789062 10.195312 -11.320312 10.625 -10.71875 C 11.050781 -10.125 11.265625 -9.445312 11.265625 -8.6875 C 11.265625 -8.613281 11.226562 -8.546875 11.15625 -8.484375 C 11.082031 -8.429688 10.976562 -8.40625 10.84375 -8.40625 L 8.484375 -8.40625 C 8.203125 -8.40625 8.0625 -8.453125 8.0625 -8.546875 L 8.0625 -8.6875 C 8.0625 -9.050781 7.882812 -9.351562 7.53125 -9.59375 C 7.175781 -9.832031 6.703125 -9.953125 6.109375 -9.953125 C 5.566406 -9.953125 5.125 -9.851562 4.78125 -9.65625 C 4.4375 -9.46875 4.265625 -9.203125 4.265625 -8.859375 C 4.265625 -8.535156 4.425781 -8.289062 4.75 -8.125 C 5.082031 -7.96875 5.628906 -7.800781 6.390625 -7.625 C 6.859375 -7.53125 7.3125 -7.410156 7.75 -7.265625 C 8.914062 -6.921875 9.828125 -6.484375 10.484375 -5.953125 C 11.148438 -5.421875 11.484375 -4.648438 11.484375 -3.640625 C 11.484375 -2.441406 11.003906 -1.503906 10.046875 -0.828125 C 9.097656 -0.160156 7.820312 0.171875 6.21875 0.171875 Z M 6.21875 0.171875 "/></g></g></g><g fill="#ffffff" fill-opacity="1"><g transform="translate(207.552475, 196.124987)"><g/></g></g><g fill="#ffffff" fill-opacity="1"><g transform="translate(212.39701, 196.124987)"><g><path d="M 5.1875 0 C 4.925781 0 4.769531 -0.117188 4.71875 -0.359375 L 0.453125 -16.5 C 0.441406 -16.53125 0.4375 -16.566406 0.4375 -16.609375 C 0.4375 -16.835938 0.566406 -16.953125 0.828125 -16.953125 L 3.578125 -16.953125 C 3.828125 -16.953125 3.972656 -16.832031 4.015625 -16.59375 L 6.296875 -6.921875 C 6.316406 -6.859375 6.347656 -6.828125 6.390625 -6.828125 C 6.441406 -6.828125 6.472656 -6.859375 6.484375 -6.921875 L 8.671875 -16.59375 C 8.722656 -16.832031 8.867188 -16.953125 9.109375 -16.953125 L 11.84375 -16.953125 C 12.101562 -16.953125 12.253906 -16.832031 12.296875 -16.59375 L 14.671875 -6.921875 C 14.691406 -6.859375 14.722656 -6.828125 14.765625 -6.828125 C 14.804688 -6.828125 14.832031 -6.859375 14.84375 -6.921875 L 17.03125 -16.59375 C 17.070312 -16.832031 17.21875 -16.953125 17.46875 -16.953125 L 20.109375 -16.953125 C 20.242188 -16.953125 20.335938 -16.90625 20.390625 -16.8125 C 20.453125 -16.726562 20.46875 -16.625 20.4375 -16.5 L 16.546875 -0.359375 C 16.492188 -0.117188 16.335938 0 16.078125 0 L 13.421875 0 C 13.160156 0 13.003906 -0.117188 12.953125 -0.359375 L 10.53125 -10.65625 C 10.519531 -10.71875 10.488281 -10.75 10.4375 -10.75 C 10.382812 -10.75 10.351562 -10.71875 10.34375 -10.65625 L 8.09375 -0.359375 C 8.039062 -0.117188 7.894531 0 7.65625 0 Z M 5.1875 0 "/></g></g></g><g fill="#ffffff" fill-opacity="1"><g transform="translate(233.301176, 196.124987)"><g><path d="M 7.265625 -2.6875 C 8.328125 -2.738281 9.144531 -3.109375 9.71875 -3.796875 C 9.8125 -3.910156 9.914062 -3.96875 10.03125 -3.96875 C 10.125 -3.96875 10.210938 -3.925781 10.296875 -3.84375 L 11.671875 -2.515625 C 11.765625 -2.421875 11.8125 -2.328125 11.8125 -2.234375 C 11.8125 -2.117188 11.78125 -2.019531 11.71875 -1.9375 C 11.1875 -1.269531 10.503906 -0.75 9.671875 -0.375 C 8.835938 0 7.929688 0.1875 6.953125 0.1875 C 5.460938 0.1875 4.226562 -0.1875 3.25 -0.9375 C 2.28125 -1.695312 1.625 -2.738281 1.28125 -4.0625 C 1.09375 -4.78125 1 -5.535156 1 -6.328125 C 1 -7.253906 1.085938 -8.039062 1.265625 -8.6875 C 1.585938 -9.882812 2.234375 -10.847656 3.203125 -11.578125 C 4.179688 -12.304688 5.34375 -12.671875 6.6875 -12.671875 C 8.269531 -12.671875 9.523438 -12.203125 10.453125 -11.265625 C 11.378906 -10.328125 11.976562 -9.007812 12.25 -7.3125 C 12.320312 -6.78125 12.375 -6.191406 12.40625 -5.546875 C 12.40625 -5.273438 12.265625 -5.140625 11.984375 -5.140625 L 4.546875 -5.140625 C 4.453125 -5.140625 4.40625 -5.085938 4.40625 -4.984375 C 4.457031 -4.648438 4.515625 -4.398438 4.578125 -4.234375 C 4.734375 -3.734375 5.050781 -3.347656 5.53125 -3.078125 C 6.007812 -2.816406 6.585938 -2.6875 7.265625 -2.6875 Z M 6.640625 -9.71875 C 6.117188 -9.71875 5.679688 -9.59375 5.328125 -9.34375 C 4.984375 -9.09375 4.75 -8.738281 4.625 -8.28125 C 4.539062 -7.976562 4.492188 -7.773438 4.484375 -7.671875 C 4.460938 -7.578125 4.503906 -7.53125 4.609375 -7.53125 L 8.71875 -7.53125 C 8.800781 -7.53125 8.84375 -7.5625 8.84375 -7.625 C 8.84375 -7.800781 8.8125 -7.988281 8.75 -8.1875 C 8.601562 -8.65625 8.347656 -9.023438 7.984375 -9.296875 C 7.628906 -9.578125 7.179688 -9.71875 6.640625 -9.71875 Z M 6.640625 -9.71875 "/></g></g></g><g fill="#ffffff" fill-opacity="1"><g transform="translate(246.550973, 196.124987)"><g><path d="M 1.71875 0 C 1.445312 0 1.3125 -0.132812 1.3125 -0.40625 L 1.3125 -16.546875 C 1.3125 -16.816406 1.445312 -16.953125 1.71875 -16.953125 L 4.3125 -16.953125 C 4.582031 -16.953125 4.71875 -16.816406 4.71875 -16.546875 L 4.71875 -0.40625 C 4.71875 -0.132812 4.582031 0 4.3125 0 Z M 1.71875 0 "/></g></g></g><g fill="#ffffff" fill-opacity="1"><g transform="translate(252.582421, 196.124987)"><g><path d="M 8.234375 -12.46875 C 8.503906 -12.46875 8.640625 -12.332031 8.640625 -12.0625 L 8.640625 -10 C 8.640625 -9.726562 8.503906 -9.59375 8.234375 -9.59375 L 6.03125 -9.59375 C 5.9375 -9.59375 5.890625 -9.546875 5.890625 -9.453125 L 5.890625 -0.40625 C 5.890625 -0.132812 5.75 0 5.46875 0 L 2.875 0 C 2.601562 0 2.46875 -0.132812 2.46875 -0.40625 L 2.46875 -9.453125 C 2.46875 -9.546875 2.421875 -9.59375 2.328125 -9.59375 L 1.046875 -9.59375 C 0.765625 -9.59375 0.625 -9.726562 0.625 -10 L 0.625 -12.0625 C 0.625 -12.332031 0.765625 -12.46875 1.046875 -12.46875 L 2.328125 -12.46875 C 2.421875 -12.46875 2.46875 -12.519531 2.46875 -12.625 L 2.46875 -13.125 C 2.46875 -14.125 2.617188 -14.898438 2.921875 -15.453125 C 3.234375 -16.015625 3.734375 -16.410156 4.421875 -16.640625 C 5.109375 -16.878906 6.054688 -16.984375 7.265625 -16.953125 L 8.0625 -16.953125 C 8.34375 -16.953125 8.484375 -16.816406 8.484375 -16.546875 L 8.484375 -14.828125 C 8.484375 -14.546875 8.34375 -14.40625 8.0625 -14.40625 L 7.390625 -14.40625 C 6.828125 -14.394531 6.4375 -14.28125 6.21875 -14.0625 C 6 -13.84375 5.890625 -13.441406 5.890625 -12.859375 L 5.890625 -12.625 C 5.890625 -12.519531 5.9375 -12.46875 6.03125 -12.46875 Z M 8.234375 -12.46875 "/></g></g></g><g fill="#ffffff" fill-opacity="1"><g transform="translate(261.956596, 196.124987)"><g><path d="M 6.25 -12.640625 C 7.300781 -12.640625 8.238281 -12.457031 9.0625 -12.09375 C 9.882812 -11.726562 10.523438 -11.226562 10.984375 -10.59375 C 11.441406 -9.96875 11.671875 -9.269531 11.671875 -8.5 L 11.671875 -0.40625 C 11.671875 -0.132812 11.535156 0 11.265625 0 L 8.671875 0 C 8.398438 0 8.265625 -0.132812 8.265625 -0.40625 L 8.265625 -1 C 8.265625 -1.0625 8.242188 -1.09375 8.203125 -1.09375 C 8.171875 -1.101562 8.132812 -1.085938 8.09375 -1.046875 C 7.34375 -0.222656 6.234375 0.1875 4.765625 0.1875 C 3.523438 0.1875 2.523438 -0.113281 1.765625 -0.71875 C 1.003906 -1.332031 0.625 -2.238281 0.625 -3.4375 C 0.625 -4.675781 1.0625 -5.640625 1.9375 -6.328125 C 2.8125 -7.015625 4.054688 -7.359375 5.671875 -7.359375 L 8.109375 -7.359375 C 8.210938 -7.359375 8.265625 -7.410156 8.265625 -7.515625 L 8.265625 -8.015625 C 8.265625 -8.546875 8.097656 -8.960938 7.765625 -9.265625 C 7.429688 -9.566406 6.953125 -9.71875 6.328125 -9.71875 C 5.835938 -9.71875 5.4375 -9.632812 5.125 -9.46875 C 4.8125 -9.3125 4.597656 -9.085938 4.484375 -8.796875 C 4.378906 -8.566406 4.21875 -8.460938 4 -8.484375 L 1.3125 -8.8125 C 1.175781 -8.832031 1.070312 -8.867188 1 -8.921875 C 0.925781 -8.984375 0.898438 -9.0625 0.921875 -9.15625 C 1.003906 -9.8125 1.28125 -10.40625 1.75 -10.9375 C 2.226562 -11.476562 2.859375 -11.894531 3.640625 -12.1875 C 4.421875 -12.488281 5.289062 -12.640625 6.25 -12.640625 Z M 5.765625 -2.34375 C 6.460938 -2.34375 7.050781 -2.53125 7.53125 -2.90625 C 8.019531 -3.28125 8.265625 -3.753906 8.265625 -4.328125 L 8.265625 -5.1875 C 8.265625 -5.28125 8.210938 -5.328125 8.109375 -5.328125 L 6.390625 -5.328125 C 5.660156 -5.328125 5.085938 -5.1875 4.671875 -4.90625 C 4.253906 -4.632812 4.046875 -4.25 4.046875 -3.75 C 4.046875 -3.3125 4.203125 -2.96875 4.515625 -2.71875 C 4.828125 -2.46875 5.242188 -2.34375 5.765625 -2.34375 Z M 5.765625 -2.34375 "/></g></g></g><g fill="#ffffff" fill-opacity="1"><g transform="translate(274.746169, 196.124987)"><g><path d="M 7.453125 -12.625 C 7.972656 -12.625 8.40625 -12.523438 8.75 -12.328125 C 8.9375 -12.234375 9.007812 -12.0625 8.96875 -11.8125 L 8.5 -9.28125 C 8.488281 -9.132812 8.445312 -9.046875 8.375 -9.015625 C 8.300781 -8.984375 8.179688 -8.984375 8.015625 -9.015625 C 7.753906 -9.078125 7.519531 -9.109375 7.3125 -9.109375 C 7.195312 -9.109375 7.007812 -9.09375 6.75 -9.0625 C 6.175781 -9.007812 5.6875 -8.789062 5.28125 -8.40625 C 4.875 -8.03125 4.671875 -7.53125 4.671875 -6.90625 L 4.671875 -0.40625 C 4.671875 -0.132812 4.535156 0 4.265625 0 L 1.671875 0 C 1.398438 0 1.265625 -0.132812 1.265625 -0.40625 L 1.265625 -12.03125 C 1.265625 -12.3125 1.398438 -12.453125 1.671875 -12.453125 L 4.265625 -12.453125 C 4.535156 -12.453125 4.671875 -12.3125 4.671875 -12.03125 L 4.671875 -11.28125 C 4.671875 -11.21875 4.6875 -11.175781 4.71875 -11.15625 C 4.75 -11.144531 4.789062 -11.164062 4.84375 -11.21875 C 5.488281 -12.15625 6.359375 -12.625 7.453125 -12.625 Z M 7.453125 -12.625 "/></g></g></g><g fill="#ffffff" fill-opacity="1"><g transform="translate(284.023447, 196.124987)"><g><path d="M 7.265625 -2.6875 C 8.328125 -2.738281 9.144531 -3.109375 9.71875 -3.796875 C 9.8125 -3.910156 9.914062 -3.96875 10.03125 -3.96875 C 10.125 -3.96875 10.210938 -3.925781 10.296875 -3.84375 L 11.671875 -2.515625 C 11.765625 -2.421875 11.8125 -2.328125 11.8125 -2.234375 C 11.8125 -2.117188 11.78125 -2.019531 11.71875 -1.9375 C 11.1875 -1.269531 10.503906 -0.75 9.671875 -0.375 C 8.835938 0 7.929688 0.1875 6.953125 0.1875 C 5.460938 0.1875 4.226562 -0.1875 3.25 -0.9375 C 2.28125 -1.695312 1.625 -2.738281 1.28125 -4.0625 C 1.09375 -4.78125 1 -5.535156 1 -6.328125 C 1 -7.253906 1.085938 -8.039062 1.265625 -8.6875 C 1.585938 -9.882812 2.234375 -10.847656 3.203125 -11.578125 C 4.179688 -12.304688 5.34375 -12.671875 6.6875 -12.671875 C 8.269531 -12.671875 9.523438 -12.203125 10.453125 -11.265625 C 11.378906 -10.328125 11.976562 -9.007812 12.25 -7.3125 C 12.320312 -6.78125 12.375 -6.191406 12.40625 -5.546875 C 12.40625 -5.273438 12.265625 -5.140625 11.984375 -5.140625 L 4.546875 -5.140625 C 4.453125 -5.140625 4.40625 -5.085938 4.40625 -4.984375 C 4.457031 -4.648438 4.515625 -4.398438 4.578125 -4.234375 C 4.734375 -3.734375 5.050781 -3.347656 5.53125 -3.078125 C 6.007812 -2.816406 6.585938 -2.6875 7.265625 -2.6875 Z M 6.640625 -9.71875 C 6.117188 -9.71875 5.679688 -9.59375 5.328125 -9.34375 C 4.984375 -9.09375 4.75 -8.738281 4.625 -8.28125 C 4.539062 -7.976562 4.492188 -7.773438 4.484375 -7.671875 C 4.460938 -7.578125 4.503906 -7.53125 4.609375 -7.53125 L 8.71875 -7.53125 C 8.800781 -7.53125 8.84375 -7.5625 8.84375 -7.625 C 8.84375 -7.800781 8.8125 -7.988281 8.75 -8.1875 C 8.601562 -8.65625 8.347656 -9.023438 7.984375 -9.296875 C 7.628906 -9.578125 7.179688 -9.71875 6.640625 -9.71875 Z M 6.640625 -9.71875 "/></g></g></g><g fill="#ffffff" fill-opacity="1"><g transform="translate(297.273244, 196.124987)"><g/></g></g><g fill="#ffffff" fill-opacity="1"><g transform="translate(302.117768, 196.124987)"><g><path d="M 10.484375 -16.546875 C 10.484375 -16.816406 10.625 -16.953125 10.90625 -16.953125 L 13.484375 -16.953125 C 13.765625 -16.953125 13.90625 -16.816406 13.90625 -16.546875 L 13.90625 -0.40625 C 13.90625 -0.132812 13.765625 0 13.484375 0 L 10.90625 0 C 10.625 0 10.484375 -0.132812 10.484375 -0.40625 L 10.484375 -6.953125 C 10.484375 -7.046875 10.4375 -7.09375 10.34375 -7.09375 L 5.03125 -7.09375 C 4.9375 -7.09375 4.890625 -7.046875 4.890625 -6.953125 L 4.890625 -0.40625 C 4.890625 -0.132812 4.753906 0 4.484375 0 L 1.890625 0 C 1.617188 0 1.484375 -0.132812 1.484375 -0.40625 L 1.484375 -16.546875 C 1.484375 -16.816406 1.617188 -16.953125 1.890625 -16.953125 L 4.484375 -16.953125 C 4.753906 -16.953125 4.890625 -16.816406 4.890625 -16.546875 L 4.890625 -10.171875 C 4.890625 -10.078125 4.9375 -10.03125 5.03125 -10.03125 L 10.34375 -10.03125 C 10.4375 -10.03125 10.484375 -10.078125 10.484375 -10.171875 Z M 10.484375 -16.546875 "/></g></g></g><g fill="#ffffff" fill-opacity="1"><g transform="translate(317.329621, 196.124987)"><g><path d="M 8.53125 -12.03125 C 8.53125 -12.3125 8.664062 -12.453125 8.9375 -12.453125 L 11.53125 -12.453125 C 11.800781 -12.453125 11.9375 -12.3125 11.9375 -12.03125 L 11.9375 -0.40625 C 11.9375 -0.132812 11.800781 0 11.53125 0 L 8.9375 0 C 8.664062 0 8.53125 -0.132812 8.53125 -0.40625 L 8.53125 -1.0625 C 8.53125 -1.125 8.507812 -1.160156 8.46875 -1.171875 C 8.425781 -1.179688 8.390625 -1.160156 8.359375 -1.109375 C 7.722656 -0.253906 6.726562 0.171875 5.375 0.171875 C 4.144531 0.171875 3.132812 -0.195312 2.34375 -0.9375 C 1.550781 -1.6875 1.15625 -2.726562 1.15625 -4.0625 L 1.15625 -12.03125 C 1.15625 -12.3125 1.296875 -12.453125 1.578125 -12.453125 L 4.140625 -12.453125 C 4.410156 -12.453125 4.546875 -12.3125 4.546875 -12.03125 L 4.546875 -4.921875 C 4.546875 -4.273438 4.71875 -3.75 5.0625 -3.34375 C 5.414062 -2.9375 5.898438 -2.734375 6.515625 -2.734375 C 7.066406 -2.734375 7.519531 -2.898438 7.875 -3.234375 C 8.226562 -3.566406 8.445312 -4 8.53125 -4.53125 Z M 8.53125 -12.03125 "/></g></g></g><g fill="#ffffff" fill-opacity="1"><g transform="translate(330.530975, 196.124987)"><g><path d="M 12.28125 -9.28125 C 12.582031 -8.46875 12.734375 -7.460938 12.734375 -6.265625 C 12.734375 -5.109375 12.597656 -4.140625 12.328125 -3.359375 C 12.003906 -2.296875 11.414062 -1.4375 10.5625 -0.78125 C 9.71875 -0.132812 8.75 0.1875 7.65625 0.1875 C 6.476562 0.1875 5.554688 -0.242188 4.890625 -1.109375 C 4.859375 -1.160156 4.820312 -1.179688 4.78125 -1.171875 C 4.738281 -1.160156 4.71875 -1.125 4.71875 -1.0625 L 4.71875 -0.40625 C 4.71875 -0.132812 4.582031 0 4.3125 0 L 1.71875 0 C 1.445312 0 1.3125 -0.132812 1.3125 -0.40625 L 1.3125 -16.546875 C 1.3125 -16.816406 1.445312 -16.953125 1.71875 -16.953125 L 4.3125 -16.953125 C 4.582031 -16.953125 4.71875 -16.816406 4.71875 -16.546875 L 4.71875 -11.546875 C 4.71875 -11.484375 4.738281 -11.441406 4.78125 -11.421875 C 4.820312 -11.410156 4.859375 -11.429688 4.890625 -11.484375 C 5.535156 -12.273438 6.457031 -12.671875 7.65625 -12.671875 C 8.75 -12.671875 9.703125 -12.363281 10.515625 -11.75 C 11.335938 -11.132812 11.925781 -10.3125 12.28125 -9.28125 Z M 8.640625 -3.828125 C 8.984375 -4.453125 9.15625 -5.242188 9.15625 -6.203125 C 9.15625 -7.253906 8.960938 -8.101562 8.578125 -8.75 C 8.191406 -9.351562 7.625 -9.65625 6.875 -9.65625 C 6.195312 -9.65625 5.65625 -9.34375 5.25 -8.71875 C 4.914062 -8.125 4.75 -7.289062 4.75 -6.21875 C 4.75 -5.21875 4.910156 -4.421875 5.234375 -3.828125 C 5.617188 -3.128906 6.164062 -2.78125 6.875 -2.78125 C 7.664062 -2.78125 8.253906 -3.128906 8.640625 -3.828125 Z M 8.640625 -3.828125 "/></g></g></g></svg>