<svg xmlns="http://www.w3.org/2000/svg" xmlns:xlink="http://www.w3.org/1999/xlink" width="500" zoomAndPan="magnify" viewBox="0 0 375 374.999991" height="500" preserveAspectRatio="xMidYMid meet" version="1.0"><defs><g/><clipPath id="fb3fa62547"><path d="M 100.144531 100.144531 L 274.855469 100.144531 L 274.855469 274.855469 L 100.144531 274.855469 Z M 100.144531 100.144531 " clip-rule="nonzero"/></clipPath><clipPath id="5b45e92483"><path d="M 187.5 100.144531 C 139.253906 100.144531 100.144531 139.253906 100.144531 187.5 C 100.144531 235.746094 139.253906 274.855469 187.5 274.855469 C 235.746094 274.855469 274.855469 235.746094 274.855469 187.5 C 274.855469 139.253906 235.746094 100.144531 187.5 100.144531 Z M 187.5 100.144531 " clip-rule="nonzero"/></clipPath><clipPath id="4d982dd64f"><path d="M 29.816406 37.5 L 337.5 37.5 L 337.5 345.183594 L 29.816406 345.183594 Z M 29.816406 37.5 " clip-rule="nonzero"/></clipPath><clipPath id="bb9f82d42f"><path d="M 183.660156 345.183594 C 142.585938 345.183594 103.910156 329.195312 74.886719 300.113281 C 45.804688 271.089844 29.816406 232.414062 29.816406 191.339844 C 29.816406 150.269531 45.804688 111.59375 74.886719 82.570312 C 103.910156 53.488281 142.585938 37.5 183.660156 37.5 C 224.730469 37.5 263.40625 53.488281 292.429688 82.570312 C 321.511719 111.652344 337.5 150.269531 337.5 191.339844 C 337.5 232.414062 321.511719 271.089844 292.429688 300.113281 C 263.40625 329.195312 224.730469 345.183594 183.660156 345.183594 Z M 183.660156 46.722656 C 145.042969 46.722656 108.707031 61.789062 81.40625 89.089844 C 54.105469 116.386719 39.039062 152.726562 39.039062 191.339844 C 39.039062 229.957031 54.105469 266.292969 81.40625 293.59375 C 108.707031 320.894531 145.042969 335.960938 183.660156 335.960938 C 222.273438 335.960938 258.613281 320.894531 285.910156 293.59375 C 313.210938 266.292969 328.277344 229.957031 328.277344 191.339844 C 328.277344 152.726562 313.210938 116.386719 285.910156 89.089844 C 258.613281 61.789062 222.273438 46.722656 183.660156 46.722656 Z M 183.660156 46.722656 " clip-rule="nonzero"/></clipPath><clipPath id="6910adbf08"><path d="M 206.285156 175.203125 L 228.574219 175.203125 L 228.574219 197.84375 L 206.285156 197.84375 Z M 206.285156 175.203125 " clip-rule="nonzero"/></clipPath><clipPath id="1e02e53430"><path d="M 169.035156 186.8125 L 207.515625 186.8125 L 207.515625 218.972656 L 169.035156 218.972656 Z M 169.035156 186.8125 " clip-rule="nonzero"/></clipPath><clipPath id="b1f06b6f8c"><path d="M 51.03125 58.714844 L 316.285156 58.714844 L 316.285156 323.96875 L 51.03125 323.96875 Z M 51.03125 58.714844 " clip-rule="nonzero"/></clipPath><clipPath id="1879a97f6b"><path d="M 183.660156 58.714844 C 110.410156 58.714844 51.03125 118.09375 51.03125 191.339844 C 51.03125 264.589844 110.410156 323.96875 183.660156 323.96875 C 256.90625 323.96875 316.285156 264.589844 316.285156 191.339844 C 316.285156 118.09375 256.90625 58.714844 183.660156 58.714844 Z M 183.660156 58.714844 " clip-rule="nonzero"/></clipPath><clipPath id="1cdef4d674"><path d="M 217.875 177 L 253.835938 177 L 253.835938 213.59375 L 217.875 213.59375 Z M 217.875 177 " clip-rule="nonzero"/></clipPath><clipPath id="fa6d9f2d88"><path d="M 157.644531 195.753906 L 219.863281 195.753906 L 219.863281 247.8125 L 157.644531 247.8125 Z M 157.644531 195.753906 " clip-rule="nonzero"/></clipPath></defs><g clip-path="url(#fb3fa62547)"><g clip-path="url(#5b45e92483)"><path fill="#365b6d" d="M 100.144531 100.144531 L 274.855469 100.144531 L 274.855469 274.855469 L 100.144531 274.855469 Z M 100.144531 100.144531 " fill-opacity="1" fill-rule="nonzero"/></g></g><g clip-path="url(#4d982dd64f)"><g clip-path="url(#bb9f82d42f)"><path fill="#41c1ba" d="M 29.816406 37.5 L 337.5 37.5 L 337.5 345.183594 L 29.816406 345.183594 Z M 29.816406 37.5 " fill-opacity="1" fill-rule="nonzero"/></g></g><g fill="#f7f7f7" fill-opacity="1"><g transform="translate(147.049087, 167.767713)"><g><path d="M 3.5 -5.125 C 3.320312 -4.863281 3.097656 -4.789062 2.828125 -4.90625 L -15.953125 -11.59375 C -16.003906 -11.59375 -16.050781 -11.609375 -16.09375 -11.640625 C -16.3125 -11.796875 -16.332031 -12.003906 -16.15625 -12.265625 L -14.296875 -14.984375 C -14.128906 -15.222656 -13.910156 -15.285156 -13.640625 -15.171875 L -2.578125 -10.890625 C -2.503906 -10.867188 -2.445312 -10.878906 -2.40625 -10.921875 C -2.375 -10.972656 -2.382812 -11.023438 -2.4375 -11.078125 L -10.5 -19.75 C -10.707031 -19.96875 -10.726562 -20.195312 -10.5625 -20.4375 L -8.71875 -23.125 C -8.539062 -23.382812 -8.316406 -23.453125 -8.046875 -23.328125 L 3.09375 -19.15625 C 3.164062 -19.132812 3.210938 -19.144531 3.234375 -19.1875 C 3.265625 -19.226562 3.253906 -19.269531 3.203125 -19.3125 L -4.859375 -28 C -5.066406 -28.207031 -5.085938 -28.429688 -4.921875 -28.671875 L -3.140625 -31.28125 C -3.035156 -31.425781 -2.921875 -31.5 -2.796875 -31.5 C -2.679688 -31.5 -2.566406 -31.429688 -2.453125 -31.296875 L 10.8125 -16.578125 C 11.019531 -16.359375 11.035156 -16.117188 10.859375 -15.859375 L 9.0625 -13.234375 C 8.882812 -12.984375 8.660156 -12.914062 8.390625 -13.03125 L -3.390625 -17.59375 C -3.472656 -17.613281 -3.53125 -17.597656 -3.5625 -17.546875 C -3.59375 -17.503906 -3.578125 -17.457031 -3.515625 -17.40625 L 5.109375 -8.234375 C 5.304688 -8.015625 5.328125 -7.785156 5.171875 -7.546875 Z M 3.5 -5.125 "/></g></g></g><g fill="#f7f7f7" fill-opacity="1"><g transform="translate(158.863082, 150.655412)"><g><path d="M -0.46875 -17.71875 C 0.820312 -18.5625 2.117188 -18.84375 3.421875 -18.5625 C 4.734375 -18.289062 5.832031 -17.472656 6.71875 -16.109375 L 11.828125 -8.28125 C 12.003906 -8 11.953125 -7.769531 11.671875 -7.59375 L 9.078125 -5.90625 C 8.804688 -5.726562 8.582031 -5.78125 8.40625 -6.0625 L 3.765625 -13.1875 C 3.347656 -13.832031 2.828125 -14.238281 2.203125 -14.40625 C 1.578125 -14.582031 0.960938 -14.476562 0.359375 -14.09375 C -0.234375 -13.707031 -0.582031 -13.1875 -0.6875 -12.53125 C -0.789062 -11.882812 -0.632812 -11.238281 -0.21875 -10.59375 L 4.421875 -3.46875 C 4.597656 -3.1875 4.546875 -2.957031 4.265625 -2.78125 L 1.671875 -1.09375 C 1.390625 -0.90625 1.160156 -0.953125 0.984375 -1.234375 L -9.53125 -17.390625 C -9.707031 -17.660156 -9.65625 -17.890625 -9.375 -18.078125 L -6.78125 -19.765625 C -6.5 -19.941406 -6.269531 -19.894531 -6.09375 -19.625 L -2.71875 -14.421875 C -2.675781 -14.367188 -2.632812 -14.34375 -2.59375 -14.34375 C -2.550781 -14.34375 -2.53125 -14.375 -2.53125 -14.4375 C -2.445312 -15.789062 -1.757812 -16.882812 -0.46875 -17.71875 Z M -0.46875 -17.71875 "/></g></g></g><g fill="#f7f7f7" fill-opacity="1"><g transform="translate(170.151116, 143.535769)"><g><path d="M -2.078125 -16.59375 C -2.765625 -16.34375 -3.398438 -16.347656 -3.984375 -16.609375 C -4.578125 -16.878906 -5 -17.351562 -5.25 -18.03125 C -5.488281 -18.695312 -5.46875 -19.320312 -5.1875 -19.90625 C -4.914062 -20.5 -4.4375 -20.921875 -3.75 -21.171875 C -3.039062 -21.429688 -2.394531 -21.425781 -1.8125 -21.15625 C -1.238281 -20.894531 -0.828125 -20.425781 -0.578125 -19.75 C -0.316406 -19.050781 -0.320312 -18.414062 -0.59375 -17.84375 C -0.875 -17.269531 -1.367188 -16.851562 -2.078125 -16.59375 Z M 2.09375 -0.765625 C 1.78125 -0.648438 1.566406 -0.75 1.453125 -1.0625 L -3.328125 -14.109375 C -3.441406 -14.410156 -3.34375 -14.617188 -3.03125 -14.734375 L -0.125 -15.796875 C 0.175781 -15.910156 0.382812 -15.816406 0.5 -15.515625 L 5.28125 -2.46875 C 5.394531 -2.15625 5.300781 -1.941406 5 -1.828125 Z M 2.09375 -0.765625 "/></g></g></g><g fill="#f7f7f7" fill-opacity="1"><g transform="translate(174.871633, 141.144722)"><g><path d="M 7.390625 -0.828125 C 6.117188 -0.648438 4.976562 -0.671875 3.96875 -0.890625 C 2.957031 -1.117188 2.148438 -1.519531 1.546875 -2.09375 C 0.941406 -2.675781 0.582031 -3.378906 0.46875 -4.203125 L 0.4375 -4.34375 C 0.394531 -4.675781 0.535156 -4.867188 0.859375 -4.921875 L 3.75 -5.3125 C 4.082031 -5.363281 4.257812 -5.332031 4.28125 -5.21875 L 4.296875 -5.015625 C 4.359375 -4.597656 4.640625 -4.269531 5.140625 -4.03125 C 5.640625 -3.800781 6.238281 -3.734375 6.9375 -3.828125 C 7.59375 -3.921875 8.101562 -4.117188 8.46875 -4.421875 C 8.832031 -4.734375 8.988281 -5.085938 8.9375 -5.484375 C 8.882812 -5.828125 8.675781 -6.0625 8.3125 -6.1875 C 7.945312 -6.3125 7.359375 -6.414062 6.546875 -6.5 C 5.578125 -6.613281 4.847656 -6.738281 4.359375 -6.875 C 3.066406 -7.113281 2.007812 -7.488281 1.1875 -8 C 0.375 -8.507812 -0.109375 -9.335938 -0.265625 -10.484375 C -0.460938 -11.890625 -0.0664062 -13.085938 0.921875 -14.078125 C 1.921875 -15.066406 3.320312 -15.6875 5.125 -15.9375 C 6.34375 -16.113281 7.441406 -16.066406 8.421875 -15.796875 C 9.398438 -15.523438 10.191406 -15.070312 10.796875 -14.4375 C 11.410156 -13.8125 11.78125 -13.050781 11.90625 -12.15625 C 11.914062 -12.0625 11.878906 -11.972656 11.796875 -11.890625 C 11.722656 -11.816406 11.609375 -11.769531 11.453125 -11.75 L 8.65625 -11.359375 C 8.320312 -11.304688 8.148438 -11.335938 8.140625 -11.453125 L 8.109375 -11.625 C 8.054688 -12.039062 7.800781 -12.363281 7.34375 -12.59375 C 6.882812 -12.832031 6.300781 -12.898438 5.59375 -12.796875 C 4.957031 -12.710938 4.445312 -12.523438 4.0625 -12.234375 C 3.6875 -11.941406 3.523438 -11.597656 3.578125 -11.203125 C 3.640625 -10.816406 3.878906 -10.550781 4.296875 -10.40625 C 4.710938 -10.269531 5.378906 -10.160156 6.296875 -10.078125 C 6.878906 -10.054688 7.4375 -9.992188 7.96875 -9.890625 C 9.40625 -9.671875 10.554688 -9.300781 11.421875 -8.78125 C 12.296875 -8.257812 12.820312 -7.394531 13 -6.1875 C 13.195312 -4.78125 12.785156 -3.597656 11.765625 -2.640625 C 10.753906 -1.691406 9.296875 -1.085938 7.390625 -0.828125 Z M 7.390625 -0.828125 "/></g></g></g><g fill="#f7f7f7" fill-opacity="1"><g transform="translate(186.189895, 139.052797)"><g><path d="M 1.984375 0.296875 C 1.648438 0.242188 1.507812 0.0507812 1.5625 -0.28125 L 4.453125 -19.34375 C 4.503906 -19.65625 4.695312 -19.785156 5.03125 -19.734375 L 8.078125 -19.265625 C 8.410156 -19.210938 8.550781 -19.03125 8.5 -18.71875 L 7.0625 -9.265625 C 7.050781 -9.191406 7.066406 -9.144531 7.109375 -9.125 C 7.160156 -9.113281 7.210938 -9.128906 7.265625 -9.171875 L 11.71875 -12.96875 C 11.945312 -13.125 12.164062 -13.1875 12.375 -13.15625 L 15.828125 -12.640625 C 15.960938 -12.617188 16.066406 -12.578125 16.140625 -12.515625 C 16.210938 -12.460938 16.238281 -12.390625 16.21875 -12.296875 C 16.207031 -12.191406 16.15625 -12.097656 16.0625 -12.015625 L 11.859375 -8.125 C 11.796875 -8.082031 11.773438 -8.003906 11.796875 -7.890625 L 14.65625 1.640625 L 14.671875 1.875 C 14.640625 2.101562 14.484375 2.195312 14.203125 2.15625 L 10.96875 1.671875 C 10.695312 1.628906 10.523438 1.472656 10.453125 1.203125 L 8.65625 -5.765625 C 8.613281 -5.898438 8.546875 -5.921875 8.453125 -5.828125 L 6.328125 -3.84375 C 6.253906 -3.769531 6.21875 -3.707031 6.21875 -3.65625 L 5.609375 0.34375 C 5.554688 0.675781 5.363281 0.816406 5.03125 0.765625 Z M 1.984375 0.296875 "/></g></g></g><g fill="#f7f7f7" fill-opacity="1"><g transform="translate(198.374019, 140.381403)"><g><path d="M 9.21875 0.90625 C 10.382812 1.40625 11.453125 1.429688 12.421875 0.984375 C 12.585938 0.910156 12.734375 0.90625 12.859375 0.96875 C 12.960938 1.019531 13.039062 1.109375 13.09375 1.234375 L 13.859375 3.375 C 13.921875 3.53125 13.921875 3.664062 13.859375 3.78125 C 13.804688 3.894531 13.726562 3.984375 13.625 4.046875 C 12.695312 4.472656 11.6875 4.671875 10.59375 4.640625 C 9.5 4.617188 8.425781 4.347656 7.375 3.828125 C 5.769531 3.054688 4.640625 2.007812 3.984375 0.6875 C 3.328125 -0.632812 3.164062 -2.097656 3.5 -3.703125 C 3.664062 -4.566406 3.953125 -5.425781 4.359375 -6.28125 C 4.847656 -7.289062 5.359375 -8.09375 5.890625 -8.6875 C 6.859375 -9.800781 8.054688 -10.492188 9.484375 -10.765625 C 10.921875 -11.046875 12.359375 -10.835938 13.796875 -10.140625 C 15.492188 -9.304688 16.597656 -8.140625 17.109375 -6.640625 C 17.617188 -5.148438 17.585938 -3.425781 17.015625 -1.46875 C 16.796875 -0.851562 16.535156 -0.1875 16.234375 0.53125 C 16.097656 0.820312 15.878906 0.894531 15.578125 0.75 L 7.578125 -3.140625 C 7.472656 -3.191406 7.394531 -3.171875 7.34375 -3.078125 C 7.226562 -2.679688 7.160156 -2.375 7.140625 -2.15625 C 7.054688 -1.539062 7.195312 -0.960938 7.5625 -0.421875 C 7.9375 0.109375 8.488281 0.550781 9.21875 0.90625 Z M 12.21875 -6.96875 C 11.65625 -7.238281 11.125 -7.332031 10.625 -7.25 C 10.125 -7.164062 9.679688 -6.910156 9.296875 -6.484375 C 9.054688 -6.203125 8.898438 -6.007812 8.828125 -5.90625 C 8.765625 -5.8125 8.785156 -5.738281 8.890625 -5.6875 L 13.3125 -3.546875 C 13.394531 -3.503906 13.453125 -3.519531 13.484375 -3.59375 C 13.578125 -3.78125 13.644531 -3.992188 13.6875 -4.234375 C 13.757812 -4.816406 13.679688 -5.347656 13.453125 -5.828125 C 13.222656 -6.304688 12.8125 -6.6875 12.21875 -6.96875 Z M 12.21875 -6.96875 "/></g></g></g><g fill="#f7f7f7" fill-opacity="1"><g transform="translate(210.104423, 146.01302)"><g><path d="M 16.59375 -5.59375 C 17.0625 -5.1875 17.378906 -4.765625 17.546875 -4.328125 C 17.640625 -4.097656 17.566406 -3.882812 17.328125 -3.6875 L 14.9375 -1.765625 C 14.8125 -1.640625 14.703125 -1.585938 14.609375 -1.609375 C 14.523438 -1.640625 14.414062 -1.738281 14.28125 -1.90625 C 14.101562 -2.164062 13.921875 -2.375 13.734375 -2.53125 C 13.628906 -2.625 13.445312 -2.753906 13.1875 -2.921875 C 12.625 -3.328125 12.007812 -3.515625 11.34375 -3.484375 C 10.6875 -3.453125 10.113281 -3.15625 9.625 -2.59375 L 4.5625 3.28125 C 4.34375 3.53125 4.109375 3.546875 3.859375 3.328125 L 1.515625 1.3125 C 1.265625 1.09375 1.25 0.859375 1.46875 0.609375 L 10.546875 -9.90625 C 10.753906 -10.15625 10.984375 -10.171875 11.234375 -9.953125 L 13.578125 -7.9375 C 13.828125 -7.71875 13.847656 -7.484375 13.640625 -7.234375 L 13.046875 -6.546875 C 12.992188 -6.492188 12.972656 -6.445312 12.984375 -6.40625 C 13.003906 -6.375 13.054688 -6.363281 13.140625 -6.375 C 14.453125 -6.707031 15.601562 -6.445312 16.59375 -5.59375 Z M 16.59375 -5.59375 "/></g></g></g><g fill="#f7f7f7" fill-opacity="1"><g transform="translate(216.85986, 151.124519)"><g><path d="M 4.09375 6.203125 C 3.351562 5.140625 2.859375 4.109375 2.609375 3.109375 C 2.359375 2.117188 2.347656 1.222656 2.578125 0.421875 C 2.816406 -0.378906 3.273438 -1.019531 3.953125 -1.5 L 4.078125 -1.578125 C 4.347656 -1.773438 4.578125 -1.742188 4.765625 -1.484375 L 6.453125 0.90625 C 6.640625 1.1875 6.6875 1.363281 6.59375 1.4375 L 6.421875 1.546875 C 6.078125 1.796875 5.914062 2.191406 5.9375 2.734375 C 5.957031 3.273438 6.171875 3.835938 6.578125 4.421875 C 6.953125 4.960938 7.359375 5.328125 7.796875 5.515625 C 8.234375 5.703125 8.617188 5.679688 8.953125 5.453125 C 9.234375 5.253906 9.34375 4.960938 9.28125 4.578125 C 9.226562 4.203125 9.0625 3.632812 8.78125 2.875 C 8.425781 1.957031 8.203125 1.25 8.109375 0.75 C 7.734375 -0.507812 7.585938 -1.617188 7.671875 -2.578125 C 7.753906 -3.535156 8.269531 -4.347656 9.21875 -5.015625 C 10.382812 -5.835938 11.628906 -6.03125 12.953125 -5.59375 C 14.285156 -5.15625 15.472656 -4.191406 16.515625 -2.703125 C 17.222656 -1.691406 17.679688 -0.691406 17.890625 0.296875 C 18.109375 1.296875 18.070312 2.207031 17.78125 3.03125 C 17.5 3.863281 16.984375 4.539062 16.234375 5.0625 C 16.160156 5.113281 16.066406 5.125 15.953125 5.09375 C 15.847656 5.0625 15.753906 4.984375 15.671875 4.859375 L 14.046875 2.53125 C 13.847656 2.257812 13.796875 2.085938 13.890625 2.015625 L 14.03125 1.921875 C 14.382812 1.679688 14.5625 1.300781 14.5625 0.78125 C 14.5625 0.269531 14.351562 -0.28125 13.9375 -0.875 C 13.570312 -1.394531 13.171875 -1.753906 12.734375 -1.953125 C 12.304688 -2.160156 11.925781 -2.144531 11.59375 -1.90625 C 11.28125 -1.6875 11.15625 -1.359375 11.21875 -0.921875 C 11.289062 -0.492188 11.503906 0.148438 11.859375 1.015625 C 12.085938 1.546875 12.28125 2.070312 12.4375 2.59375 C 12.894531 3.957031 13.085938 5.144531 13.015625 6.15625 C 12.953125 7.175781 12.425781 8.035156 11.4375 8.734375 C 10.257812 9.554688 9.015625 9.726562 7.703125 9.25 C 6.398438 8.78125 5.195312 7.765625 4.09375 6.203125 Z M 4.09375 6.203125 "/></g></g></g><g fill="#f7f7f7" fill-opacity="1"><g transform="translate(223.789691, 161.387789)"><g/></g></g><path fill="#41c1ba" d="M 174.90625 159.5 C 189.523438 157.449219 190.707031 183.628906 177.179688 182.996094 C 166.300781 182.488281 162.199219 161.28125 174.90625 159.5 " fill-opacity="1" fill-rule="evenodd"/><path fill="#41c1ba" d="M 198.402344 159.5 C 214.503906 155.984375 212.625 184.589844 197.644531 182.996094 C 185.789062 181.738281 188.097656 161.746094 198.402344 159.5 " fill-opacity="1" fill-rule="evenodd"/><path fill="#41c1ba" d="M 169.597656 190.957031 C 163.875 203.453125 146.425781 194.625 148.375 182.238281 C 150.429688 169.191406 173.761719 175.84375 169.597656 190.957031 " fill-opacity="1" fill-rule="evenodd"/><g clip-path="url(#6910adbf08)"><path fill="#41c1ba" d="M 216.972656 175.417969 C 220.742188 174.6875 225.449219 176.027344 227.207031 179.207031 C 232.054688 187.980469 223.117188 198.703125 214.320312 197.777344 C 209.488281 197.269531 206.699219 193.15625 206.363281 189.441406 C 205.644531 181.480469 211.324219 176.511719 216.972656 175.417969 " fill-opacity="1" fill-rule="evenodd"/></g><g clip-path="url(#1e02e53430)"><path fill="#41c1ba" d="M 184.378906 187.164062 C 197.660156 184.875 209.851562 194.445312 207.121094 210.664062 C 206.554688 214.019531 203.664062 218.765625 199.539062 219 C 196.210938 219.191406 192.316406 215.949219 188.171875 215.96875 C 183.023438 215.992188 178.964844 220.558594 174.144531 218.242188 C 170.097656 216.296875 168.464844 208.429688 169.21875 202.703125 C 170.308594 194.453125 176.378906 188.542969 184.378906 187.164062 " fill-opacity="1" fill-rule="evenodd"/></g><g clip-path="url(#b1f06b6f8c)"><g clip-path="url(#1879a97f6b)"><path fill="#016e8f" d="M 51.03125 58.714844 L 316.285156 58.714844 L 316.285156 323.96875 L 51.03125 323.96875 Z M 51.03125 58.714844 " fill-opacity="1" fill-rule="nonzero"/></g></g><g fill="#f7f7f7" fill-opacity="1"><g transform="translate(89.731807, 258.145425)"><g><path d="M 5.609375 4.453125 C 5.390625 4.273438 5.335938 4.054688 5.453125 3.796875 L 12.65625 -13.9375 C 12.664062 -14 12.695312 -14.0625 12.75 -14.125 C 12.8125 -14.207031 12.898438 -14.242188 13.015625 -14.234375 C 13.140625 -14.234375 13.253906 -14.195312 13.359375 -14.125 L 14.765625 -13 C 14.984375 -12.832031 15.03125 -12.613281 14.90625 -12.34375 L 8.765625 1.828125 C 8.734375 1.890625 8.738281 1.9375 8.78125 1.96875 C 8.820312 2.007812 8.878906 2.015625 8.953125 1.984375 L 21.421875 -7.1875 C 21.660156 -7.351562 21.890625 -7.351562 22.109375 -7.1875 L 23.421875 -6.125 C 23.648438 -5.957031 23.703125 -5.738281 23.578125 -5.46875 L 17.578125 8.828125 C 17.546875 8.890625 17.550781 8.9375 17.59375 8.96875 C 17.632812 9 17.691406 9 17.765625 8.96875 L 30.234375 -0.1875 C 30.472656 -0.363281 30.707031 -0.359375 30.9375 -0.171875 L 32.3125 0.953125 C 32.445312 1.066406 32.507812 1.1875 32.5 1.3125 C 32.5 1.445312 32.425781 1.566406 32.28125 1.671875 L 16.625 12.65625 C 16.394531 12.832031 16.171875 12.832031 15.953125 12.65625 L 14.484375 11.484375 C 14.265625 11.304688 14.210938 11.085938 14.328125 10.828125 L 19.875 -2.8125 C 19.894531 -2.882812 19.882812 -2.9375 19.84375 -2.96875 C 19.800781 -3 19.75 -2.992188 19.6875 -2.953125 L 7.796875 5.640625 C 7.554688 5.804688 7.320312 5.800781 7.09375 5.625 Z M 5.609375 4.453125 "/></g></g></g><g fill="#f7f7f7" fill-opacity="1"><g transform="translate(114.074206, 276.648429)"><g><path d="M 10.34375 3.078125 C 11.382812 3.585938 12.382812 3.8125 13.34375 3.75 C 14.3125 3.6875 15.203125 3.363281 16.015625 2.78125 C 16.117188 2.675781 16.238281 2.628906 16.375 2.640625 C 16.507812 2.660156 16.613281 2.738281 16.6875 2.875 L 17.40625 3.921875 C 17.59375 4.210938 17.5625 4.441406 17.3125 4.609375 C 16.164062 5.453125 14.878906 5.925781 13.453125 6.03125 C 12.023438 6.144531 10.566406 5.816406 9.078125 5.046875 C 7.484375 4.222656 6.332031 3.15625 5.625 1.84375 C 4.925781 0.53125 4.691406 -0.914062 4.921875 -2.5 C 5.066406 -3.851562 5.65625 -5.523438 6.6875 -7.515625 C 7.195312 -8.492188 7.617188 -9.257812 7.953125 -9.8125 C 8.285156 -10.375 8.648438 -10.875 9.046875 -11.3125 C 10.191406 -12.582031 11.578125 -13.359375 13.203125 -13.640625 C 14.828125 -13.921875 16.46875 -13.628906 18.125 -12.765625 C 20.09375 -11.742188 21.367188 -10.429688 21.953125 -8.828125 C 22.546875 -7.234375 22.523438 -5.425781 21.890625 -3.40625 C 21.640625 -2.613281 21.117188 -1.453125 20.328125 0.078125 C 20.171875 0.378906 19.953125 0.457031 19.671875 0.3125 L 8.796875 -5.3125 C 8.679688 -5.375 8.59375 -5.351562 8.53125 -5.25 C 7.945312 -4.101562 7.582031 -3.238281 7.4375 -2.65625 C 7.164062 -1.507812 7.273438 -0.425781 7.765625 0.59375 C 8.265625 1.613281 9.125 2.441406 10.34375 3.078125 Z M 17.03125 -10.65625 C 15.894531 -11.25 14.8125 -11.441406 13.78125 -11.234375 C 12.757812 -11.035156 11.882812 -10.507812 11.15625 -9.65625 C 10.789062 -9.269531 10.300781 -8.546875 9.6875 -7.484375 C 9.632812 -7.367188 9.664062 -7.28125 9.78125 -7.21875 L 18.5 -2.703125 C 18.625 -2.640625 18.710938 -2.664062 18.765625 -2.78125 C 19.234375 -3.800781 19.539062 -4.5625 19.6875 -5.0625 C 19.957031 -6.21875 19.867188 -7.289062 19.421875 -8.28125 C 18.984375 -9.269531 18.1875 -10.0625 17.03125 -10.65625 Z M 17.03125 -10.65625 "/></g></g></g><g fill="#f7f7f7" fill-opacity="1"><g transform="translate(134.083951, 286.492464)"><g><path d="M 3.328125 1.25 C 3.015625 1.132812 2.914062 0.921875 3.03125 0.609375 L 12.09375 -23.53125 C 12.21875 -23.84375 12.4375 -23.941406 12.75 -23.828125 L 14.359375 -23.21875 C 14.671875 -23.101562 14.765625 -22.890625 14.640625 -22.578125 L 5.578125 1.5625 C 5.460938 1.875 5.25 1.972656 4.9375 1.859375 Z M 3.328125 1.25 "/></g></g></g><g fill="#f7f7f7" fill-opacity="1"><g transform="translate(143.773514, 290.176123)"><g><path d="M 16.796875 -20.6875 C 15.441406 -21.0625 14.4375 -21.015625 13.78125 -20.546875 C 13.125 -20.078125 12.597656 -19.125 12.203125 -17.6875 L 12.015625 -16.96875 C 11.972656 -16.851562 12.007812 -16.78125 12.125 -16.75 L 16.125 -15.65625 C 16.445312 -15.5625 16.566406 -15.351562 16.484375 -15.03125 L 16.09375 -13.59375 C 16 -13.269531 15.789062 -13.15625 15.46875 -13.25 L 11.46875 -14.34375 C 11.351562 -14.375 11.28125 -14.332031 11.25 -14.21875 L 6.953125 1.390625 C 6.867188 1.710938 6.664062 1.832031 6.34375 1.75 L 4.71875 1.296875 C 4.40625 1.210938 4.289062 1.007812 4.375 0.6875 L 8.671875 -14.921875 C 8.703125 -15.035156 8.648438 -15.113281 8.515625 -15.15625 L 6.203125 -15.796875 C 5.878906 -15.878906 5.765625 -16.082031 5.859375 -16.40625 L 6.25 -17.84375 C 6.332031 -18.164062 6.535156 -18.285156 6.859375 -18.203125 L 9.171875 -17.5625 C 9.304688 -17.519531 9.394531 -17.554688 9.4375 -17.671875 L 9.671875 -18.53125 C 10.085938 -20.0625 10.582031 -21.210938 11.15625 -21.984375 C 11.738281 -22.765625 12.507812 -23.238281 13.46875 -23.40625 C 14.425781 -23.582031 15.671875 -23.460938 17.203125 -23.046875 L 18.171875 -22.78125 C 18.492188 -22.695312 18.613281 -22.492188 18.53125 -22.171875 L 18.15625 -20.84375 C 18.070312 -20.519531 17.867188 -20.398438 17.546875 -20.484375 Z M 16.796875 -20.6875 "/></g></g></g><g fill="#f7f7f7" fill-opacity="1"><g transform="translate(158.946949, 294.406507)"><g><path d="M 12.296875 -18.1875 C 14.578125 -17.882812 16.265625 -17.0625 17.359375 -15.71875 C 18.453125 -14.382812 18.867188 -12.753906 18.609375 -10.828125 L 16.890625 1.78125 C 16.847656 2.113281 16.664062 2.257812 16.34375 2.21875 L 14.625 1.984375 C 14.300781 1.929688 14.160156 1.738281 14.203125 1.40625 L 14.390625 0.046875 C 14.398438 -0.0234375 14.382812 -0.078125 14.34375 -0.109375 C 14.300781 -0.140625 14.25 -0.117188 14.1875 -0.046875 C 13.394531 0.585938 12.457031 1.023438 11.375 1.265625 C 10.300781 1.515625 9.160156 1.554688 7.953125 1.390625 C 6.179688 1.148438 4.757812 0.492188 3.6875 -0.578125 C 2.613281 -1.660156 2.203125 -3.132812 2.453125 -5 C 2.710938 -6.894531 3.609375 -8.296875 5.140625 -9.203125 C 6.671875 -10.117188 8.65625 -10.410156 11.09375 -10.078125 L 15.5 -9.484375 C 15.625 -9.472656 15.691406 -9.53125 15.703125 -9.65625 L 15.890625 -11.0625 C 16.066406 -12.34375 15.84375 -13.40625 15.21875 -14.25 C 14.601562 -15.09375 13.535156 -15.617188 12.015625 -15.828125 C 10.828125 -15.984375 9.828125 -15.882812 9.015625 -15.53125 C 8.203125 -15.1875 7.632812 -14.625 7.3125 -13.84375 C 7.195312 -13.550781 6.992188 -13.453125 6.703125 -13.546875 L 4.875 -14.03125 C 4.550781 -14.125 4.414062 -14.28125 4.46875 -14.5 C 4.90625 -15.84375 5.832031 -16.859375 7.25 -17.546875 C 8.675781 -18.242188 10.359375 -18.457031 12.296875 -18.1875 Z M 8.875 -0.84375 C 10.363281 -0.644531 11.707031 -0.84375 12.90625 -1.4375 C 14.113281 -2.039062 14.800781 -2.972656 14.96875 -4.234375 L 15.359375 -7.15625 C 15.378906 -7.289062 15.328125 -7.363281 15.203125 -7.375 L 11.21875 -7.921875 C 9.550781 -8.140625 8.164062 -7.972656 7.0625 -7.421875 C 5.957031 -6.878906 5.328125 -6.003906 5.171875 -4.796875 C 5.015625 -3.679688 5.285156 -2.785156 5.984375 -2.109375 C 6.691406 -1.429688 7.65625 -1.007812 8.875 -0.84375 Z M 8.875 -0.84375 "/></g></g></g><g fill="#f7f7f7" fill-opacity="1"><g transform="translate(180.468931, 296.982342)"><g><path d="M 10.859375 -19.546875 C 11.691406 -19.546875 12.390625 -19.394531 12.953125 -19.09375 C 13.210938 -18.988281 13.300781 -18.785156 13.21875 -18.484375 L 12.859375 -16.796875 C 12.785156 -16.492188 12.582031 -16.394531 12.25 -16.5 C 11.757812 -16.644531 11.132812 -16.707031 10.375 -16.6875 C 9.039062 -16.632812 7.941406 -16.140625 7.078125 -15.203125 C 6.210938 -14.273438 5.78125 -13.097656 5.78125 -11.671875 L 5.78125 -0.5 C 5.78125 -0.164062 5.613281 0 5.28125 0 L 3.5625 0 C 3.226562 0 3.0625 -0.164062 3.0625 -0.5 L 3.046875 -18.859375 C 3.046875 -19.191406 3.210938 -19.359375 3.546875 -19.359375 L 5.265625 -19.359375 C 5.597656 -19.359375 5.765625 -19.191406 5.765625 -18.859375 L 5.78125 -16.71875 C 5.78125 -16.613281 5.796875 -16.554688 5.828125 -16.546875 C 5.867188 -16.535156 5.914062 -16.566406 5.96875 -16.640625 C 6.488281 -17.554688 7.164062 -18.269531 8 -18.78125 C 8.832031 -19.289062 9.785156 -19.546875 10.859375 -19.546875 Z M 10.859375 -19.546875 "/></g></g></g><g fill="#f7f7f7" fill-opacity="1"><g transform="translate(196.600199, 297.047826)"><g><path d="M 10.203125 -3.484375 C 11.347656 -3.660156 12.296875 -4.050781 13.046875 -4.65625 C 13.796875 -5.269531 14.335938 -6.046875 14.671875 -6.984375 C 14.703125 -7.128906 14.773438 -7.234375 14.890625 -7.296875 C 15.003906 -7.367188 15.132812 -7.375 15.28125 -7.3125 L 16.46875 -6.859375 C 16.789062 -6.722656 16.894531 -6.519531 16.78125 -6.25 C 16.351562 -4.90625 15.582031 -3.769531 14.46875 -2.84375 C 13.363281 -1.925781 11.984375 -1.351562 10.328125 -1.125 C 8.546875 -0.875 6.988281 -1.082031 5.65625 -1.75 C 4.332031 -2.425781 3.300781 -3.472656 2.5625 -4.890625 C 1.894531 -6.078125 1.410156 -7.78125 1.109375 -10 C 0.953125 -11.09375 0.847656 -11.960938 0.796875 -12.609375 C 0.753906 -13.265625 0.765625 -13.878906 0.828125 -14.453125 C 1.035156 -16.160156 1.71875 -17.597656 2.875 -18.765625 C 4.039062 -19.929688 5.550781 -20.644531 7.40625 -20.90625 C 9.601562 -21.207031 11.398438 -20.875 12.796875 -19.90625 C 14.203125 -18.945312 15.234375 -17.457031 15.890625 -15.4375 C 16.148438 -14.644531 16.398438 -13.390625 16.640625 -11.671875 C 16.679688 -11.347656 16.539062 -11.164062 16.21875 -11.125 L 4.09375 -9.421875 C 3.96875 -9.410156 3.914062 -9.34375 3.9375 -9.21875 C 4.113281 -7.945312 4.316406 -7.03125 4.546875 -6.46875 C 4.972656 -5.375 5.679688 -4.554688 6.671875 -4.015625 C 7.671875 -3.472656 8.847656 -3.296875 10.203125 -3.484375 Z M 7.734375 -18.546875 C 6.460938 -18.367188 5.46875 -17.898438 4.75 -17.140625 C 4.03125 -16.390625 3.625 -15.453125 3.53125 -14.328125 C 3.445312 -13.804688 3.46875 -12.929688 3.59375 -11.703125 C 3.601562 -11.578125 3.671875 -11.519531 3.796875 -11.53125 L 13.53125 -12.90625 C 13.664062 -12.914062 13.726562 -12.984375 13.71875 -13.109375 C 13.507812 -14.222656 13.316406 -15.023438 13.140625 -15.515625 C 12.703125 -16.617188 12.007812 -17.441406 11.0625 -17.984375 C 10.125 -18.535156 9.015625 -18.722656 7.734375 -18.546875 Z M 7.734375 -18.546875 "/></g></g></g><g fill="#f7f7f7" fill-opacity="1"><g transform="translate(218.545197, 293.512847)"><g/></g></g><g fill="#f7f7f7" fill-opacity="1"><g transform="translate(227.810699, 291.396421)"><g><path d="M 3.328125 -22.296875 C 5.210938 -23.023438 6.929688 -23.046875 8.484375 -22.359375 C 10.046875 -21.671875 11.191406 -20.390625 11.921875 -18.515625 L 16.40625 -6.828125 C 16.519531 -6.515625 16.425781 -6.300781 16.125 -6.1875 L 14.5 -5.5625 C 14.1875 -5.445312 13.972656 -5.546875 13.859375 -5.859375 L 9.5625 -17.03125 C 9.050781 -18.375 8.242188 -19.304688 7.140625 -19.828125 C 6.046875 -20.347656 4.863281 -20.363281 3.59375 -19.875 C 2.382812 -19.414062 1.515625 -18.679688 0.984375 -17.671875 C 0.453125 -16.671875 0.335938 -15.59375 0.640625 -14.4375 L 5.21875 -2.546875 C 5.332031 -2.234375 5.238281 -2.015625 4.9375 -1.890625 L 3.328125 -1.28125 C 3.015625 -1.15625 2.800781 -1.25 2.6875 -1.5625 L -6.5625 -25.625 C -6.675781 -25.9375 -6.578125 -26.15625 -6.265625 -26.28125 L -4.65625 -26.890625 C -4.351562 -27.015625 -4.144531 -26.921875 -4.03125 -26.609375 L -0.859375 -18.375 C -0.828125 -18.289062 -0.78125 -18.238281 -0.71875 -18.21875 C -0.65625 -18.207031 -0.625 -18.238281 -0.625 -18.3125 C -0.132812 -20.15625 1.179688 -21.484375 3.328125 -22.296875 Z M 3.328125 -22.296875 "/></g></g></g><g fill="#f7f7f7" fill-opacity="1"><g transform="translate(249.407857, 282.869476)"><g><path d="M 3.15625 -23.734375 C 2.988281 -24.023438 3.050781 -24.257812 3.34375 -24.4375 L 4.828125 -25.296875 C 5.109375 -25.472656 5.332031 -25.414062 5.5 -25.125 L 14.8125 -9.3125 C 14.976562 -9.019531 14.921875 -8.785156 14.640625 -8.609375 L 13.15625 -7.75 C 12.863281 -7.570312 12.632812 -7.628906 12.46875 -7.921875 L 11.734375 -9.171875 C 11.691406 -9.234375 11.644531 -9.265625 11.59375 -9.265625 C 11.550781 -9.265625 11.519531 -9.21875 11.5 -9.125 C 11.332031 -7.238281 10.269531 -5.722656 8.3125 -4.578125 C 7.257812 -3.960938 6.160156 -3.601562 5.015625 -3.5 C 3.867188 -3.40625 2.796875 -3.613281 1.796875 -4.125 C 0.804688 -4.632812 -0.0195312 -5.460938 -0.6875 -6.609375 L -7.1875 -17.640625 C -7.351562 -17.929688 -7.296875 -18.164062 -7.015625 -18.34375 L -5.53125 -19.203125 C -5.238281 -19.378906 -5.007812 -19.320312 -4.84375 -19.03125 L 1.25 -8.671875 C 1.976562 -7.429688 2.910156 -6.644531 4.046875 -6.3125 C 5.191406 -5.988281 6.367188 -6.1875 7.578125 -6.90625 C 8.828125 -7.632812 9.597656 -8.585938 9.890625 -9.765625 C 10.179688 -10.941406 9.96875 -12.144531 9.25 -13.375 Z M 3.15625 -23.734375 "/></g></g></g><g fill="#f7f7f7" fill-opacity="1"><g transform="translate(269.221895, 270.972003)"><g><path d="M 4.484375 -22.578125 C 5.378906 -21.984375 6.507812 -20.875 7.875 -19.25 C 9.21875 -17.644531 10.117188 -16.289062 10.578125 -15.1875 C 11.253906 -13.675781 11.421875 -12.175781 11.078125 -10.6875 C 10.742188 -9.207031 9.894531 -7.894531 8.53125 -6.75 C 7.75 -6.09375 6.90625 -5.648438 6 -5.421875 C 5.101562 -5.203125 4.195312 -5.203125 3.28125 -5.421875 C 3.21875 -5.421875 3.171875 -5.398438 3.140625 -5.359375 C 3.109375 -5.316406 3.117188 -5.269531 3.171875 -5.21875 L 4.09375 -4.109375 C 4.3125 -3.847656 4.296875 -3.609375 4.046875 -3.390625 L 2.734375 -2.296875 C 2.472656 -2.078125 2.234375 -2.097656 2.015625 -2.359375 L -14.546875 -22.109375 C -14.765625 -22.359375 -14.742188 -22.59375 -14.484375 -22.8125 L -13.171875 -23.90625 C -12.921875 -24.125 -12.6875 -24.109375 -12.46875 -23.859375 L -6.796875 -17.09375 C -6.742188 -17.03125 -6.6875 -17.003906 -6.625 -17.015625 C -6.570312 -17.035156 -6.554688 -17.085938 -6.578125 -17.171875 C -6.609375 -18.085938 -6.425781 -18.972656 -6.03125 -19.828125 C -5.644531 -20.679688 -5.070312 -21.425781 -4.3125 -22.0625 C -2.925781 -23.21875 -1.460938 -23.832031 0.078125 -23.90625 C 1.617188 -23.976562 3.085938 -23.535156 4.484375 -22.578125 Z M 8.234375 -13.5 C 8.097656 -14.082031 7.847656 -14.660156 7.484375 -15.234375 C 7.128906 -15.816406 6.566406 -16.570312 5.796875 -17.5 C 4.984375 -18.457031 4.300781 -19.160156 3.75 -19.609375 C 3.195312 -20.054688 2.625 -20.394531 2.03125 -20.625 C 1.238281 -21.0625 0.394531 -21.234375 -0.5 -21.140625 C -1.394531 -21.054688 -2.234375 -20.6875 -3.015625 -20.03125 C -3.753906 -19.414062 -4.226562 -18.679688 -4.4375 -17.828125 C -4.644531 -16.972656 -4.582031 -16.113281 -4.25 -15.25 C -4.101562 -14.675781 -3.84375 -14.085938 -3.46875 -13.484375 C -3.101562 -12.890625 -2.523438 -12.125 -1.734375 -11.1875 C -0.953125 -10.25 -0.300781 -9.546875 0.21875 -9.078125 C 0.738281 -8.609375 1.253906 -8.253906 1.765625 -8.015625 C 2.585938 -7.546875 3.429688 -7.328125 4.296875 -7.359375 C 5.171875 -7.390625 6 -7.734375 6.78125 -8.390625 C 7.601562 -9.078125 8.140625 -9.875 8.390625 -10.78125 C 8.648438 -11.695312 8.597656 -12.601562 8.234375 -13.5 Z M 8.234375 -13.5 "/></g></g></g><path fill="#41c1ba" d="M 167.136719 151.59375 C 190.773438 148.28125 192.683594 190.613281 170.8125 189.585938 C 153.226562 188.765625 146.59375 154.476562 167.136719 151.59375 " fill-opacity="1" fill-rule="evenodd"/><path fill="#41c1ba" d="M 205.128906 151.59375 C 231.160156 145.914062 228.121094 192.160156 203.902344 189.585938 C 184.734375 187.550781 188.46875 155.230469 205.128906 151.59375 " fill-opacity="1" fill-rule="evenodd"/><path fill="#41c1ba" d="M 158.558594 202.457031 C 149.300781 222.664062 121.085938 208.386719 124.242188 188.359375 C 127.5625 167.265625 165.289062 178.019531 158.558594 202.457031 " fill-opacity="1" fill-rule="evenodd"/><g clip-path="url(#1cdef4d674)"><path fill="#41c1ba" d="M 235.15625 177.332031 C 241.246094 176.152344 248.855469 178.316406 251.699219 183.457031 C 259.539062 197.644531 245.089844 214.984375 230.863281 213.484375 C 223.050781 212.664062 218.539062 206.011719 217.996094 200.003906 C 216.832031 187.132812 226.019531 179.101562 235.15625 177.332031 " fill-opacity="1" fill-rule="evenodd"/></g><g clip-path="url(#fa6d9f2d88)"><path fill="#41c1ba" d="M 182.453125 196.328125 C 203.925781 192.625 223.636719 208.09375 219.222656 234.316406 C 218.308594 239.746094 213.636719 247.421875 206.964844 247.800781 C 201.582031 248.105469 195.285156 242.867188 188.585938 242.898438 C 180.261719 242.9375 173.699219 250.316406 165.910156 246.574219 C 159.367188 243.429688 156.722656 230.707031 157.945312 221.453125 C 159.707031 208.109375 169.515625 198.558594 182.453125 196.328125 " fill-opacity="1" fill-rule="evenodd"/></g><g fill="#f7f7f7" fill-opacity="1"><g transform="translate(117.200511, 165.288503)"><g><path d="M 6.234375 -9.09375 C 5.921875 -8.644531 5.523438 -8.523438 5.046875 -8.734375 L -28.375 -20.640625 C -28.46875 -20.640625 -28.554688 -20.671875 -28.640625 -20.734375 C -29.035156 -21.003906 -29.078125 -21.363281 -28.765625 -21.8125 L -25.4375 -26.671875 C -25.15625 -27.085938 -24.769531 -27.191406 -24.28125 -26.984375 L -4.59375 -19.375 C -4.445312 -19.320312 -4.347656 -19.335938 -4.296875 -19.421875 C -4.242188 -19.503906 -4.257812 -19.601562 -4.34375 -19.71875 L -18.6875 -35.15625 C -19.0625 -35.53125 -19.097656 -35.929688 -18.796875 -36.359375 L -15.515625 -41.15625 C -15.203125 -41.613281 -14.804688 -41.738281 -14.328125 -41.53125 L 5.484375 -34.078125 C 5.617188 -34.023438 5.707031 -34.035156 5.75 -34.109375 C 5.800781 -34.179688 5.78125 -34.269531 5.6875 -34.375 L -8.640625 -49.8125 C -9.015625 -50.195312 -9.054688 -50.597656 -8.765625 -51.015625 L -5.578125 -55.65625 C -5.410156 -55.90625 -5.210938 -56.023438 -4.984375 -56.015625 C -4.765625 -56.015625 -4.554688 -55.910156 -4.359375 -55.703125 L 19.25 -29.46875 C 19.613281 -29.09375 19.640625 -28.675781 19.328125 -28.21875 L 16.125 -23.546875 C 15.8125 -23.097656 15.421875 -22.972656 14.953125 -23.171875 L -6.046875 -31.296875 C -6.171875 -31.347656 -6.265625 -31.328125 -6.328125 -31.234375 C -6.390625 -31.148438 -6.367188 -31.0625 -6.265625 -30.96875 L 9.09375 -14.625 C 9.445312 -14.25 9.484375 -13.851562 9.203125 -13.4375 Z M 6.234375 -9.09375 "/></g></g></g><g fill="#f7f7f7" fill-opacity="1"><g transform="translate(138.225756, 134.833904)"><g><path d="M -0.84375 -31.53125 C 1.46875 -33.03125 3.785156 -33.53125 6.109375 -33.03125 C 8.429688 -32.539062 10.378906 -31.085938 11.953125 -28.671875 L 21.015625 -14.71875 C 21.335938 -14.226562 21.253906 -13.828125 20.765625 -13.515625 L 16.15625 -10.5 C 15.664062 -10.1875 15.257812 -10.273438 14.9375 -10.765625 L 6.6875 -23.453125 C 5.9375 -24.609375 5.007812 -25.335938 3.90625 -25.640625 C 2.800781 -25.953125 1.71875 -25.757812 0.65625 -25.0625 C -0.40625 -24.375 -1.035156 -23.453125 -1.234375 -22.296875 C -1.429688 -21.148438 -1.15625 -20 -0.40625 -18.84375 L 7.84375 -6.15625 C 8.164062 -5.664062 8.082031 -5.257812 7.59375 -4.9375 L 2.96875 -1.9375 C 2.476562 -1.613281 2.070312 -1.695312 1.75 -2.1875 L -16.953125 -30.953125 C -17.265625 -31.441406 -17.175781 -31.847656 -16.6875 -32.171875 L -12.0625 -35.171875 C -11.570312 -35.492188 -11.171875 -35.410156 -10.859375 -34.921875 L -4.84375 -25.671875 C -4.769531 -25.554688 -4.691406 -25.503906 -4.609375 -25.515625 C -4.535156 -25.523438 -4.5 -25.59375 -4.5 -25.71875 C -4.363281 -28.09375 -3.144531 -30.03125 -0.84375 -31.53125 Z M -0.84375 -31.53125 "/></g></g></g><g fill="#f7f7f7" fill-opacity="1"><g transform="translate(158.314965, 122.163144)"><g><path d="M -3.6875 -29.546875 C -4.925781 -29.085938 -6.066406 -29.09375 -7.109375 -29.5625 C -8.160156 -30.039062 -8.90625 -30.878906 -9.34375 -32.078125 C -9.78125 -33.265625 -9.753906 -34.378906 -9.265625 -35.421875 C -8.773438 -36.460938 -7.910156 -37.210938 -6.671875 -37.671875 C -5.421875 -38.128906 -4.28125 -38.125 -3.25 -37.65625 C -2.21875 -37.1875 -1.476562 -36.34375 -1.03125 -35.125 C -0.582031 -33.894531 -0.597656 -32.769531 -1.078125 -31.75 C -1.566406 -30.738281 -2.4375 -30.003906 -3.6875 -29.546875 Z M 3.71875 -1.359375 C 3.175781 -1.160156 2.804688 -1.335938 2.609375 -1.890625 L -5.90625 -25.109375 C -6.101562 -25.648438 -5.929688 -26.019531 -5.390625 -26.21875 L -0.203125 -28.125 C 0.335938 -28.320312 0.707031 -28.148438 0.90625 -27.609375 L 9.421875 -4.390625 C 9.617188 -3.835938 9.445312 -3.460938 8.90625 -3.265625 Z M 3.71875 -1.359375 "/></g></g></g><g fill="#f7f7f7" fill-opacity="1"><g transform="translate(166.716035, 117.907828)"><g><path d="M 13.15625 -1.46875 C 10.875 -1.144531 8.835938 -1.1875 7.046875 -1.59375 C 5.265625 -2.007812 3.832031 -2.726562 2.75 -3.75 C 1.675781 -4.78125 1.035156 -6.03125 0.828125 -7.5 L 0.796875 -7.75 C 0.710938 -8.332031 0.957031 -8.664062 1.53125 -8.75 L 6.6875 -9.46875 C 7.269531 -9.550781 7.578125 -9.488281 7.609375 -9.28125 L 7.65625 -8.921875 C 7.757812 -8.171875 8.253906 -7.585938 9.140625 -7.171875 C 10.023438 -6.765625 11.097656 -6.644531 12.359375 -6.8125 C 13.515625 -6.976562 14.421875 -7.332031 15.078125 -7.875 C 15.742188 -8.414062 16.023438 -9.039062 15.921875 -9.75 C 15.835938 -10.363281 15.46875 -10.78125 14.8125 -11 C 14.15625 -11.226562 13.101562 -11.414062 11.65625 -11.5625 C 9.914062 -11.78125 8.617188 -12 7.765625 -12.21875 C 5.453125 -12.65625 3.570312 -13.328125 2.125 -14.234375 C 0.6875 -15.148438 -0.175781 -16.628906 -0.46875 -18.671875 C -0.8125 -21.179688 -0.101562 -23.3125 1.65625 -25.0625 C 3.425781 -26.820312 5.910156 -27.925781 9.109375 -28.375 C 11.285156 -28.675781 13.242188 -28.59375 14.984375 -28.125 C 16.734375 -27.65625 18.144531 -26.851562 19.21875 -25.71875 C 20.289062 -24.59375 20.941406 -23.234375 21.171875 -21.640625 C 21.191406 -21.460938 21.132812 -21.300781 21 -21.15625 C 20.863281 -21.007812 20.660156 -20.921875 20.390625 -20.890625 L 15.390625 -20.1875 C 14.804688 -20.113281 14.5 -20.179688 14.46875 -20.390625 L 14.4375 -20.703125 C 14.332031 -21.441406 13.867188 -22.015625 13.046875 -22.421875 C 12.234375 -22.828125 11.195312 -22.941406 9.9375 -22.765625 C 8.8125 -22.609375 7.910156 -22.273438 7.234375 -21.765625 C 6.554688 -21.253906 6.265625 -20.640625 6.359375 -19.921875 C 6.460938 -19.242188 6.882812 -18.785156 7.625 -18.546875 C 8.375 -18.304688 9.578125 -18.109375 11.234375 -17.953125 C 12.242188 -17.878906 13.234375 -17.757812 14.203125 -17.59375 C 16.742188 -17.207031 18.789062 -16.550781 20.34375 -15.625 C 21.894531 -14.695312 22.820312 -13.164062 23.125 -11.03125 C 23.46875 -8.519531 22.734375 -6.414062 20.921875 -4.71875 C 19.117188 -3.019531 16.53125 -1.9375 13.15625 -1.46875 Z M 13.15625 -1.46875 "/></g></g></g><g fill="#f7f7f7" fill-opacity="1"><g transform="translate(186.858993, 114.184852)"><g><path d="M 3.5 0.53125 C 2.925781 0.445312 2.679688 0.117188 2.765625 -0.453125 L 7.921875 -34.375 C 8.015625 -34.957031 8.347656 -35.207031 8.921875 -35.125 L 14.375 -34.296875 C 14.957031 -34.203125 15.203125 -33.863281 15.109375 -33.28125 L 12.5625 -16.484375 C 12.539062 -16.347656 12.570312 -16.265625 12.65625 -16.234375 C 12.738281 -16.203125 12.820312 -16.234375 12.90625 -16.328125 L 20.875 -23.09375 C 21.257812 -23.382812 21.640625 -23.503906 22.015625 -23.453125 L 28.171875 -22.515625 C 28.410156 -22.472656 28.59375 -22.394531 28.71875 -22.28125 C 28.84375 -22.175781 28.894531 -22.039062 28.875 -21.875 C 28.84375 -21.664062 28.738281 -21.488281 28.5625 -21.34375 L 21.109375 -14.453125 C 20.992188 -14.367188 20.957031 -14.238281 21 -14.0625 L 26.078125 2.921875 L 26.125 3.328125 C 26.0625 3.742188 25.769531 3.914062 25.25 3.84375 L 19.515625 2.96875 C 19.035156 2.894531 18.722656 2.617188 18.578125 2.140625 L 15.421875 -10.265625 C 15.347656 -10.492188 15.210938 -10.53125 15.015625 -10.375 L 11.25 -6.84375 C 11.125 -6.71875 11.054688 -6.601562 11.046875 -6.5 L 9.953125 0.640625 C 9.867188 1.210938 9.535156 1.453125 8.953125 1.359375 Z M 3.5 0.53125 "/></g></g></g><g fill="#f7f7f7" fill-opacity="1"><g transform="translate(208.543008, 116.549344)"><g><path d="M 16.40625 1.609375 C 18.488281 2.503906 20.390625 2.550781 22.109375 1.75 C 22.398438 1.613281 22.65625 1.597656 22.875 1.703125 C 23.0625 1.796875 23.191406 1.960938 23.265625 2.203125 L 24.671875 6.015625 C 24.765625 6.296875 24.765625 6.53125 24.671875 6.71875 C 24.566406 6.9375 24.421875 7.09375 24.234375 7.1875 C 22.597656 7.957031 20.804688 8.316406 18.859375 8.265625 C 16.921875 8.210938 15.007812 7.726562 13.125 6.8125 C 10.28125 5.4375 8.273438 3.570312 7.109375 1.21875 C 5.941406 -1.132812 5.648438 -3.738281 6.234375 -6.59375 C 6.515625 -8.132812 7.023438 -9.660156 7.765625 -11.171875 C 8.640625 -12.960938 9.546875 -14.394531 10.484375 -15.46875 C 12.210938 -17.445312 14.347656 -18.675781 16.890625 -19.15625 C 19.429688 -19.644531 21.988281 -19.265625 24.5625 -18.015625 C 27.582031 -16.546875 29.546875 -14.484375 30.453125 -11.828125 C 31.359375 -9.179688 31.285156 -6.109375 30.234375 -2.609375 C 29.867188 -1.523438 29.414062 -0.347656 28.875 0.921875 C 28.613281 1.441406 28.222656 1.570312 27.703125 1.3125 L 13.484375 -5.59375 C 13.296875 -5.6875 13.160156 -5.640625 13.078125 -5.453125 C 12.859375 -4.753906 12.726562 -4.222656 12.6875 -3.859375 C 12.539062 -2.742188 12.796875 -1.707031 13.453125 -0.75 C 14.117188 0.195312 15.101562 0.984375 16.40625 1.609375 Z M 21.71875 -12.40625 C 20.738281 -12.882812 19.796875 -13.046875 18.890625 -12.890625 C 17.992188 -12.734375 17.21875 -12.289062 16.5625 -11.5625 C 16.101562 -11.039062 15.820312 -10.691406 15.71875 -10.515625 C 15.59375 -10.347656 15.617188 -10.21875 15.796875 -10.125 L 23.6875 -6.296875 C 23.832031 -6.222656 23.9375 -6.253906 24 -6.390625 C 24.164062 -6.722656 24.273438 -7.101562 24.328125 -7.53125 C 24.492188 -8.5625 24.363281 -9.503906 23.9375 -10.359375 C 23.507812 -11.210938 22.769531 -11.894531 21.71875 -12.40625 Z M 21.71875 -12.40625 "/></g></g></g><g fill="#f7f7f7" fill-opacity="1"><g transform="translate(229.419443, 126.571887)"><g><path d="M 29.546875 -9.96875 C 30.378906 -9.25 30.929688 -8.5 31.203125 -7.71875 C 31.378906 -7.28125 31.265625 -6.898438 30.859375 -6.578125 L 26.578125 -3.125 C 26.347656 -2.914062 26.148438 -2.835938 25.984375 -2.890625 C 25.828125 -2.941406 25.640625 -3.097656 25.421875 -3.359375 C 25.109375 -3.828125 24.78125 -4.207031 24.4375 -4.5 C 24.257812 -4.65625 23.9375 -4.890625 23.46875 -5.203125 C 22.457031 -5.929688 21.363281 -6.269531 20.1875 -6.21875 C 19.019531 -6.175781 18 -5.648438 17.125 -4.640625 L 8.109375 5.828125 C 7.722656 6.265625 7.304688 6.296875 6.859375 5.921875 L 2.6875 2.3125 C 2.238281 1.9375 2.207031 1.53125 2.59375 1.09375 L 18.75 -17.640625 C 19.125 -18.078125 19.535156 -18.109375 19.984375 -17.734375 L 24.15625 -14.125 C 24.601562 -13.75 24.640625 -13.34375 24.265625 -12.90625 L 23.203125 -11.6875 C 23.117188 -11.582031 23.09375 -11.492188 23.125 -11.421875 C 23.15625 -11.347656 23.238281 -11.320312 23.375 -11.34375 C 25.71875 -11.945312 27.773438 -11.488281 29.546875 -9.96875 Z M 29.546875 -9.96875 "/></g></g></g><g fill="#f7f7f7" fill-opacity="1"><g transform="translate(241.442036, 135.668777)"><g><path d="M 7.296875 11.03125 C 5.972656 9.15625 5.085938 7.328125 4.640625 5.546875 C 4.203125 3.765625 4.191406 2.160156 4.609375 0.734375 C 5.023438 -0.691406 5.835938 -1.832031 7.046875 -2.6875 L 7.265625 -2.828125 C 7.742188 -3.171875 8.148438 -3.101562 8.484375 -2.625 L 11.484375 1.640625 C 11.816406 2.117188 11.898438 2.421875 11.734375 2.546875 L 11.4375 2.75 C 10.8125 3.1875 10.515625 3.894531 10.546875 4.875 C 10.585938 5.851562 10.972656 6.863281 11.703125 7.90625 C 12.367188 8.863281 13.09375 9.503906 13.875 9.828125 C 14.664062 10.160156 15.351562 10.125 15.9375 9.71875 C 16.445312 9.363281 16.648438 8.84375 16.546875 8.15625 C 16.441406 7.46875 16.128906 6.453125 15.609375 5.109375 C 15.003906 3.472656 14.609375 2.21875 14.421875 1.34375 C 13.753906 -0.914062 13.492188 -2.894531 13.640625 -4.59375 C 13.796875 -6.289062 14.71875 -7.734375 16.40625 -8.921875 C 18.488281 -10.378906 20.710938 -10.722656 23.078125 -9.953125 C 25.441406 -9.179688 27.550781 -7.472656 29.40625 -4.828125 C 30.675781 -3.023438 31.5 -1.242188 31.875 0.515625 C 32.25 2.285156 32.175781 3.90625 31.65625 5.375 C 31.132812 6.851562 30.210938 8.054688 28.890625 8.984375 C 28.742188 9.085938 28.578125 9.109375 28.390625 9.046875 C 28.210938 8.984375 28.046875 8.84375 27.890625 8.625 L 25 4.5 C 24.65625 4.019531 24.566406 3.722656 24.734375 3.609375 L 24.984375 3.421875 C 25.597656 2.992188 25.898438 2.320312 25.890625 1.40625 C 25.878906 0.488281 25.507812 -0.488281 24.78125 -1.53125 C 24.132812 -2.457031 23.429688 -3.101562 22.671875 -3.46875 C 21.910156 -3.84375 21.234375 -3.820312 20.640625 -3.40625 C 20.078125 -3.007812 19.859375 -2.425781 19.984375 -1.65625 C 20.109375 -0.882812 20.484375 0.265625 21.109375 1.796875 C 21.503906 2.742188 21.84375 3.6875 22.125 4.625 C 22.945312 7.0625 23.300781 9.179688 23.1875 10.984375 C 23.070312 12.796875 22.128906 14.320312 20.359375 15.5625 C 18.273438 17.019531 16.066406 17.328125 13.734375 16.484375 C 11.398438 15.640625 9.253906 13.820312 7.296875 11.03125 Z M 7.296875 11.03125 "/></g></g></g><g fill="#f7f7f7" fill-opacity="1"><g transform="translate(253.775034, 153.934212)"><g/></g></g></svg>